<ttFont>
    <TTGlyph name=".notdef" xMin="50" yMin="0" xMax="642" yMax="809">
      <contour>
        <pt x="642" y="0" on="1"/>
        <pt x="50" y="0" on="1"/>
        <pt x="50" y="809" on="1"/>
        <pt x="642" y="809" on="1"/>
      </contour>
      <contour>
        <pt x="612" y="28" on="1"/>
        <pt x="612" y="781" on="1"/>
        <pt x="80" y="781" on="1"/>
        <pt x="80" y="28" on="1"/>
      </contour>
    </TTGlyph>
    <TTGlyph name="A" xMin="-43" yMin="0" xMax="357" yMax="483">
      <contour>
        <pt x="357" y="0" on="1"/>
        <pt x="314" y="0" on="1"/>
        <pt x="291" y="153" on="1"/>
        <pt x="86" y="153" on="1"/>
        <pt x="0" y="0" on="1"/>
        <pt x="-43" y="0" on="1"/>
        <pt x="239" y="483" on="1"/>
        <pt x="279" y="483" on="1"/>
      </contour>
      <contour>
        <pt x="286" y="186" on="1"/>
        <pt x="250" y="440" on="1"/>
        <pt x="105" y="186" on="1"/>
      </contour>
    </TTGlyph>
    <TTGlyph name="AE" xMin="-50" yMin="0" xMax="590" yMax="476">
      <contour>
        <pt x="501" y="0" on="1"/>
        <pt x="287" y="0" on="1"/>
        <pt x="300" y="196" on="1"/>
        <pt x="136" y="196" on="1"/>
        <pt x="-9" y="0" on="1"/>
        <pt x="-50" y="0" on="1"/>
        <pt x="306" y="476" on="1"/>
        <pt x="590" y="476" on="1"/>
        <pt x="583" y="443" on="1"/>
        <pt x="355" y="443" on="1"/>
        <pt x="341" y="267" on="1"/>
        <pt x="534" y="267" on="1"/>
        <pt x="527" y="234" on="1"/>
        <pt x="339" y="234" on="1"/>
        <pt x="327" y="33" on="1"/>
        <pt x="508" y="33" on="1"/>
      </contour>
      <contour>
        <pt x="302" y="228" on="1"/>
        <pt x="322" y="448" on="1"/>
        <pt x="159" y="228" on="1"/>
      </contour>
    </TTGlyph>
    <TTGlyph name="Aacute" xMin="-43" yMin="0" xMax="357" yMax="617">
      <component glyphName="A" x="0" y="0" flags="0x204"/>
      <component glyphName="acutecomb" x="310" y="136" flags="0x4"/>
    </TTGlyph>
    <TTGlyph name="Abreve" xMin="-43" yMin="0" xMax="862" yMax="1269">
      <component glyphName="A" x="0" y="0" flags="0x204"/>
      <component glyphName="breve" x="50" y="136" flags="0x4"/>
    </TTGlyph>
    <TTGlyph name="Acircumflex" xMin="-43" yMin="0" xMax="357" yMax="606">
      <component glyphName="A" x="0" y="0" flags="0x204"/>
      <component glyphName="circumflex" x="94" y="136" flags="0x4"/>
    </TTGlyph>
    <TTGlyph name="Adieresis" xMin="-43" yMin="0" xMax="370" yMax="589">
      <component glyphName="A" x="0" y="0" flags="0x204"/>
      <component glyphName="dieresis" x="93" y="136" flags="0x4"/>
    </TTGlyph>
    <TTGlyph name="Agrave" xMin="-43" yMin="0" xMax="357" yMax="617">
      <component glyphName="A" x="0" y="0" flags="0x204"/>
      <component glyphName="gravecomb" x="300" y="136" flags="0x4"/>
    </TTGlyph>
    <TTGlyph name="Aring" xMin="-43" yMin="0" xMax="359" yMax="651">
      <component glyphName="A" x="0" y="0" flags="0x204"/>
      <component glyphName="ring" x="45" y="136" flags="0x4"/>
    </TTGlyph>
    <TTGlyph name="Atilde" xMin="-43" yMin="0" xMax="366" yMax="590">
      <component glyphName="A" x="0" y="0" flags="0x204"/>
      <component glyphName="tildecomb" x="304" y="136" flags="0x4"/>
    </TTGlyph>
    <TTGlyph name="B" xMin="11" yMin="-6" xMax="386" yMax="482">
      <contour>
        <pt x="331" y="133" on="1"/>
        <pt x="301" y="-6" on="0"/>
        <pt x="100" y="-6" on="1"/>
        <pt x="56" y="-6" on="0"/>
        <pt x="11" y="4" on="1"/>
        <pt x="110" y="469" on="1"/>
        <pt x="163" y="482" on="0"/>
        <pt x="213" y="482" on="1"/>
        <pt x="386" y="482" on="0"/>
        <pt x="360" y="362" on="1"/>
        <pt x="353" y="326" on="0"/>
        <pt x="297" y="267" on="0"/>
        <pt x="258" y="254" on="1"/>
        <pt x="293" y="245" on="0"/>
        <pt x="341" y="182" on="0"/>
      </contour>
      <contour>
        <pt x="321" y="361" on="1"/>
        <pt x="340" y="449" on="0"/>
        <pt x="206" y="449" on="1"/>
        <pt x="175" y="449" on="0"/>
        <pt x="143" y="442" on="1"/>
        <pt x="106" y="268" on="1"/>
        <pt x="187" y="268" on="1"/>
        <pt x="240" y="268" on="0"/>
        <pt x="278" y="296" on="1"/>
        <pt x="313" y="322" on="0"/>
      </contour>
      <contour>
        <pt x="293" y="132" on="1"/>
        <pt x="304" y="185" on="0"/>
        <pt x="232" y="236" on="0"/>
        <pt x="169" y="236" on="1"/>
        <pt x="100" y="236" on="1"/>
        <pt x="56" y="32" on="1"/>
        <pt x="82" y="26" on="0"/>
        <pt x="115" y="26" on="1"/>
        <pt x="179" y="26" on="0"/>
        <pt x="225" y="49" on="1"/>
        <pt x="281" y="77" on="0"/>
      </contour>
    </TTGlyph>
    <TTGlyph name="C" xMin="8" yMin="-7" xMax="433" yMax="483">
      <contour>
        <pt x="334" y="50" on="1"/>
        <pt x="339" y="18" on="1"/>
        <pt x="281" y="-7" on="0"/>
        <pt x="204" y="-7" on="1"/>
        <pt x="107" y="-7" on="0"/>
        <pt x="8" y="132" on="0"/>
        <pt x="30" y="239" on="1"/>
        <pt x="53" y="346" on="0"/>
        <pt x="211" y="483" on="0"/>
        <pt x="308" y="483" on="1"/>
        <pt x="385" y="483" on="0"/>
        <pt x="433" y="458" on="1"/>
        <pt x="414" y="426" on="1"/>
        <pt x="365" y="449" on="0"/>
        <pt x="303" y="449" on="1"/>
        <pt x="226" y="449" on="0"/>
        <pt x="160" y="392" on="1"/>
        <pt x="90" y="332" on="0"/>
        <pt x="70" y="238" on="1"/>
        <pt x="50" y="144" on="0"/>
        <pt x="94" y="84" on="1"/>
        <pt x="136" y="27" on="0"/>
        <pt x="213" y="27" on="1"/>
        <pt x="275" y="27" on="0"/>
      </contour>
    </TTGlyph>
    <TTGlyph name="Cacute" xMin="8" yMin="-7" xMax="5354" yMax="1892">
      <component glyphName="C" x="0" y="0" flags="0x204"/>
      <component glyphName="acutecomb" x="313" y="136" flags="0x4"/>
    </TTGlyph>
    <TTGlyph name="Ccaron" xMin="8" yMin="-7" xMax="725" yMax="870">
      <component glyphName="C" x="0" y="0" flags="0x204"/>
      <component glyphName="caron" x="158" y="136" flags="0x4"/>
    </TTGlyph>
    <TTGlyph name="Ccedilla" xMin="8" yMin="-139" xMax="433" yMax="483">
      <component glyphName="C" x="0" y="0" flags="0x204"/>
      <component glyphName="cedilla" x="109" y="0" flags="0x4"/>
    </TTGlyph>
    <TTGlyph name="D" xMin="12" yMin="-4" xMax="434" yMax="481">
      <contour>
        <pt x="411" y="248" on="1"/>
        <pt x="358" y="-4" on="0"/>
        <pt x="132" y="-4" on="1"/>
        <pt x="102" y="-4" on="0"/>
        <pt x="12" y="5" on="1"/>
        <pt x="110" y="469" on="1"/>
        <pt x="205" y="481" on="0"/>
        <pt x="255" y="481" on="1"/>
        <pt x="346" y="481" on="0"/>
        <pt x="390" y="420" on="1"/>
        <pt x="434" y="356" on="0"/>
      </contour>
      <contour>
        <pt x="372" y="248" on="1"/>
        <pt x="392" y="343" on="0"/>
        <pt x="354" y="397" on="1"/>
        <pt x="319" y="447" on="0"/>
        <pt x="245" y="447" on="1"/>
        <pt x="214" y="447" on="0"/>
        <pt x="143" y="439" on="1"/>
        <pt x="57" y="36" on="1"/>
        <pt x="106" y="30" on="0"/>
        <pt x="151" y="30" on="1"/>
        <pt x="232" y="30" on="0"/>
        <pt x="350" y="145" on="0"/>
      </contour>
    </TTGlyph>
    <TTGlyph name="Dcroat" xMin="10" yMin="-4" xMax="435" yMax="481">
      <contour>
        <pt x="411" y="248" on="1"/>
        <pt x="386" y="128" on="0"/>
        <pt x="331" y="68" on="1"/>
        <pt x="266" y="-4" on="0"/>
        <pt x="147" y="-4" on="1"/>
        <pt x="102" y="-4" on="0"/>
        <pt x="12" y="5" on="1"/>
        <pt x="58" y="225" on="1"/>
        <pt x="10" y="225" on="1"/>
        <pt x="17" y="258" on="1"/>
        <pt x="65" y="258" on="1"/>
        <pt x="110" y="469" on="1"/>
        <pt x="205" y="481" on="0"/>
        <pt x="270" y="481" on="1"/>
        <pt x="360" y="481" on="0"/>
        <pt x="435" y="358" on="0"/>
      </contour>
      <contour>
        <pt x="372" y="248" on="1"/>
        <pt x="393" y="344" on="0"/>
        <pt x="362" y="397" on="1"/>
        <pt x="332" y="447" on="0"/>
        <pt x="260" y="447" on="1"/>
        <pt x="214" y="447" on="0"/>
        <pt x="143" y="439" on="1"/>
        <pt x="104" y="258" on="1"/>
        <pt x="255" y="258" on="1"/>
        <pt x="248" y="225" on="1"/>
        <pt x="97" y="225" on="1"/>
        <pt x="57" y="36" on="1"/>
        <pt x="106" y="30" on="0"/>
        <pt x="166" y="30" on="1"/>
        <pt x="326" y="30" on="0"/>
      </contour>
    </TTGlyph>
    <TTGlyph name="Delta" xMin="-43" yMin="0" xMax="431" yMax="472">
      <contour>
        <pt x="374" y="35" on="1"/>
        <pt x="275" y="382" on="1"/>
        <pt x="28" y="35" on="1"/>
      </contour>
      <contour>
        <pt x="431" y="0" on="1"/>
        <pt x="-43" y="0" on="1"/>
        <pt x="294" y="472" on="1"/>
      </contour>
    </TTGlyph>
    <TTGlyph name="E" xMin="11" yMin="0" xMax="371" yMax="476">
      <contour>
        <pt x="270" y="0" on="1"/>
        <pt x="11" y="0" on="1"/>
        <pt x="112" y="476" on="1"/>
        <pt x="371" y="476" on="1"/>
        <pt x="364" y="443" on="1"/>
        <pt x="144" y="443" on="1"/>
        <pt x="106" y="268" on="1"/>
        <pt x="302" y="268" on="1"/>
        <pt x="295" y="235" on="1"/>
        <pt x="99" y="235" on="1"/>
        <pt x="57" y="33" on="1"/>
        <pt x="277" y="33" on="1"/>
      </contour>
    </TTGlyph>
    <TTGlyph name="Eacute" xMin="11" yMin="0" xMax="616" yMax="753">
      <component glyphName="E" x="0" y="0" flags="0x204"/>
      <component glyphName="acutecomb" x="286" y="136" flags="0x4"/>
    </TTGlyph>
    <TTGlyph name="Ecircumflex" xMin="11" yMin="0" xMax="421" yMax="742">
      <component glyphName="E" x="0" y="0" flags="0x204"/>
      <component glyphName="circumflex" x="69" y="136" flags="0x4"/>
    </TTGlyph>
    <TTGlyph name="Edieresis" xMin="11" yMin="0" xMax="439" yMax="725">
      <component glyphName="E" x="0" y="0" flags="0x204"/>
      <component glyphName="dieresis" x="69" y="136" flags="0x4"/>
    </TTGlyph>
    <TTGlyph name="Egrave" xMin="11" yMin="0" xMax="588" yMax="753">
      <component glyphName="E" x="0" y="0" flags="0x204"/>
      <component glyphName="gravecomb" x="276" y="136" flags="0x4"/>
    </TTGlyph>
    <TTGlyph name="Eth" xMin="7" yMin="-4" xMax="434" yMax="481">
      <contour>
        <pt x="411" y="248" on="1"/>
        <pt x="358" y="-4" on="0"/>
        <pt x="132" y="-4" on="1"/>
        <pt x="102" y="-4" on="0"/>
        <pt x="12" y="5" on="1"/>
        <pt x="56" y="213" on="1"/>
        <pt x="7" y="213" on="1"/>
        <pt x="14" y="246" on="1"/>
        <pt x="63" y="246" on="1"/>
        <pt x="110" y="469" on="1"/>
        <pt x="205" y="481" on="0"/>
        <pt x="255" y="481" on="1"/>
        <pt x="346" y="481" on="0"/>
        <pt x="390" y="420" on="1"/>
        <pt x="434" y="356" on="0"/>
      </contour>
      <contour>
        <pt x="372" y="248" on="1"/>
        <pt x="392" y="343" on="0"/>
        <pt x="354" y="397" on="1"/>
        <pt x="319" y="447" on="0"/>
        <pt x="245" y="447" on="1"/>
        <pt x="214" y="447" on="0"/>
        <pt x="143" y="439" on="1"/>
        <pt x="102" y="246" on="1"/>
        <pt x="270" y="246" on="1"/>
        <pt x="263" y="213" on="1"/>
        <pt x="95" y="213" on="1"/>
        <pt x="57" y="36" on="1"/>
        <pt x="106" y="30" on="0"/>
        <pt x="151" y="30" on="1"/>
        <pt x="232" y="30" on="0"/>
        <pt x="350" y="145" on="0"/>
      </contour>
    </TTGlyph>
    <TTGlyph name="Euro" xMin="-11" yMin="-7" xMax="433" yMax="483">
      <contour>
        <pt x="334" y="50" on="1"/>
        <pt x="339" y="18" on="1"/>
        <pt x="281" y="-7" on="0"/>
        <pt x="204" y="-7" on="1"/>
        <pt x="129" y="-7" on="0"/>
        <pt x="33" y="78" on="0"/>
        <pt x="25" y="150" on="1"/>
        <pt x="-11" y="150" on="1"/>
        <pt x="-4" y="182" on="1"/>
        <pt x="23" y="182" on="1"/>
        <pt x="25" y="212" on="0"/>
        <pt x="30" y="239" on="1"/>
        <pt x="35" y="262" on="0"/>
        <pt x="43" y="283" on="1"/>
        <pt x="17" y="283" on="1"/>
        <pt x="23" y="315" on="1"/>
        <pt x="56" y="315" on="1"/>
        <pt x="94" y="391" on="0"/>
        <pt x="230" y="483" on="0"/>
        <pt x="308" y="483" on="1"/>
        <pt x="385" y="483" on="0"/>
        <pt x="433" y="458" on="1"/>
        <pt x="414" y="426" on="1"/>
        <pt x="365" y="449" on="0"/>
        <pt x="303" y="449" on="1"/>
        <pt x="243" y="449" on="0"/>
        <pt x="131" y="377" on="0"/>
        <pt x="97" y="315" on="1"/>
        <pt x="348" y="315" on="1"/>
        <pt x="342" y="283" on="1"/>
        <pt x="83" y="283" on="1"/>
        <pt x="75" y="262" on="0"/>
        <pt x="70" y="238" on="1"/>
        <pt x="64" y="208" on="0"/>
        <pt x="64" y="182" on="1"/>
        <pt x="320" y="182" on="1"/>
        <pt x="313" y="150" on="1"/>
        <pt x="66" y="150" on="1"/>
        <pt x="76" y="93" on="0"/>
        <pt x="157" y="27" on="0"/>
        <pt x="213" y="27" on="1"/>
        <pt x="275" y="27" on="0"/>
      </contour>
    </TTGlyph>
    <TTGlyph name="F" xMin="11" yMin="0" xMax="381" yMax="476">
      <contour>
        <pt x="313" y="229" on="1"/>
        <pt x="98" y="229" on="1"/>
        <pt x="50" y="0" on="1"/>
        <pt x="11" y="0" on="1"/>
        <pt x="112" y="476" on="1"/>
        <pt x="381" y="476" on="1"/>
        <pt x="374" y="443" on="1"/>
        <pt x="144" y="443" on="1"/>
        <pt x="105" y="262" on="1"/>
        <pt x="320" y="262" on="1"/>
      </contour>
    </TTGlyph>
    <TTGlyph name="G" xMin="7" yMin="-5" xMax="423" yMax="481">
      <contour>
        <pt x="390" y="238" on="1"/>
        <pt x="342" y="10" on="1"/>
        <pt x="335" y="16" on="0"/>
        <pt x="322" y="16" on="1"/>
        <pt x="322" y="16" on="0"/>
        <pt x="199" y="-5" on="0"/>
        <pt x="179" y="-5" on="1"/>
        <pt x="88" y="-5" on="0"/>
        <pt x="7" y="128" on="0"/>
        <pt x="30" y="239" on="1"/>
        <pt x="53" y="345" on="0"/>
        <pt x="124" y="411" on="1"/>
        <pt x="198" y="481" on="0"/>
        <pt x="300" y="481" on="1"/>
        <pt x="373" y="481" on="0"/>
        <pt x="423" y="457" on="1"/>
        <pt x="404" y="425" on="1"/>
        <pt x="349" y="448" on="0"/>
        <pt x="291" y="448" on="1"/>
        <pt x="216" y="448" on="0"/>
        <pt x="90" y="330" on="0"/>
        <pt x="70" y="238" on="1"/>
        <pt x="49" y="140" on="0"/>
        <pt x="112" y="27" on="0"/>
        <pt x="192" y="27" on="1"/>
        <pt x="255" y="27" on="0"/>
        <pt x="313" y="52" on="1"/>
        <pt x="345" y="206" on="1"/>
        <pt x="224" y="206" on="1"/>
        <pt x="231" y="238" on="1"/>
      </contour>
    </TTGlyph>
    <TTGlyph name="Gbreve" xMin="7" yMin="-5" xMax="959" yMax="1405">
      <component glyphName="G" x="0" y="0" flags="0x204"/>
      <component glyphName="breve" x="62" y="136" flags="0x4"/>
    </TTGlyph>
    <TTGlyph name="H" xMin="11" yMin="0" xMax="445" yMax="476">
      <contour>
        <pt x="344" y="0" on="1"/>
        <pt x="305" y="0" on="1"/>
        <pt x="355" y="237" on="1"/>
        <pt x="100" y="237" on="1"/>
        <pt x="50" y="0" on="1"/>
        <pt x="11" y="0" on="1"/>
        <pt x="112" y="476" on="1"/>
        <pt x="151" y="476" on="1"/>
        <pt x="107" y="270" on="1"/>
        <pt x="362" y="270" on="1"/>
        <pt x="406" y="476" on="1"/>
        <pt x="445" y="476" on="1"/>
      </contour>
    </TTGlyph>
    <TTGlyph name="I" xMin="11" yMin="0" xMax="151" yMax="476">
      <contour>
        <pt x="50" y="0" on="1"/>
        <pt x="11" y="0" on="1"/>
        <pt x="112" y="476" on="1"/>
        <pt x="151" y="476" on="1"/>
      </contour>
    </TTGlyph>
    <TTGlyph name="Iacute" xMin="11" yMin="0" xMax="800" yMax="889">
      <component glyphName="I" x="0" y="0" flags="0x204"/>
      <component glyphName="acutecomb" x="184" y="136" flags="0x4"/>
    </TTGlyph>
    <TTGlyph name="Icircumflex" xMin="11" yMin="0" xMax="394" yMax="878">
      <component glyphName="I" x="0" y="0" flags="0x204"/>
      <component glyphName="circumflex" x="-27" y="136" flags="0x4"/>
    </TTGlyph>
    <TTGlyph name="Idieresis" xMin="11" yMin="0" xMax="411" yMax="861">
      <component glyphName="I" x="0" y="0" flags="0x204"/>
      <component glyphName="dieresis" x="-28" y="136" flags="0x4"/>
    </TTGlyph>
    <TTGlyph name="Idotaccent" xMin="11" yMin="0" xMax="186" yMax="575">
      <component glyphName="I" x="0" y="0" flags="0x204"/>
      <component glyphName="dotaccent" x="-73" y="0" flags="0x4"/>
    </TTGlyph>
    <TTGlyph name="Igrave" xMin="11" yMin="0" xMax="762" yMax="889">
      <component glyphName="I" x="0" y="0" flags="0x204"/>
      <component glyphName="gravecomb" x="174" y="136" flags="0x4"/>
    </TTGlyph>
    <TTGlyph name="Itilde" xMin="11" yMin="0" xMax="6915" yMax="2909">
      <component glyphName="I" x="0" y="0" flags="0x204"/>
      <component glyphName="tildecomb" x="178" y="136" flags="0x4"/>
    </TTGlyph>
    <TTGlyph name="J" xMin="-42" yMin="-9" xMax="268" yMax="476">
      <contour>
        <pt x="200" y="156" on="1"/>
        <pt x="165" y="-9" on="0"/>
        <pt x="25" y="-9" on="1"/>
        <pt x="-13" y="-9" on="0"/>
        <pt x="-42" y="6" on="1"/>
        <pt x="-26" y="37" on="1"/>
        <pt x="-5" y="25" on="0"/>
        <pt x="32" y="25" on="1"/>
        <pt x="84" y="25" on="0"/>
        <pt x="146" y="86" on="0"/>
        <pt x="163" y="166" on="1"/>
        <pt x="229" y="476" on="1"/>
        <pt x="268" y="476" on="1"/>
      </contour>
    </TTGlyph>
    <TTGlyph name="K" xMin="11" yMin="-5" xMax="426" yMax="482">
      <contour>
        <pt x="348" y="9" on="1"/>
        <pt x="310" y="-5" on="1"/>
        <pt x="153" y="248" on="1"/>
        <pt x="91" y="197" on="1"/>
        <pt x="50" y="0" on="1"/>
        <pt x="11" y="0" on="1"/>
        <pt x="112" y="476" on="1"/>
        <pt x="151" y="476" on="1"/>
        <pt x="102" y="247" on="1"/>
        <pt x="389" y="482" on="1"/>
        <pt x="426" y="471" on="1"/>
        <pt x="186" y="273" on="1"/>
      </contour>
    </TTGlyph>
    <TTGlyph name="L" xMin="11" yMin="0" xMax="291" yMax="476">
      <contour>
        <pt x="284" y="0" on="1"/>
        <pt x="11" y="0" on="1"/>
        <pt x="112" y="476" on="1"/>
        <pt x="151" y="476" on="1"/>
        <pt x="57" y="33" on="1"/>
        <pt x="291" y="33" on="1"/>
      </contour>
    </TTGlyph>
    <TTGlyph name="Lslash" xMin="17" yMin="0" xMax="338" yMax="476">
      <contour>
        <pt x="290" y="0" on="1"/>
        <pt x="17" y="0" on="1"/>
        <pt x="58" y="194" on="1"/>
        <pt x="23" y="184" on="1"/>
        <pt x="20" y="215" on="1"/>
        <pt x="65" y="228" on="1"/>
        <pt x="118" y="476" on="1"/>
        <pt x="157" y="476" on="1"/>
        <pt x="107" y="241" on="1"/>
        <pt x="338" y="310" on="1"/>
        <pt x="331" y="273" on="1"/>
        <pt x="99" y="207" on="1"/>
        <pt x="63" y="33" on="1"/>
        <pt x="297" y="33" on="1"/>
      </contour>
    </TTGlyph>
    <TTGlyph name="M" xMin="-3" yMin="0" xMax="533" yMax="476">
      <contour>
        <pt x="465" y="0" on="1"/>
        <pt x="428" y="0" on="1"/>
        <pt x="487" y="420" on="1"/>
        <pt x="244" y="0" on="1"/>
        <pt x="218" y="0" on="1"/>
        <pt x="153" y="420" on="1"/>
        <pt x="34" y="0" on="1"/>
        <pt x="-3" y="0" on="1"/>
        <pt x="131" y="476" on="1"/>
        <pt x="177" y="476" on="1"/>
        <pt x="241" y="49" on="1"/>
        <pt x="487" y="476" on="1"/>
        <pt x="533" y="476" on="1"/>
      </contour>
    </TTGlyph>
    <TTGlyph name="N" xMin="11" yMin="0" xMax="445" yMax="476">
      <contour>
        <pt x="344" y="0" on="1"/>
        <pt x="303" y="0" on="1"/>
        <pt x="140" y="421" on="1"/>
        <pt x="51" y="0" on="1"/>
        <pt x="11" y="0" on="1"/>
        <pt x="112" y="476" on="1"/>
        <pt x="157" y="476" on="1"/>
        <pt x="318" y="61" on="1"/>
        <pt x="407" y="476" on="1"/>
        <pt x="445" y="476" on="1"/>
      </contour>
    </TTGlyph>
    <TTGlyph name="Ntilde" xMin="11" yMin="0" xMax="691" yMax="726">
      <component glyphName="N" x="0" y="0" flags="0x204"/>
      <component glyphName="tildecomb" x="325" y="136" flags="0x4"/>
    </TTGlyph>
    <TTGlyph name="O" xMin="6" yMin="-10" xMax="494" yMax="484">
      <contour>
        <pt x="471" y="237" on="1"/>
        <pt x="448" y="130" on="0"/>
        <pt x="295" y="-10" on="0"/>
        <pt x="197" y="-10" on="1"/>
        <pt x="99" y="-10" on="0"/>
        <pt x="6" y="130" on="0"/>
        <pt x="29" y="237" on="1"/>
        <pt x="52" y="344" on="0"/>
        <pt x="204" y="484" on="0"/>
        <pt x="302" y="484" on="1"/>
        <pt x="400" y="484" on="0"/>
        <pt x="494" y="344" on="0"/>
      </contour>
      <contour>
        <pt x="432" y="237" on="1"/>
        <pt x="451" y="325" on="0"/>
        <pt x="375" y="450" on="0"/>
        <pt x="295" y="450" on="1"/>
        <pt x="215" y="450" on="0"/>
        <pt x="87" y="325" on="0"/>
        <pt x="68" y="237" on="1"/>
        <pt x="49" y="149" on="0"/>
        <pt x="125" y="24" on="0"/>
        <pt x="205" y="24" on="1"/>
        <pt x="285" y="24" on="0"/>
        <pt x="413" y="149" on="0"/>
      </contour>
    </TTGlyph>
    <TTGlyph name="OE" xMin="6" yMin="-10" xMax="731" yMax="484">
      <contour>
        <pt x="637" y="33" on="1"/>
        <pt x="630" y="0" on="1"/>
        <pt x="371" y="0" on="1"/>
        <pt x="386" y="74" on="1"/>
        <pt x="305" y="-10" on="0"/>
        <pt x="197" y="-10" on="1"/>
        <pt x="99" y="-10" on="0"/>
        <pt x="6" y="130" on="0"/>
        <pt x="29" y="237" on="1"/>
        <pt x="52" y="344" on="0"/>
        <pt x="204" y="484" on="0"/>
        <pt x="302" y="484" on="1"/>
        <pt x="410" y="484" on="0"/>
        <pt x="456" y="400" on="1"/>
        <pt x="472" y="476" on="1"/>
        <pt x="731" y="476" on="1"/>
        <pt x="724" y="443" on="1"/>
        <pt x="504" y="443" on="1"/>
        <pt x="466" y="268" on="1"/>
        <pt x="662" y="268" on="1"/>
        <pt x="655" y="235" on="1"/>
        <pt x="459" y="235" on="1"/>
        <pt x="417" y="33" on="1"/>
      </contour>
      <contour>
        <pt x="401" y="145" on="1"/>
        <pt x="439" y="320" on="1"/>
        <pt x="442" y="369" on="0"/>
        <pt x="400" y="409" on="1"/>
        <pt x="356" y="450" on="0"/>
        <pt x="295" y="450" on="1"/>
        <pt x="215" y="450" on="0"/>
        <pt x="87" y="325" on="0"/>
        <pt x="68" y="237" on="1"/>
        <pt x="49" y="149" on="0"/>
        <pt x="125" y="24" on="0"/>
        <pt x="205" y="24" on="1"/>
        <pt x="262" y="24" on="0"/>
        <pt x="367" y="90" on="0"/>
      </contour>
    </TTGlyph>
    <TTGlyph name="Oacute" xMin="6" yMin="-10" xMax="1153" yMax="1025">
      <component glyphName="O" x="0" y="0" flags="0x204"/>
      <component glyphName="acutecomb" x="353" y="136" flags="0x4"/>
    </TTGlyph>
    <TTGlyph name="Ocircumflex" xMin="6" yMin="-10" xMax="531" yMax="1014">
      <component glyphName="O" x="0" y="0" flags="0x204"/>
      <component glyphName="circumflex" x="137" y="136" flags="0x4"/>
    </TTGlyph>
    <TTGlyph name="Odieresis" xMin="6" yMin="-10" xMax="547" yMax="997">
      <component glyphName="O" x="0" y="0" flags="0x204"/>
      <component glyphName="dieresis" x="136" y="136" flags="0x4"/>
    </TTGlyph>
    <TTGlyph name="Ograve" xMin="6" yMin="-10" xMax="1105" yMax="1025">
      <component glyphName="O" x="0" y="0" flags="0x204"/>
      <component glyphName="gravecomb" x="343" y="136" flags="0x4"/>
    </TTGlyph>
    <TTGlyph name="Ohm" xMin="-8" yMin="0" xMax="436" yMax="447">
      <contour>
        <pt x="374" y="0" on="1"/>
        <pt x="222" y="0" on="1"/>
        <pt x="246" y="115" on="1"/>
        <pt x="357" y="163" on="0"/>
        <pt x="379" y="266" on="1"/>
        <pt x="393" y="331" on="0"/>
        <pt x="331" y="413" on="0"/>
        <pt x="270" y="413" on="1"/>
        <pt x="209" y="413" on="0"/>
        <pt x="113" y="331" on="0"/>
        <pt x="99" y="266" on="1"/>
        <pt x="77" y="163" on="0"/>
        <pt x="168" y="115" on="1"/>
        <pt x="144" y="0" on="1"/>
        <pt x="-8" y="0" on="1"/>
        <pt x="0" y="33" on="1"/>
        <pt x="115" y="33" on="1"/>
        <pt x="127" y="92" on="1"/>
        <pt x="90" y="108" on="0"/>
        <pt x="47" y="203" on="0"/>
        <pt x="59" y="263" on="1"/>
        <pt x="78" y="351" on="0"/>
        <pt x="197" y="447" on="0"/>
        <pt x="278" y="447" on="1"/>
        <pt x="359" y="447" on="0"/>
        <pt x="436" y="351" on="0"/>
        <pt x="417" y="263" on="1"/>
        <pt x="405" y="203" on="0"/>
        <pt x="320" y="108" on="0"/>
        <pt x="277" y="92" on="1"/>
        <pt x="265" y="33" on="1"/>
        <pt x="381" y="33" on="1"/>
      </contour>
    </TTGlyph>
    <TTGlyph name="Ohorn" xMin="6" yMin="-10" xMax="531" yMax="521">
      <contour>
        <pt x="471" y="237" on="1"/>
        <pt x="448" y="130" on="0"/>
        <pt x="295" y="-10" on="0"/>
        <pt x="197" y="-10" on="1"/>
        <pt x="99" y="-10" on="0"/>
        <pt x="6" y="130" on="0"/>
        <pt x="29" y="237" on="1"/>
        <pt x="52" y="344" on="0"/>
        <pt x="204" y="484" on="0"/>
        <pt x="302" y="484" on="1"/>
        <pt x="389" y="484" on="0"/>
        <pt x="437" y="427" on="1"/>
        <pt x="489" y="472" on="0"/>
        <pt x="499" y="521" on="1"/>
        <pt x="531" y="521" on="1"/>
        <pt x="527" y="499" on="0"/>
        <pt x="506" y="469" on="1"/>
        <pt x="482" y="434" on="0"/>
        <pt x="450" y="410" on="1"/>
        <pt x="493" y="341" on="0"/>
      </contour>
      <contour>
        <pt x="432" y="237" on="1"/>
        <pt x="451" y="325" on="0"/>
        <pt x="375" y="450" on="0"/>
        <pt x="295" y="450" on="1"/>
        <pt x="215" y="450" on="0"/>
        <pt x="87" y="325" on="0"/>
        <pt x="68" y="237" on="1"/>
        <pt x="49" y="149" on="0"/>
        <pt x="125" y="24" on="0"/>
        <pt x="205" y="24" on="1"/>
        <pt x="285" y="24" on="0"/>
        <pt x="413" y="149" on="0"/>
      </contour>
    </TTGlyph>
    <TTGlyph name="Oslash" xMin="6" yMin="-29" xMax="494" yMax="493">
      <contour>
        <pt x="471" y="237" on="1"/>
        <pt x="448" y="130" on="0"/>
        <pt x="295" y="-10" on="0"/>
        <pt x="197" y="-10" on="1"/>
        <pt x="146" y="-10" on="0"/>
        <pt x="109" y="8" on="1"/>
        <pt x="83" y="-29" on="1"/>
        <pt x="45" y="-29" on="1"/>
        <pt x="83" y="25" on="1"/>
        <pt x="66" y="40" on="0"/>
        <pt x="52" y="60" on="1"/>
        <pt x="6" y="130" on="0"/>
        <pt x="29" y="237" on="1"/>
        <pt x="52" y="344" on="0"/>
        <pt x="204" y="484" on="0"/>
        <pt x="302" y="484" on="1"/>
        <pt x="353" y="484" on="0"/>
        <pt x="391" y="464" on="1"/>
        <pt x="411" y="493" on="1"/>
        <pt x="452" y="493" on="1"/>
        <pt x="418" y="446" on="1"/>
        <pt x="434" y="432" on="0"/>
        <pt x="446" y="414" on="1"/>
        <pt x="494" y="344" on="0"/>
      </contour>
      <contour>
        <pt x="368" y="432" on="1"/>
        <pt x="337" y="450" on="0"/>
        <pt x="295" y="450" on="1"/>
        <pt x="215" y="450" on="0"/>
        <pt x="87" y="325" on="0"/>
        <pt x="68" y="237" on="1"/>
        <pt x="49" y="149" on="0"/>
        <pt x="87" y="86" on="1"/>
        <pt x="96" y="71" on="0"/>
        <pt x="107" y="60" on="1"/>
      </contour>
      <contour>
        <pt x="432" y="237" on="1"/>
        <pt x="451" y="325" on="0"/>
        <pt x="413" y="387" on="1"/>
        <pt x="405" y="401" on="0"/>
        <pt x="394" y="411" on="1"/>
        <pt x="132" y="41" on="1"/>
        <pt x="163" y="24" on="0"/>
        <pt x="205" y="24" on="1"/>
        <pt x="285" y="24" on="0"/>
        <pt x="413" y="149" on="0"/>
      </contour>
    </TTGlyph>
    <TTGlyph name="Otilde" xMin="6" yMin="-10" xMax="1038" yMax="862">
      <component glyphName="O" x="0" y="0" flags="0x204"/>
      <component glyphName="tildecomb" x="347" y="136" flags="0x4"/>
    </TTGlyph>
    <TTGlyph name="P" xMin="11" yMin="0" xMax="389" yMax="481">
      <contour>
        <pt x="375" y="344" on="1"/>
        <pt x="359" y="269" on="0"/>
        <pt x="290" y="228" on="1"/>
        <pt x="231" y="193" on="0"/>
        <pt x="153" y="194" on="1"/>
        <pt x="121" y="194" on="0"/>
        <pt x="92" y="200" on="1"/>
        <pt x="50" y="0" on="1"/>
        <pt x="11" y="0" on="1"/>
        <pt x="111" y="471" on="1"/>
        <pt x="173" y="481" on="0"/>
        <pt x="228" y="481" on="1"/>
        <pt x="300" y="481" on="0"/>
        <pt x="342" y="448" on="1"/>
        <pt x="389" y="410" on="0"/>
      </contour>
      <contour>
        <pt x="337" y="341" on="1"/>
        <pt x="360" y="447" on="0"/>
        <pt x="220" y="447" on="1"/>
        <pt x="170" y="447" on="0"/>
        <pt x="143" y="442" on="1"/>
        <pt x="99" y="234" on="1"/>
        <pt x="125" y="227" on="0"/>
        <pt x="168" y="227" on="1"/>
        <pt x="314" y="235" on="0"/>
      </contour>
    </TTGlyph>
    <TTGlyph name="PSK" xMin="58" yMin="-1" xMax="947" yMax="734">
      <contour>
        <pt x="212" y="520" on="1"/>
        <pt x="212" y="548" on="0"/>
        <pt x="168" y="548" on="1"/>
        <pt x="130" y="548" on="1"/>
        <pt x="130" y="491" on="1"/>
        <pt x="168" y="491" on="1"/>
        <pt x="212" y="491" on="0"/>
      </contour>
      <contour>
        <pt x="271" y="519" on="1"/>
        <pt x="271" y="446" on="0"/>
        <pt x="171" y="446" on="1"/>
        <pt x="130" y="446" on="1"/>
        <pt x="130" y="366" on="1"/>
        <pt x="72" y="366" on="1"/>
        <pt x="72" y="591" on="1"/>
        <pt x="182" y="591" on="1"/>
        <pt x="271" y="591" on="0"/>
      </contour>
      <contour>
        <pt x="779" y="366" on="1"/>
        <pt x="697" y="480" on="1"/>
        <pt x="697" y="366" on="1"/>
        <pt x="637" y="366" on="1"/>
        <pt x="637" y="591" on="1"/>
        <pt x="697" y="591" on="1"/>
        <pt x="697" y="495" on="1"/>
        <pt x="779" y="591" on="1"/>
        <pt x="849" y="591" on="1"/>
        <pt x="760" y="491" on="1"/>
        <pt x="856" y="366" on="1"/>
      </contour>
      <contour>
        <pt x="916" y="666" on="1"/>
        <pt x="911" y="640" on="0"/>
        <pt x="886" y="640" on="1"/>
        <pt x="855" y="640" on="0"/>
        <pt x="855" y="676" on="1"/>
        <pt x="855" y="712" on="0"/>
        <pt x="886" y="712" on="1"/>
        <pt x="913" y="712" on="0"/>
        <pt x="915" y="688" on="1"/>
        <pt x="899" y="688" on="1"/>
        <pt x="896" y="698" on="0"/>
        <pt x="886" y="698" on="1"/>
        <pt x="873" y="698" on="0"/>
        <pt x="873" y="677" on="1"/>
        <pt x="873" y="653" on="0"/>
        <pt x="887" y="653" on="1"/>
        <pt x="898" y="653" on="0"/>
        <pt x="899" y="666" on="1"/>
      </contour>
      <contour>
        <pt x="237" y="120" on="1"/>
        <pt x="237" y="146" on="0"/>
        <pt x="212" y="146" on="1"/>
        <pt x="185" y="146" on="0"/>
        <pt x="185" y="121" on="1"/>
        <pt x="185" y="96" on="0"/>
        <pt x="212" y="96" on="1"/>
        <pt x="237" y="96" on="0"/>
      </contour>
      <contour>
        <pt x="261" y="121" on="1"/>
        <pt x="261" y="79" on="0"/>
        <pt x="210" y="79" on="1"/>
        <pt x="162" y="79" on="0"/>
        <pt x="162" y="121" on="1"/>
        <pt x="162" y="162" on="0"/>
        <pt x="212" y="162" on="1"/>
        <pt x="261" y="162" on="0"/>
      </contour>
      <contour>
        <pt x="325" y="135" on="1"/>
        <pt x="325" y="145" on="0"/>
        <pt x="308" y="145" on="1"/>
        <pt x="293" y="145" on="1"/>
        <pt x="293" y="124" on="1"/>
        <pt x="308" y="124" on="1"/>
        <pt x="325" y="124" on="0"/>
      </contour>
      <contour>
        <pt x="348" y="135" on="1"/>
        <pt x="348" y="108" on="0"/>
        <pt x="310" y="108" on="1"/>
        <pt x="293" y="108" on="1"/>
        <pt x="293" y="83" on="1"/>
        <pt x="272" y="83" on="1"/>
        <pt x="272" y="162" on="1"/>
        <pt x="313" y="162" on="1"/>
        <pt x="348" y="162" on="0"/>
      </contour>
      <contour>
        <pt x="404" y="83" on="1"/>
        <pt x="381" y="83" on="1"/>
        <pt x="381" y="111" on="1"/>
        <pt x="345" y="162" on="1"/>
        <pt x="371" y="162" on="1"/>
        <pt x="395" y="128" on="1"/>
        <pt x="398" y="132" on="0"/>
        <pt x="417" y="162" on="1"/>
        <pt x="440" y="162" on="1"/>
        <pt x="404" y="110" on="1"/>
      </contour>
      <contour>
        <pt x="196" y="17" on="1"/>
        <pt x="189" y="34" on="1"/>
        <pt x="181" y="17" on="1"/>
      </contour>
      <contour>
        <pt x="215" y="0" on="1"/>
        <pt x="202" y="0" on="1"/>
        <pt x="198" y="9" on="1"/>
        <pt x="178" y="9" on="1"/>
        <pt x="174" y="0" on="1"/>
        <pt x="162" y="0" on="1"/>
        <pt x="182" y="43" on="1"/>
        <pt x="197" y="43" on="1"/>
      </contour>
      <contour>
        <pt x="689" y="0" on="1"/>
        <pt x="655" y="0" on="1"/>
        <pt x="655" y="43" on="1"/>
        <pt x="689" y="43" on="1"/>
        <pt x="689" y="34" on="1"/>
        <pt x="666" y="34" on="1"/>
        <pt x="666" y="26" on="1"/>
        <pt x="687" y="26" on="1"/>
        <pt x="687" y="18" on="1"/>
        <pt x="666" y="18" on="1"/>
        <pt x="666" y="9" on="1"/>
        <pt x="689" y="9" on="1"/>
      </contour>
      <contour>
        <pt x="774" y="43" on="1"/>
        <pt x="757" y="0" on="1"/>
        <pt x="745" y="0" on="1"/>
        <pt x="727" y="43" on="1"/>
        <pt x="739" y="43" on="1"/>
        <pt x="751" y="11" on="1"/>
        <pt x="763" y="43" on="1"/>
      </contour>
      <contour>
        <pt x="847" y="21" on="1"/>
        <pt x="847" y="34" on="0"/>
        <pt x="834" y="34" on="1"/>
        <pt x="826" y="34" on="1"/>
        <pt x="826" y="10" on="1"/>
        <pt x="834" y="10" on="1"/>
        <pt x="847" y="10" on="0"/>
      </contour>
      <contour>
        <pt x="858" y="21" on="1"/>
        <pt x="858" y="0" on="0"/>
        <pt x="834" y="0" on="1"/>
        <pt x="814" y="0" on="1"/>
        <pt x="814" y="43" on="1"/>
        <pt x="834" y="43" on="1"/>
        <pt x="858" y="43" on="0"/>
      </contour>
      <contour>
        <pt x="249" y="0" on="1"/>
        <pt x="217" y="0" on="1"/>
        <pt x="217" y="43" on="1"/>
        <pt x="227" y="43" on="1"/>
        <pt x="227" y="9" on="1"/>
        <pt x="249" y="9" on="1"/>
      </contour>
      <contour>
        <pt x="332" y="30" on="1"/>
        <pt x="332" y="35" on="0"/>
        <pt x="324" y="35" on="1"/>
        <pt x="318" y="35" on="1"/>
        <pt x="318" y="26" on="1"/>
        <pt x="324" y="26" on="1"/>
        <pt x="332" y="26" on="0"/>
      </contour>
      <contour>
        <pt x="345" y="32" on="1"/>
        <pt x="345" y="24" on="0"/>
        <pt x="337" y="21" on="1"/>
        <pt x="343" y="19" on="0"/>
        <pt x="347" y="0" on="1"/>
        <pt x="334" y="0" on="1"/>
        <pt x="334" y="4" on="0"/>
        <pt x="333" y="8" on="1"/>
        <pt x="330" y="17" on="0"/>
        <pt x="324" y="17" on="1"/>
        <pt x="318" y="17" on="1"/>
        <pt x="318" y="0" on="1"/>
        <pt x="307" y="0" on="1"/>
        <pt x="307" y="43" on="1"/>
        <pt x="328" y="43" on="1"/>
        <pt x="345" y="43" on="0"/>
      </contour>
      <contour>
        <pt x="361" y="43" on="1"/>
        <pt x="361" y="0" on="1"/>
        <pt x="352" y="0" on="1"/>
        <pt x="352" y="43" on="1"/>
      </contour>
      <contour>
        <pt x="412" y="3" on="1"/>
        <pt x="403" y="-1" on="0"/>
        <pt x="393" y="-1" on="1"/>
        <pt x="367" y="-1" on="0"/>
        <pt x="367" y="21" on="1"/>
        <pt x="367" y="44" on="0"/>
        <pt x="392" y="44" on="1"/>
        <pt x="411" y="44" on="0"/>
        <pt x="412" y="28" on="1"/>
        <pt x="401" y="28" on="1"/>
        <pt x="400" y="35" on="0"/>
        <pt x="392" y="35" on="1"/>
        <pt x="379" y="35" on="0"/>
        <pt x="379" y="22" on="1"/>
        <pt x="379" y="8" on="0"/>
        <pt x="393" y="8" on="1"/>
        <pt x="398" y="8" on="0"/>
        <pt x="401" y="9" on="1"/>
        <pt x="401" y="16" on="1"/>
        <pt x="392" y="16" on="1"/>
        <pt x="392" y="24" on="1"/>
        <pt x="412" y="24" on="1"/>
      </contour>
      <contour>
        <pt x="462" y="0" on="1"/>
        <pt x="451" y="0" on="1"/>
        <pt x="451" y="18" on="1"/>
        <pt x="429" y="18" on="1"/>
        <pt x="429" y="0" on="1"/>
        <pt x="418" y="0" on="1"/>
        <pt x="418" y="43" on="1"/>
        <pt x="429" y="43" on="1"/>
        <pt x="429" y="26" on="1"/>
        <pt x="451" y="26" on="1"/>
        <pt x="451" y="43" on="1"/>
        <pt x="462" y="43" on="1"/>
      </contour>
      <contour>
        <pt x="506" y="34" on="1"/>
        <pt x="492" y="34" on="1"/>
        <pt x="492" y="0" on="1"/>
        <pt x="480" y="0" on="1"/>
        <pt x="480" y="34" on="1"/>
        <pt x="465" y="34" on="1"/>
        <pt x="465" y="43" on="1"/>
        <pt x="506" y="43" on="1"/>
      </contour>
      <contour>
        <pt x="565" y="83" on="1"/>
        <pt x="540" y="83" on="1"/>
        <pt x="540" y="162" on="1"/>
        <pt x="565" y="162" on="1"/>
      </contour>
      <contour>
        <pt x="668" y="86" on="1"/>
        <pt x="650" y="81" on="0"/>
        <pt x="627" y="81" on="1"/>
        <pt x="576" y="81" on="0"/>
        <pt x="576" y="122" on="1"/>
        <pt x="576" y="163" on="0"/>
        <pt x="625" y="163" on="1"/>
        <pt x="665" y="163" on="0"/>
        <pt x="668" y="136" on="1"/>
        <pt x="642" y="136" on="1"/>
        <pt x="640" y="147" on="0"/>
        <pt x="624" y="147" on="1"/>
        <pt x="600" y="147" on="0"/>
        <pt x="600" y="123" on="1"/>
        <pt x="600" y="97" on="0"/>
        <pt x="627" y="97" on="1"/>
        <pt x="643" y="99" on="1"/>
        <pt x="643" y="113" on="1"/>
        <pt x="624" y="113" on="1"/>
        <pt x="624" y="126" on="1"/>
        <pt x="668" y="126" on="1"/>
      </contour>
      <contour>
        <pt x="768" y="83" on="1"/>
        <pt x="745" y="83" on="1"/>
        <pt x="745" y="115" on="1"/>
        <pt x="705" y="115" on="1"/>
        <pt x="705" y="83" on="1"/>
        <pt x="681" y="83" on="1"/>
        <pt x="681" y="162" on="1"/>
        <pt x="705" y="162" on="1"/>
        <pt x="705" y="131" on="1"/>
        <pt x="745" y="131" on="1"/>
        <pt x="745" y="162" on="1"/>
        <pt x="768" y="162" on="1"/>
      </contour>
      <contour>
        <pt x="864" y="144" on="1"/>
        <pt x="831" y="144" on="1"/>
        <pt x="831" y="83" on="1"/>
        <pt x="808" y="83" on="1"/>
        <pt x="808" y="144" on="1"/>
        <pt x="777" y="144" on="1"/>
        <pt x="777" y="162" on="1"/>
        <pt x="864" y="162" on="1"/>
      </contour>
      <contour>
        <pt x="506" y="137" on="1"/>
        <pt x="506" y="145" on="0"/>
        <pt x="488" y="145" on="1"/>
        <pt x="473" y="145" on="1"/>
        <pt x="473" y="126" on="1"/>
        <pt x="488" y="126" on="1"/>
        <pt x="506" y="126" on="0"/>
      </contour>
      <contour>
        <pt x="531" y="83" on="1"/>
        <pt x="509" y="83" on="1"/>
        <pt x="504" y="103" on="1"/>
        <pt x="503" y="113" on="0"/>
        <pt x="487" y="113" on="1"/>
        <pt x="473" y="113" on="1"/>
        <pt x="473" y="83" on="1"/>
        <pt x="450" y="83" on="1"/>
        <pt x="450" y="162" on="1"/>
        <pt x="495" y="162" on="1"/>
        <pt x="529" y="162" on="0"/>
        <pt x="529" y="141" on="1"/>
        <pt x="529" y="128" on="0"/>
        <pt x="512" y="122" on="1"/>
        <pt x="527" y="119" on="0"/>
        <pt x="527" y="103" on="1"/>
      </contour>
      <contour>
        <pt x="650" y="13" on="1"/>
        <pt x="650" y="-1" on="0"/>
        <pt x="630" y="-1" on="1"/>
        <pt x="612" y="-1" on="0"/>
        <pt x="612" y="15" on="1"/>
        <pt x="623" y="15" on="1"/>
        <pt x="623" y="8" on="0"/>
        <pt x="631" y="8" on="1"/>
        <pt x="638" y="8" on="0"/>
        <pt x="638" y="12" on="1"/>
        <pt x="638" y="13" on="0"/>
        <pt x="613" y="22" on="0"/>
        <pt x="613" y="30" on="1"/>
        <pt x="613" y="44" on="0"/>
        <pt x="631" y="44" on="1"/>
        <pt x="649" y="44" on="0"/>
        <pt x="649" y="30" on="1"/>
        <pt x="638" y="30" on="1"/>
        <pt x="638" y="36" on="0"/>
        <pt x="631" y="36" on="1"/>
        <pt x="624" y="36" on="0"/>
        <pt x="624" y="31" on="1"/>
        <pt x="624" y="27" on="0"/>
        <pt x="650" y="21" on="0"/>
      </contour>
      <contour>
        <pt x="809" y="0" on="1"/>
        <pt x="776" y="0" on="1"/>
        <pt x="776" y="43" on="1"/>
        <pt x="809" y="43" on="1"/>
        <pt x="809" y="34" on="1"/>
        <pt x="788" y="34" on="1"/>
        <pt x="788" y="26" on="1"/>
        <pt x="808" y="26" on="1"/>
        <pt x="808" y="18" on="1"/>
        <pt x="788" y="18" on="1"/>
        <pt x="788" y="9" on="1"/>
        <pt x="809" y="9" on="1"/>
      </contour>
      <contour>
        <pt x="608" y="9" on="1"/>
        <pt x="608" y="0" on="1"/>
        <pt x="574" y="0" on="1"/>
        <pt x="574" y="43" on="1"/>
        <pt x="607" y="43" on="1"/>
        <pt x="607" y="34" on="1"/>
        <pt x="585" y="34" on="1"/>
        <pt x="585" y="26" on="1"/>
        <pt x="606" y="26" on="1"/>
        <pt x="606" y="18" on="1"/>
        <pt x="585" y="18" on="1"/>
        <pt x="585" y="9" on="1"/>
      </contour>
      <contour>
        <pt x="156" y="109" on="1"/>
        <pt x="153" y="79" on="0"/>
        <pt x="113" y="79" on="1"/>
        <pt x="66" y="79" on="0"/>
        <pt x="66" y="122" on="1"/>
        <pt x="66" y="164" on="0"/>
        <pt x="115" y="164" on="1"/>
        <pt x="152" y="164" on="0"/>
        <pt x="156" y="134" on="1"/>
        <pt x="130" y="134" on="1"/>
        <pt x="129" y="147" on="0"/>
        <pt x="113" y="147" on="1"/>
        <pt x="90" y="147" on="0"/>
        <pt x="90" y="122" on="1"/>
        <pt x="90" y="97" on="0"/>
        <pt x="112" y="97" on="1"/>
        <pt x="129" y="97" on="0"/>
        <pt x="130" y="109" on="1"/>
      </contour>
      <contour>
        <pt x="867" y="199" on="1"/>
        <pt x="58" y="199" on="1"/>
        <pt x="58" y="224" on="1"/>
        <pt x="867" y="224" on="1"/>
      </contour>
      <contour>
        <pt x="562" y="406" on="1"/>
        <pt x="562" y="327" on="0"/>
        <pt x="504" y="290" on="1"/>
        <pt x="458" y="260" on="0"/>
        <pt x="386" y="260" on="1"/>
        <pt x="325" y="260" on="0"/>
        <pt x="256" y="312" on="0"/>
        <pt x="256" y="359" on="1"/>
        <pt x="256" y="375" on="0"/>
        <pt x="260" y="390" on="1"/>
        <pt x="298" y="390" on="1"/>
        <pt x="297" y="383" on="0"/>
        <pt x="297" y="373" on="1"/>
        <pt x="297" y="294" on="0"/>
        <pt x="396" y="294" on="1"/>
        <pt x="440" y="294" on="0"/>
        <pt x="475" y="315" on="1"/>
        <pt x="520" y="342" on="0"/>
        <pt x="520" y="392" on="1"/>
        <pt x="520" y="430" on="0"/>
        <pt x="468" y="450" on="1"/>
        <pt x="421" y="466" on="0"/>
        <pt x="373" y="482" on="1"/>
        <pt x="321" y="504" on="0"/>
        <pt x="321" y="546" on="1"/>
        <pt x="321" y="614" on="0"/>
        <pt x="373" y="650" on="1"/>
        <pt x="419" y="681" on="0"/>
        <pt x="492" y="681" on="1"/>
        <pt x="542" y="681" on="0"/>
        <pt x="601" y="639" on="0"/>
        <pt x="601" y="601" on="1"/>
        <pt x="601" y="586" on="0"/>
        <pt x="596" y="568" on="1"/>
        <pt x="560" y="568" on="1"/>
        <pt x="562" y="582" on="0"/>
        <pt x="562" y="587" on="1"/>
        <pt x="562" y="647" on="0"/>
        <pt x="496" y="647" on="1"/>
        <pt x="436" y="647" on="0"/>
        <pt x="365" y="601" on="0"/>
        <pt x="365" y="562" on="1"/>
        <pt x="365" y="536" on="0"/>
        <pt x="401" y="510" on="0"/>
        <pt x="516" y="477" on="0"/>
        <pt x="562" y="438" on="0"/>
      </contour>
      <contour>
        <pt x="947" y="675" on="1"/>
        <pt x="947" y="649" on="0"/>
        <pt x="913" y="617" on="0"/>
        <pt x="887" y="617" on="1"/>
        <pt x="862" y="617" on="0"/>
        <pt x="829" y="649" on="0"/>
        <pt x="829" y="675" on="1"/>
        <pt x="829" y="701" on="0"/>
        <pt x="862" y="734" on="0"/>
        <pt x="887" y="734" on="1"/>
        <pt x="913" y="734" on="0"/>
        <pt x="947" y="701" on="0"/>
      </contour>
      <contour>
        <pt x="938" y="674" on="1"/>
        <pt x="938" y="695" on="0"/>
        <pt x="908" y="724" on="0"/>
        <pt x="887" y="724" on="1"/>
        <pt x="867" y="724" on="0"/>
        <pt x="839" y="695" on="0"/>
        <pt x="839" y="674" on="1"/>
        <pt x="839" y="653" on="0"/>
        <pt x="867" y="625" on="0"/>
        <pt x="887" y="625" on="1"/>
        <pt x="908" y="625" on="0"/>
        <pt x="938" y="653" on="0"/>
      </contour>
      <contour>
        <pt x="557" y="30" on="1"/>
        <pt x="557" y="35" on="0"/>
        <pt x="550" y="35" on="1"/>
        <pt x="543" y="35" on="1"/>
        <pt x="543" y="26" on="1"/>
        <pt x="550" y="26" on="1"/>
        <pt x="557" y="26" on="0"/>
      </contour>
      <contour>
        <pt x="569" y="32" on="1"/>
        <pt x="569" y="24" on="0"/>
        <pt x="561" y="21" on="1"/>
        <pt x="567" y="19" on="0"/>
        <pt x="571" y="0" on="1"/>
        <pt x="559" y="0" on="1"/>
        <pt x="559" y="4" on="0"/>
        <pt x="558" y="8" on="1"/>
        <pt x="555" y="17" on="0"/>
        <pt x="550" y="17" on="1"/>
        <pt x="543" y="17" on="1"/>
        <pt x="543" y="0" on="1"/>
        <pt x="531" y="0" on="1"/>
        <pt x="531" y="43" on="1"/>
        <pt x="553" y="43" on="1"/>
        <pt x="569" y="43" on="0"/>
      </contour>
      <contour>
        <pt x="702" y="26" on="1"/>
        <pt x="709" y="26" on="1"/>
        <pt x="716" y="26" on="0"/>
        <pt x="716" y="30" on="1"/>
        <pt x="716" y="35" on="0"/>
        <pt x="709" y="35" on="1"/>
        <pt x="702" y="35" on="1"/>
      </contour>
      <contour>
        <pt x="730" y="0" on="1"/>
        <pt x="718" y="0" on="1"/>
        <pt x="718" y="4" on="0"/>
        <pt x="717" y="8" on="1"/>
        <pt x="714" y="17" on="0"/>
        <pt x="709" y="17" on="1"/>
        <pt x="702" y="17" on="1"/>
        <pt x="702" y="0" on="1"/>
        <pt x="692" y="0" on="1"/>
        <pt x="692" y="43" on="1"/>
        <pt x="713" y="43" on="1"/>
        <pt x="728" y="43" on="0"/>
        <pt x="728" y="32" on="1"/>
        <pt x="728" y="24" on="0"/>
        <pt x="720" y="21" on="1"/>
        <pt x="726" y="19" on="0"/>
      </contour>
      <contour>
        <pt x="284" y="0" on="1"/>
        <pt x="252" y="0" on="1"/>
        <pt x="252" y="43" on="1"/>
        <pt x="262" y="43" on="1"/>
        <pt x="262" y="9" on="1"/>
        <pt x="284" y="9" on="1"/>
      </contour>
    </TTGlyph>
    <TTGlyph name="Q" xMin="6" yMin="-67" xMax="494" yMax="484">
      <contour>
        <pt x="471" y="237" on="1"/>
        <pt x="453" y="151" on="0"/>
        <pt x="397" y="86" on="1"/>
        <pt x="338" y="18" on="0"/>
        <pt x="258" y="-1" on="1"/>
        <pt x="312" y="-26" on="0"/>
        <pt x="388" y="-30" on="1"/>
        <pt x="366" y="-67" on="1"/>
        <pt x="272" y="-44" on="0"/>
        <pt x="197" y="-10" on="1"/>
        <pt x="99" y="-10" on="0"/>
        <pt x="6" y="130" on="0"/>
        <pt x="29" y="237" on="1"/>
        <pt x="52" y="344" on="0"/>
        <pt x="204" y="484" on="0"/>
        <pt x="302" y="484" on="1"/>
        <pt x="400" y="484" on="0"/>
        <pt x="494" y="344" on="0"/>
      </contour>
      <contour>
        <pt x="432" y="237" on="1"/>
        <pt x="451" y="325" on="0"/>
        <pt x="375" y="450" on="0"/>
        <pt x="295" y="450" on="1"/>
        <pt x="215" y="450" on="0"/>
        <pt x="87" y="325" on="0"/>
        <pt x="68" y="237" on="1"/>
        <pt x="49" y="149" on="0"/>
        <pt x="125" y="24" on="0"/>
        <pt x="205" y="24" on="1"/>
        <pt x="285" y="24" on="0"/>
        <pt x="413" y="149" on="0"/>
      </contour>
    </TTGlyph>
    <TTGlyph name="R" xMin="11" yMin="0" xMax="390" yMax="481">
      <contour>
        <pt x="315" y="0" on="1"/>
        <pt x="277" y="0" on="1"/>
        <pt x="296" y="217" on="0"/>
        <pt x="188" y="217" on="1"/>
        <pt x="96" y="217" on="1"/>
        <pt x="50" y="0" on="1"/>
        <pt x="11" y="0" on="1"/>
        <pt x="110" y="470" on="1"/>
        <pt x="169" y="481" on="0"/>
        <pt x="230" y="481" on="1"/>
        <pt x="307" y="480" on="0"/>
        <pt x="345" y="451" on="1"/>
        <pt x="390" y="417" on="0"/>
        <pt x="377" y="353" on="1"/>
        <pt x="358" y="264" on="0"/>
        <pt x="258" y="230" on="1"/>
        <pt x="305" y="201" on="0"/>
        <pt x="315" y="122" on="1"/>
        <pt x="320" y="81" on="0"/>
      </contour>
      <contour>
        <pt x="338" y="348" on="1"/>
        <pt x="360" y="447" on="0"/>
        <pt x="223" y="447" on="1"/>
        <pt x="168" y="447" on="0"/>
        <pt x="143" y="440" on="1"/>
        <pt x="102" y="248" on="1"/>
        <pt x="191" y="248" on="1"/>
        <pt x="250" y="248" on="0"/>
        <pt x="328" y="301" on="0"/>
      </contour>
    </TTGlyph>
    <TTGlyph name="S" xMin="-10" yMin="-9" xMax="354" yMax="485">
      <contour>
        <pt x="303" y="124" on="1"/>
        <pt x="291" y="70" on="0"/>
        <pt x="245" y="34" on="1"/>
        <pt x="192" y="-9" on="0"/>
        <pt x="113" y="-9" on="1"/>
        <pt x="35" y="-9" on="0"/>
        <pt x="-10" y="27" on="1"/>
        <pt x="12" y="61" on="1"/>
        <pt x="54" y="24" on="0"/>
        <pt x="124" y="24" on="1"/>
        <pt x="180" y="24" on="0"/>
        <pt x="255" y="77" on="0"/>
        <pt x="264" y="121" on="1"/>
        <pt x="273" y="161" on="0"/>
        <pt x="234" y="210" on="0"/>
        <pt x="181" y="228" on="1"/>
        <pt x="57" y="271" on="0"/>
        <pt x="76" y="362" on="1"/>
        <pt x="88" y="415" on="0"/>
        <pt x="185" y="485" on="0"/>
        <pt x="251" y="485" on="1"/>
        <pt x="318" y="485" on="0"/>
        <pt x="354" y="460" on="1"/>
        <pt x="342" y="443" on="0"/>
        <pt x="331" y="429" on="1"/>
        <pt x="293" y="452" on="0"/>
        <pt x="243" y="452" on="1"/>
        <pt x="187" y="452" on="0"/>
        <pt x="150" y="423" on="1"/>
        <pt x="121" y="399" on="0"/>
        <pt x="115" y="367" on="1"/>
        <pt x="100" y="301" on="0"/>
        <pt x="199" y="265" on="1"/>
        <pt x="263" y="241" on="0"/>
        <pt x="287" y="213" on="1"/>
        <pt x="315" y="180" on="0"/>
      </contour>
    </TTGlyph>
    <TTGlyph name="Scaron" xMin="-10" yMin="-9" xMax="354" yMax="598">
      <component glyphName="S" x="0" y="0" flags="0x204"/>
      <component glyphName="caron" x="99" y="136" flags="0x4"/>
    </TTGlyph>
    <TTGlyph name="Scedilla" xMin="-8" yMin="-124" xMax="356" yMax="485">
      <component glyphName="S" x="2" y="0" flags="0x4"/>
      <component glyphName="cedilla" x="85" y="0" flags="0x4"/>
    </TTGlyph>
    <TTGlyph name="T" xMin="46" yMin="0" xMax="442" yMax="476">
      <contour>
        <pt x="435" y="443" on="1"/>
        <pt x="260" y="443" on="1"/>
        <pt x="166" y="0" on="1"/>
        <pt x="128" y="0" on="1"/>
        <pt x="222" y="443" on="1"/>
        <pt x="46" y="443" on="1"/>
        <pt x="53" y="476" on="1"/>
        <pt x="442" y="476" on="1"/>
      </contour>
    </TTGlyph>
    <TTGlyph name="Thorn" xMin="17" yMin="0" xMax="376" yMax="476">
      <contour>
        <pt x="363" y="262" on="1"/>
        <pt x="347" y="187" on="0"/>
        <pt x="230" y="110" on="0"/>
        <pt x="143" y="110" on="1"/>
        <pt x="118" y="110" on="0"/>
        <pt x="80" y="118" on="1"/>
        <pt x="55" y="0" on="1"/>
        <pt x="17" y="0" on="1"/>
        <pt x="118" y="476" on="1"/>
        <pt x="156" y="476" on="1"/>
        <pt x="136" y="382" on="1"/>
        <pt x="180" y="393" on="0"/>
        <pt x="220" y="393" on="1"/>
        <pt x="287" y="393" on="0"/>
        <pt x="329" y="361" on="1"/>
        <pt x="376" y="324" on="0"/>
      </contour>
      <contour>
        <pt x="325" y="257" on="1"/>
        <pt x="336" y="310" on="0"/>
        <pt x="301" y="338" on="1"/>
        <pt x="271" y="361" on="0"/>
        <pt x="213" y="361" on="1"/>
        <pt x="176" y="361" on="0"/>
        <pt x="128" y="347" on="1"/>
        <pt x="87" y="153" on="1"/>
        <pt x="121" y="142" on="0"/>
        <pt x="152" y="142" on="1"/>
        <pt x="224" y="142" on="0"/>
        <pt x="314" y="203" on="0"/>
      </contour>
    </TTGlyph>
    <TTGlyph name="U" xMin="9" yMin="-9" xMax="470" yMax="476">
      <contour>
        <pt x="411" y="201" on="1"/>
        <pt x="367" y="-9" on="0"/>
        <pt x="188" y="-9" on="1"/>
        <pt x="9" y="-9" on="0"/>
        <pt x="53" y="201" on="1"/>
        <pt x="112" y="476" on="1"/>
        <pt x="151" y="476" on="1"/>
        <pt x="92" y="202" on="1"/>
        <pt x="72" y="108" on="0"/>
        <pt x="132" y="24" on="0"/>
        <pt x="195" y="24" on="1"/>
        <pt x="259" y="24" on="0"/>
        <pt x="353" y="108" on="0"/>
        <pt x="372" y="202" on="1"/>
        <pt x="431" y="476" on="1"/>
        <pt x="470" y="476" on="1"/>
      </contour>
    </TTGlyph>
    <TTGlyph name="Uacute" xMin="9" yMin="-9" xMax="1506" yMax="1161">
      <component glyphName="U" x="0" y="0" flags="0x204"/>
      <component glyphName="acutecomb" x="353" y="136" flags="0x4"/>
    </TTGlyph>
    <TTGlyph name="Ucircumflex" xMin="9" yMin="-9" xMax="658" yMax="1150">
      <component glyphName="U" x="0" y="0" flags="0x204"/>
      <component glyphName="circumflex" x="127" y="136" flags="0x4"/>
    </TTGlyph>
    <TTGlyph name="Udieresis" xMin="9" yMin="-9" xMax="673" yMax="1133">
      <component glyphName="U" x="0" y="0" flags="0x204"/>
      <component glyphName="dieresis" x="126" y="136" flags="0x4"/>
    </TTGlyph>
    <TTGlyph name="Ugrave" xMin="9" yMin="-9" xMax="1421" yMax="1161">
      <component glyphName="U" x="0" y="0" flags="0x204"/>
      <component glyphName="gravecomb" x="316" y="136" flags="0x4"/>
    </TTGlyph>
    <TTGlyph name="Uhorn" xMin="9" yMin="-9" xMax="559" yMax="521">
      <contour>
        <pt x="411" y="201" on="1"/>
        <pt x="367" y="-9" on="0"/>
        <pt x="188" y="-9" on="1"/>
        <pt x="9" y="-9" on="0"/>
        <pt x="53" y="201" on="1"/>
        <pt x="112" y="476" on="1"/>
        <pt x="151" y="476" on="1"/>
        <pt x="92" y="202" on="1"/>
        <pt x="72" y="108" on="0"/>
        <pt x="132" y="24" on="0"/>
        <pt x="195" y="24" on="1"/>
        <pt x="259" y="24" on="0"/>
        <pt x="353" y="108" on="0"/>
        <pt x="372" y="202" on="1"/>
        <pt x="431" y="476" on="1"/>
        <pt x="470" y="476" on="1"/>
        <pt x="460" y="432" on="1"/>
        <pt x="514" y="471" on="0"/>
        <pt x="527" y="521" on="1"/>
        <pt x="559" y="521" on="1"/>
        <pt x="535" y="450" on="0"/>
        <pt x="454" y="402" on="1"/>
      </contour>
    </TTGlyph>
    <TTGlyph name="Utilde" xMin="14" yMin="-9" xMax="7404" yMax="3045">
      <component glyphName="U" x="5" y="0" flags="0x4"/>
      <component glyphName="tildecomb" x="342" y="136" flags="0x4"/>
    </TTGlyph>
    <TTGlyph name="V" xMin="58" yMin="0" xMax="448" yMax="476">
      <contour>
        <pt x="448" y="476" on="1"/>
        <pt x="173" y="0" on="1"/>
        <pt x="131" y="0" on="1"/>
        <pt x="58" y="476" on="1"/>
        <pt x="102" y="476" on="1"/>
        <pt x="161" y="45" on="1"/>
        <pt x="404" y="476" on="1"/>
      </contour>
    </TTGlyph>
    <TTGlyph name="W" xMin="58" yMin="0" xMax="646" yMax="476">
      <contour>
        <pt x="646" y="476" on="1"/>
        <pt x="401" y="0" on="1"/>
        <pt x="359" y="0" on="1"/>
        <pt x="342" y="432" on="1"/>
        <pt x="143" y="0" on="1"/>
        <pt x="101" y="0" on="1"/>
        <pt x="58" y="476" on="1"/>
        <pt x="102" y="476" on="1"/>
        <pt x="131" y="45" on="1"/>
        <pt x="330" y="476" on="1"/>
        <pt x="374" y="476" on="1"/>
        <pt x="389" y="45" on="1"/>
        <pt x="602" y="476" on="1"/>
      </contour>
    </TTGlyph>
    <TTGlyph name="X" xMin="-26" yMin="0" xMax="452" yMax="476">
      <contour>
        <pt x="358" y="0" on="1"/>
        <pt x="312" y="0" on="1"/>
        <pt x="211" y="215" on="1"/>
        <pt x="20" y="0" on="1"/>
        <pt x="-26" y="0" on="1"/>
        <pt x="194" y="244" on="1"/>
        <pt x="82" y="476" on="1"/>
        <pt x="129" y="476" on="1"/>
        <pt x="222" y="268" on="1"/>
        <pt x="405" y="476" on="1"/>
        <pt x="452" y="476" on="1"/>
        <pt x="240" y="244" on="1"/>
      </contour>
    </TTGlyph>
    <TTGlyph name="Y" xMin="58" yMin="0" xMax="424" yMax="476">
      <contour>
        <pt x="424" y="476" on="1"/>
        <pt x="203" y="210" on="1"/>
        <pt x="159" y="0" on="1"/>
        <pt x="121" y="0" on="1"/>
        <pt x="165" y="209" on="1"/>
        <pt x="58" y="476" on="1"/>
        <pt x="103" y="476" on="1"/>
        <pt x="191" y="243" on="1"/>
        <pt x="379" y="476" on="1"/>
      </contour>
    </TTGlyph>
    <TTGlyph name="Yacute" xMin="58" yMin="0" xMax="1814" yMax="1297">
      <component glyphName="Y" x="0" y="0" flags="0x204"/>
      <component glyphName="acutecomb" x="308" y="136" flags="0x4"/>
    </TTGlyph>
    <TTGlyph name="Ydieresis" xMin="65" yMin="0" xMax="998" yMax="1266">
      <component glyphName="Y" x="7" y="0" flags="0x4"/>
      <component glyphName="dieresis" x="84" y="133" flags="0x4"/>
    </TTGlyph>
    <TTGlyph name="Ygrave" xMin="65" yMin="0" xMax="4927" yMax="1912">
      <component glyphName="Y" x="0" y="0" flags="0x204"/>
      <component glyphName="gravecomb" x="271" y="136" flags="0x4"/>
    </TTGlyph>
    <TTGlyph name="Z" xMin="-21" yMin="0" xMax="453" yMax="476">
      <contour>
        <pt x="372" y="33" on="1"/>
        <pt x="357" y="0" on="1"/>
        <pt x="-21" y="0" on="1"/>
        <pt x="-15" y="26" on="1"/>
        <pt x="396" y="443" on="1"/>
        <pt x="93" y="443" on="1"/>
        <pt x="106" y="476" on="1"/>
        <pt x="453" y="476" on="1"/>
        <pt x="447" y="449" on="1"/>
        <pt x="37" y="33" on="1"/>
      </contour>
    </TTGlyph>
    <TTGlyph name="Zcaron" xMin="-21" yMin="0" xMax="513" yMax="734">
      <component glyphName="Z" x="0" y="0" flags="0x204"/>
      <component glyphName="caron" x="135" y="136" flags="0x4"/>
    </TTGlyph>
    <TTGlyph name="a" xMin="16" yMin="-10" xMax="370" yMax="347">
      <contour>
        <pt x="320" y="69" on="1"/>
        <pt x="311" y="29" on="0"/>
        <pt x="323" y="1" on="1"/>
        <pt x="284" y="-7" on="1"/>
        <pt x="273" y="29" on="0"/>
        <pt x="279" y="62" on="1"/>
        <pt x="224" y="-10" on="0"/>
        <pt x="138" y="-10" on="1"/>
        <pt x="80" y="-10" on="0"/>
        <pt x="16" y="57" on="0"/>
        <pt x="16" y="113" on="1"/>
        <pt x="16" y="201" on="0"/>
        <pt x="73" y="271" on="1"/>
        <pt x="133" y="346" on="0"/>
        <pt x="219" y="346" on="1"/>
        <pt x="308" y="347" on="0"/>
        <pt x="370" y="296" on="1"/>
      </contour>
      <contour>
        <pt x="296" y="143" on="1"/>
        <pt x="327" y="279" on="1"/>
        <pt x="276" y="314" on="0"/>
        <pt x="224" y="314" on="1"/>
        <pt x="151" y="313" on="0"/>
        <pt x="100" y="249" on="1"/>
        <pt x="54" y="189" on="0"/>
        <pt x="54" y="118" on="1"/>
        <pt x="54" y="74" on="0"/>
        <pt x="105" y="21" on="0"/>
        <pt x="151" y="21" on="1"/>
        <pt x="202" y="21" on="0"/>
        <pt x="285" y="94" on="0"/>
      </contour>
    </TTGlyph>
    <TTGlyph name="aacute" xMin="16" yMin="-10" xMax="2132" yMax="1297">
      <component glyphName="a" x="0" y="0" flags="0x204"/>
      <component glyphName="acutecomb" x="318" y="0" flags="0x4"/>
    </TTGlyph>
    <TTGlyph name="abreve" xMin="16" yMin="-10" xMax="897" yMax="1269">
      <component glyphName="a" x="0" y="0" flags="0x4"/>
      <component glyphName="breve" x="35" y="0" flags="0x4"/>
    </TTGlyph>
    <TTGlyph name="acircumflex" xMin="16" yMin="-10" xMax="750" yMax="1150">
      <component glyphName="a" x="0" y="0" flags="0x204"/>
      <component glyphName="circumflex" x="92" y="0" flags="0x4"/>
    </TTGlyph>
    <TTGlyph name="acute" xMin="123" yMin="528" xMax="242" yMax="619">
      <contour>
        <pt x="154" y="528" on="1"/>
        <pt x="123" y="528" on="1"/>
        <pt x="192" y="619" on="1"/>
        <pt x="242" y="619" on="1"/>
      </contour>
    </TTGlyph>
    <TTGlyph name="acutecomb" xMin="5554" yMin="1853" xMax="5601" yMax="1892">
      <contour>
        <pt x="5568" y="1853" on="1"/>
        <pt x="5554" y="1853" on="1"/>
        <pt x="5584" y="1892" on="1"/>
        <pt x="5601" y="1888" on="1"/>
      </contour>
    </TTGlyph>
    <TTGlyph name="adieresis" xMin="16" yMin="-10" xMax="767" yMax="1133">
      <component glyphName="a" x="0" y="0" flags="0x204"/>
      <component glyphName="dieresis" x="94" y="0" flags="0x4"/>
    </TTGlyph>
    <TTGlyph name="ae" xMin="-8" yMin="-9" xMax="596" yMax="347">
      <contour>
        <pt x="517" y="48" on="1"/>
        <pt x="513" y="15" on="1"/>
        <pt x="450" y="-9" on="0"/>
        <pt x="382" y="-9" on="1"/>
        <pt x="279" y="-9" on="0"/>
        <pt x="248" y="78" on="1"/>
        <pt x="202" y="-9" on="0"/>
        <pt x="89" y="-9" on="1"/>
        <pt x="45" y="-9" on="0"/>
        <pt x="-8" y="41" on="0"/>
        <pt x="1" y="85" on="1"/>
        <pt x="28" y="212" on="0"/>
        <pt x="249" y="212" on="1"/>
        <pt x="255" y="212" on="1"/>
        <pt x="256" y="218" on="1"/>
        <pt x="263" y="251" on="0"/>
        <pt x="253" y="276" on="1"/>
        <pt x="239" y="316" on="0"/>
        <pt x="184" y="316" on="1"/>
        <pt x="149" y="316" on="0"/>
        <pt x="71" y="293" on="1"/>
        <pt x="73" y="329" on="1"/>
        <pt x="133" y="347" on="0"/>
        <pt x="193" y="347" on="1"/>
        <pt x="285" y="347" on="0"/>
        <pt x="296" y="271" on="1"/>
        <pt x="360" y="347" on="0"/>
        <pt x="453" y="347" on="1"/>
        <pt x="596" y="347" on="0"/>
        <pt x="561" y="168" on="1"/>
        <pt x="283" y="168" on="1"/>
        <pt x="271" y="100" on="0"/>
        <pt x="332" y="25" on="0"/>
        <pt x="393" y="25" on="1"/>
        <pt x="453" y="25" on="0"/>
      </contour>
      <contour>
        <pt x="240" y="143" on="1"/>
        <pt x="247" y="178" on="1"/>
        <pt x="61" y="178" on="0"/>
        <pt x="43" y="92" on="1"/>
        <pt x="36" y="59" on="0"/>
        <pt x="69" y="24" on="0"/>
        <pt x="99" y="24" on="1"/>
        <pt x="143" y="24" on="0"/>
        <pt x="178" y="47" on="1"/>
        <pt x="226" y="78" on="0"/>
      </contour>
      <contour>
        <pt x="292" y="199" on="1"/>
        <pt x="531" y="199" on="1"/>
        <pt x="539" y="240" on="0"/>
        <pt x="523" y="272" on="1"/>
        <pt x="503" y="316" on="0"/>
        <pt x="442" y="316" on="1"/>
        <pt x="387" y="316" on="0"/>
        <pt x="343" y="276" on="1"/>
        <pt x="308" y="244" on="0"/>
      </contour>
    </TTGlyph>
    <TTGlyph name="agrave" xMin="16" yMin="-10" xMax="1690" yMax="1161">
      <component glyphName="a" x="0" y="0" flags="0x204"/>
      <component glyphName="gravecomb" x="269" y="0" flags="0x4"/>
    </TTGlyph>
    <TTGlyph name="ampersand" xMin="-9" yMin="-9" xMax="424" yMax="493">
      <contour>
        <pt x="424" y="256" on="1"/>
        <pt x="373" y="129" on="0"/>
        <pt x="320" y="80" on="1"/>
        <pt x="349" y="42" on="0"/>
        <pt x="387" y="0" on="1"/>
        <pt x="337" y="0" on="1"/>
        <pt x="321" y="18" on="0"/>
        <pt x="292" y="53" on="1"/>
        <pt x="205" y="-9" on="0"/>
        <pt x="118" y="-9" on="1"/>
        <pt x="58" y="-9" on="0"/>
        <pt x="-9" y="70" on="0"/>
        <pt x="3" y="128" on="1"/>
        <pt x="23" y="223" on="0"/>
        <pt x="135" y="273" on="1"/>
        <pt x="104" y="330" on="0"/>
        <pt x="113" y="375" on="1"/>
        <pt x="123" y="423" on="0"/>
        <pt x="202" y="493" on="0"/>
        <pt x="256" y="493" on="1"/>
        <pt x="300" y="493" on="0"/>
        <pt x="345" y="438" on="0"/>
        <pt x="335" y="395" on="1"/>
        <pt x="318" y="315" on="0"/>
        <pt x="185" y="260" on="1"/>
        <pt x="229" y="196" on="0"/>
        <pt x="301" y="101" on="1"/>
        <pt x="345" y="147" on="0"/>
        <pt x="387" y="256" on="1"/>
      </contour>
      <contour>
        <pt x="300" y="391" on="1"/>
        <pt x="306" y="420" on="0"/>
        <pt x="294" y="440" on="1"/>
        <pt x="280" y="463" on="0"/>
        <pt x="246" y="463" on="1"/>
        <pt x="211" y="463" on="0"/>
        <pt x="158" y="413" on="0"/>
        <pt x="151" y="379" on="1"/>
        <pt x="143" y="340" on="0"/>
        <pt x="173" y="285" on="1"/>
        <pt x="288" y="335" on="0"/>
      </contour>
      <contour>
        <pt x="274" y="77" on="1"/>
        <pt x="202" y="168" on="0"/>
        <pt x="149" y="248" on="1"/>
        <pt x="57" y="204" on="0"/>
        <pt x="42" y="133" on="1"/>
        <pt x="31" y="84" on="0"/>
        <pt x="84" y="23" on="0"/>
        <pt x="133" y="23" on="1"/>
        <pt x="208" y="23" on="0"/>
      </contour>
    </TTGlyph>
    <TTGlyph name="approxequal" xMin="17" yMin="75" xMax="388" yMax="306">
      <contour>
        <pt x="388" y="306" on="1"/>
        <pt x="386" y="300" on="1"/>
        <pt x="376" y="254" on="0"/>
        <pt x="346" y="229" on="1"/>
        <pt x="321" y="208" on="0"/>
        <pt x="289" y="208" on="1"/>
        <pt x="250" y="208" on="0"/>
        <pt x="175" y="273" on="0"/>
        <pt x="140" y="273" on="1"/>
        <pt x="93" y="273" on="0"/>
        <pt x="77" y="208" on="1"/>
        <pt x="46" y="208" on="1"/>
        <pt x="47" y="216" on="1"/>
        <pt x="56" y="258" on="0"/>
        <pt x="114" y="306" on="0"/>
        <pt x="147" y="306" on="1"/>
        <pt x="185" y="306" on="0"/>
        <pt x="262" y="243" on="0"/>
        <pt x="298" y="243" on="1"/>
        <pt x="341" y="243" on="0"/>
        <pt x="357" y="306" on="1"/>
      </contour>
      <contour>
        <pt x="359" y="173" on="1"/>
        <pt x="358" y="167" on="1"/>
        <pt x="348" y="121" on="0"/>
        <pt x="318" y="96" on="1"/>
        <pt x="292" y="75" on="0"/>
        <pt x="260" y="75" on="1"/>
        <pt x="221" y="75" on="0"/>
        <pt x="146" y="140" on="0"/>
        <pt x="111" y="140" on="1"/>
        <pt x="64" y="140" on="0"/>
        <pt x="48" y="75" on="1"/>
        <pt x="17" y="75" on="1"/>
        <pt x="19" y="83" on="1"/>
        <pt x="28" y="125" on="0"/>
        <pt x="85" y="173" on="0"/>
        <pt x="118" y="173" on="1"/>
        <pt x="156" y="173" on="0"/>
        <pt x="234" y="110" on="0"/>
        <pt x="270" y="110" on="1"/>
        <pt x="313" y="110" on="0"/>
        <pt x="328" y="173" on="1"/>
      </contour>
    </TTGlyph>
    <TTGlyph name="aring" xMin="16" yMin="-10" xMax="413" yMax="651">
      <component glyphName="a" x="0" y="0" flags="0x204"/>
      <component glyphName="ring" x="54" y="0" flags="0x4"/>
    </TTGlyph>
    <TTGlyph name="asciicircum" xMin="33" yMin="159" xMax="357" yMax="480">
      <contour>
        <pt x="282" y="480" on="1"/>
        <pt x="357" y="159" on="1"/>
        <pt x="320" y="159" on="1"/>
        <pt x="255" y="442" on="1"/>
        <pt x="70" y="159" on="1"/>
        <pt x="33" y="159" on="1"/>
        <pt x="246" y="480" on="1"/>
      </contour>
    </TTGlyph>
    <TTGlyph name="asciitilde" xMin="15" yMin="151" xMax="398" yMax="249">
      <contour>
        <pt x="398" y="249" on="1"/>
        <pt x="397" y="243" on="1"/>
        <pt x="387" y="197" on="0"/>
        <pt x="357" y="172" on="1"/>
        <pt x="332" y="151" on="0"/>
        <pt x="300" y="151" on="1"/>
        <pt x="261" y="151" on="0"/>
        <pt x="143" y="216" on="0"/>
        <pt x="108" y="216" on="1"/>
        <pt x="61" y="216" on="0"/>
        <pt x="46" y="151" on="1"/>
        <pt x="15" y="151" on="1"/>
        <pt x="16" y="159" on="1"/>
        <pt x="25" y="201" on="0"/>
        <pt x="82" y="249" on="0"/>
        <pt x="115" y="249" on="1"/>
        <pt x="153" y="249" on="0"/>
        <pt x="273" y="186" on="0"/>
        <pt x="309" y="186" on="1"/>
        <pt x="352" y="186" on="0"/>
        <pt x="367" y="249" on="1"/>
      </contour>
    </TTGlyph>
    <TTGlyph name="asterisk" xMin="50" yMin="258" xMax="307" yMax="494">
      <contour>
        <pt x="299" y="356" on="1"/>
        <pt x="198" y="365" on="1"/>
        <pt x="244" y="279" on="1"/>
        <pt x="206" y="258" on="1"/>
        <pt x="174" y="357" on="1"/>
        <pt x="101" y="258" on="1"/>
        <pt x="73" y="279" on="1"/>
        <pt x="155" y="365" on="1"/>
        <pt x="50" y="356" on="1"/>
        <pt x="58" y="394" on="1"/>
        <pt x="160" y="387" on="1"/>
        <pt x="114" y="472" on="1"/>
        <pt x="157" y="494" on="1"/>
        <pt x="185" y="402" on="1"/>
        <pt x="252" y="494" on="1"/>
        <pt x="285" y="472" on="1"/>
        <pt x="203" y="387" on="1"/>
        <pt x="307" y="394" on="1"/>
      </contour>
    </TTGlyph>
    <TTGlyph name="at" xMin="-13" yMin="-97" xMax="524" yMax="394">
      <contour>
        <pt x="504" y="176" on="1"/>
        <pt x="489" y="108" on="0"/>
        <pt x="385" y="12" on="0"/>
        <pt x="335" y="9" on="1"/>
        <pt x="304" y="7" on="1"/>
        <pt x="304" y="52" on="1"/>
        <pt x="253" y="1" on="0"/>
        <pt x="187" y="1" on="1"/>
        <pt x="175" y="1" on="0"/>
        <pt x="168" y="2" on="1"/>
        <pt x="137" y="7" on="0"/>
        <pt x="102" y="53" on="0"/>
        <pt x="108" y="83" on="1"/>
        <pt x="132" y="195" on="0"/>
        <pt x="332" y="195" on="1"/>
        <pt x="333" y="200" on="1"/>
        <pt x="351" y="285" on="0"/>
        <pt x="270" y="285" on="1"/>
        <pt x="226" y="285" on="0"/>
        <pt x="190" y="261" on="1"/>
        <pt x="184" y="286" on="1"/>
        <pt x="229" y="315" on="0"/>
        <pt x="278" y="315" on="1"/>
        <pt x="392" y="315" on="0"/>
        <pt x="365" y="188" on="1"/>
        <pt x="343" y="81" on="1"/>
        <pt x="338" y="59" on="0"/>
        <pt x="338" y="40" on="1"/>
        <pt x="377" y="42" on="0"/>
        <pt x="458" y="120" on="0"/>
        <pt x="469" y="173" on="1"/>
        <pt x="487" y="256" on="0"/>
        <pt x="406" y="365" on="0"/>
        <pt x="317" y="365" on="1"/>
        <pt x="223" y="365" on="0"/>
        <pt x="148" y="303" on="1"/>
        <pt x="68" y="237" on="0"/>
        <pt x="46" y="133" on="1"/>
        <pt x="27" y="47" on="0"/>
        <pt x="113" y="-66" on="0"/>
        <pt x="194" y="-66" on="1"/>
        <pt x="263" y="-66" on="0"/>
        <pt x="318" y="-36" on="1"/>
        <pt x="326" y="-65" on="1"/>
        <pt x="259" y="-97" on="0"/>
        <pt x="185" y="-97" on="1"/>
        <pt x="91" y="-97" on="0"/>
        <pt x="-13" y="31" on="0"/>
        <pt x="7" y="130" on="1"/>
        <pt x="30" y="239" on="0"/>
        <pt x="116" y="314" on="1"/>
        <pt x="207" y="394" on="0"/>
        <pt x="328" y="394" on="1"/>
        <pt x="428" y="394" on="0"/>
        <pt x="524" y="270" on="0"/>
      </contour>
      <contour>
        <pt x="313" y="105" on="1"/>
        <pt x="326" y="166" on="1"/>
        <pt x="162" y="164" on="0"/>
        <pt x="146" y="89" on="1"/>
        <pt x="134" y="29" on="0"/>
        <pt x="195" y="29" on="1"/>
        <pt x="267" y="29" on="0"/>
        <pt x="308" y="92" on="1"/>
        <pt x="311" y="96" on="0"/>
      </contour>
    </TTGlyph>
    <TTGlyph name="atilde" xMin="16" yMin="-10" xMax="1338" yMax="862">
      <component glyphName="a" x="0" y="0" flags="0x204"/>
      <component glyphName="tildecomb" x="300" y="0" flags="0x4"/>
    </TTGlyph>
    <TTGlyph name="b" xMin="34" yMin="-9" xMax="382" yMax="505">
      <contour>
        <pt x="366" y="174" on="1"/>
        <pt x="349" y="92" on="0"/>
        <pt x="242" y="-9" on="0"/>
        <pt x="169" y="-9" on="1"/>
        <pt x="101" y="-9" on="0"/>
        <pt x="34" y="57" on="0"/>
        <pt x="34" y="109" on="1"/>
        <pt x="34" y="126" on="0"/>
        <pt x="38" y="142" on="1"/>
        <pt x="116" y="505" on="1"/>
        <pt x="155" y="505" on="1"/>
        <pt x="106" y="275" on="1"/>
        <pt x="165" y="347" on="0"/>
        <pt x="250" y="347" on="1"/>
        <pt x="321" y="347" on="0"/>
        <pt x="382" y="249" on="0"/>
      </contour>
      <contour>
        <pt x="328" y="173" on="1"/>
        <pt x="342" y="236" on="0"/>
        <pt x="295" y="316" on="0"/>
        <pt x="237" y="316" on="1"/>
        <pt x="189" y="316" on="0"/>
        <pt x="147" y="283" on="1"/>
        <pt x="100" y="248" on="0"/>
        <pt x="89" y="194" on="1"/>
        <pt x="75" y="129" on="1"/>
        <pt x="65" y="81" on="0"/>
        <pt x="121" y="24" on="0"/>
        <pt x="171" y="24" on="1"/>
        <pt x="297" y="24" on="0"/>
      </contour>
    </TTGlyph>
    <TTGlyph name="backslash" xMin="50" yMin="-28" xMax="230" yMax="483">
      <contour>
        <pt x="230" y="-28" on="1"/>
        <pt x="190" y="-28" on="1"/>
        <pt x="50" y="483" on="1"/>
        <pt x="89" y="483" on="1"/>
      </contour>
    </TTGlyph>
    <TTGlyph name="bar" xMin="-19" yMin="-174" xMax="162" yMax="528">
      <contour>
        <pt x="162" y="528" on="1"/>
        <pt x="13" y="-174" on="1"/>
        <pt x="-19" y="-174" on="1"/>
        <pt x="129" y="528" on="1"/>
      </contour>
    </TTGlyph>
    <TTGlyph name="braceleft" xMin="1" yMin="-77" xMax="239" yMax="483">
      <contour>
        <pt x="127" y="-47" on="1"/>
        <pt x="120" y="-77" on="1"/>
        <pt x="109" y="-77" on="1"/>
        <pt x="1" y="-77" on="0"/>
        <pt x="21" y="18" on="1"/>
        <pt x="25" y="37" on="0"/>
        <pt x="56" y="116" on="0"/>
        <pt x="60" y="136" on="1"/>
        <pt x="71" y="186" on="0"/>
        <pt x="9" y="188" on="1"/>
        <pt x="16" y="218" on="1"/>
        <pt x="78" y="220" on="0"/>
        <pt x="89" y="270" on="1"/>
        <pt x="93" y="290" on="0"/>
        <pt x="96" y="369" on="0"/>
        <pt x="100" y="388" on="1"/>
        <pt x="120" y="483" on="0"/>
        <pt x="228" y="483" on="1"/>
        <pt x="239" y="483" on="1"/>
        <pt x="233" y="453" on="1"/>
        <pt x="218" y="453" on="1"/>
        <pt x="149" y="453" on="0"/>
        <pt x="134" y="384" on="1"/>
        <pt x="127" y="283" on="0"/>
        <pt x="125" y="273" on="1"/>
        <pt x="114" y="222" on="0"/>
        <pt x="70" y="203" on="1"/>
        <pt x="106" y="184" on="0"/>
        <pt x="95" y="133" on="1"/>
        <pt x="93" y="123" on="0"/>
        <pt x="57" y="22" on="1"/>
        <pt x="43" y="-47" on="0"/>
        <pt x="112" y="-47" on="1"/>
      </contour>
    </TTGlyph>
    <TTGlyph name="braceright" xMin="-31" yMin="-77" xMax="206" yMax="483">
      <contour>
        <pt x="-31" y="-77" on="1"/>
        <pt x="-24" y="-47" on="1"/>
        <pt x="-9" y="-47" on="1"/>
        <pt x="59" y="-47" on="0"/>
        <pt x="73" y="22" on="1"/>
        <pt x="81" y="123" on="0"/>
        <pt x="83" y="133" on="1"/>
        <pt x="94" y="184" on="0"/>
        <pt x="138" y="203" on="1"/>
        <pt x="102" y="222" on="0"/>
        <pt x="113" y="273" on="1"/>
        <pt x="115" y="283" on="0"/>
        <pt x="150" y="384" on="1"/>
        <pt x="165" y="453" on="0"/>
        <pt x="96" y="453" on="1"/>
        <pt x="81" y="453" on="1"/>
        <pt x="87" y="483" on="1"/>
        <pt x="98" y="483" on="1"/>
        <pt x="206" y="483" on="0"/>
        <pt x="186" y="388" on="1"/>
        <pt x="182" y="369" on="0"/>
        <pt x="151" y="290" on="0"/>
        <pt x="147" y="270" on="1"/>
        <pt x="136" y="220" on="0"/>
        <pt x="198" y="218" on="1"/>
        <pt x="191" y="188" on="1"/>
        <pt x="129" y="186" on="0"/>
        <pt x="118" y="136" on="1"/>
        <pt x="114" y="116" on="0"/>
        <pt x="111" y="37" on="0"/>
        <pt x="107" y="18" on="1"/>
        <pt x="87" y="-77" on="0"/>
        <pt x="-20" y="-77" on="1"/>
      </contour>
    </TTGlyph>
    <TTGlyph name="bracketleft" xMin="-7" yMin="-78" xMax="249" yMax="506">
      <contour>
        <pt x="131" y="-48" on="1"/>
        <pt x="125" y="-78" on="1"/>
        <pt x="-7" y="-78" on="1"/>
        <pt x="116" y="506" on="1"/>
        <pt x="249" y="506" on="1"/>
        <pt x="243" y="476" on="1"/>
        <pt x="145" y="476" on="1"/>
        <pt x="33" y="-48" on="1"/>
      </contour>
    </TTGlyph>
    <TTGlyph name="bracketright" xMin="-48" yMin="-78" xMax="209" yMax="506">
      <contour>
        <pt x="85" y="-78" on="1"/>
        <pt x="-48" y="-78" on="1"/>
        <pt x="-42" y="-48" on="1"/>
        <pt x="55" y="-48" on="1"/>
        <pt x="167" y="476" on="1"/>
        <pt x="69" y="476" on="1"/>
        <pt x="75" y="506" on="1"/>
        <pt x="209" y="506" on="1"/>
      </contour>
    </TTGlyph>
    <TTGlyph name="breve" xMin="142" yMin="385" xMax="321" yMax="453">
      <contour>
        <pt x="321" y="453" on="1"/>
        <pt x="310" y="426" on="0"/>
        <pt x="287" y="409" on="1"/>
        <pt x="256" y="385" on="0"/>
        <pt x="217" y="385" on="1"/>
        <pt x="178" y="385" on="0"/>
        <pt x="156" y="409" on="1"/>
        <pt x="142" y="426" on="0"/>
        <pt x="142" y="453" on="1"/>
        <pt x="177" y="453" on="1"/>
        <pt x="178" y="442" on="0"/>
        <pt x="184" y="434" on="1"/>
        <pt x="196" y="416" on="0"/>
        <pt x="224" y="416" on="1"/>
        <pt x="252" y="416" on="0"/>
        <pt x="271" y="434" on="1"/>
        <pt x="280" y="442" on="0"/>
        <pt x="287" y="453" on="1"/>
      </contour>
    </TTGlyph>
    <TTGlyph name="brokenbar" xMin="-9" yMin="-123" xMax="150" yMax="475">
      <contour>
        <pt x="98" y="227" on="1"/>
        <pt x="65" y="227" on="1"/>
        <pt x="117" y="475" on="1"/>
        <pt x="150" y="475" on="1"/>
      </contour>
      <contour>
        <pt x="23" y="-123" on="1"/>
        <pt x="-9" y="-123" on="1"/>
        <pt x="43" y="126" on="1"/>
        <pt x="76" y="126" on="1"/>
      </contour>
    </TTGlyph>
    <TTGlyph name="bullet" xMin="24" yMin="116" xMax="192" yMax="284">
      <contour>
        <pt x="192" y="200" on="1"/>
        <pt x="192" y="165" on="0"/>
        <pt x="143" y="116" on="0"/>
        <pt x="108" y="116" on="1"/>
        <pt x="73" y="116" on="0"/>
        <pt x="24" y="165" on="0"/>
        <pt x="24" y="200" on="1"/>
        <pt x="24" y="235" on="0"/>
        <pt x="72" y="284" on="0"/>
        <pt x="108" y="284" on="1"/>
        <pt x="143" y="284" on="0"/>
        <pt x="192" y="234" on="0"/>
      </contour>
    </TTGlyph>
    <TTGlyph name="c" xMin="2" yMin="-9" xMax="337" yMax="347">
      <contour>
        <pt x="264" y="47" on="1"/>
        <pt x="272" y="15" on="1"/>
        <pt x="224" y="-9" on="0"/>
        <pt x="162" y="-9" on="1"/>
        <pt x="78" y="-9" on="0"/>
        <pt x="2" y="88" on="0"/>
        <pt x="19" y="169" on="1"/>
        <pt x="37" y="250" on="0"/>
        <pt x="153" y="347" on="0"/>
        <pt x="237" y="347" on="1"/>
        <pt x="299" y="347" on="0"/>
        <pt x="337" y="323" on="1"/>
        <pt x="316" y="291" on="1"/>
        <pt x="284" y="315" on="0"/>
        <pt x="228" y="315" on="1"/>
        <pt x="167" y="315" on="0"/>
        <pt x="72" y="237" on="0"/>
        <pt x="57" y="169" on="1"/>
        <pt x="43" y="101" on="0"/>
        <pt x="105" y="23" on="0"/>
        <pt x="166" y="23" on="1"/>
        <pt x="222" y="23" on="0"/>
      </contour>
    </TTGlyph>
    <TTGlyph name="cacute" xMin="2" yMin="-9" xMax="5601" yMax="1892">
      <component glyphName="c" x="0" y="0" flags="0x204"/>
      <component glyphName="acutecomb" x="247" y="0" flags="0x4"/>
    </TTGlyph>
    <TTGlyph name="caron" xMin="401" yMin="656" xMax="567" yMax="734">
      <contour>
        <pt x="481" y="656" on="1"/>
        <pt x="453" y="656" on="1"/>
        <pt x="401" y="734" on="1"/>
        <pt x="438" y="734" on="1"/>
        <pt x="473" y="682" on="1"/>
        <pt x="530" y="734" on="1"/>
        <pt x="567" y="734" on="1"/>
      </contour>
    </TTGlyph>
    <TTGlyph name="ccaron" xMin="2" yMin="-9" xMax="818" yMax="870">
      <component glyphName="c" x="0" y="0" flags="0x204"/>
      <component glyphName="caron" x="93" y="0" flags="0x4"/>
    </TTGlyph>
    <TTGlyph name="ccedilla" xMin="2" yMin="-124" xMax="337" yMax="347">
      <component glyphName="c" x="0" y="0" flags="0x204"/>
      <component glyphName="cedilla" x="81" y="0" scale="0.900024414062" flags="0x4"/>
    </TTGlyph>
    <TTGlyph name="cedilla" xMin="-34" yMin="-139" xMax="100" yMax="4">
      <contour>
        <pt x="92" y="-81" on="1"/>
        <pt x="80" y="-139" on="0"/>
        <pt x="10" y="-139" on="1"/>
        <pt x="-13" y="-139" on="0"/>
        <pt x="-34" y="-126" on="1"/>
        <pt x="-20" y="-104" on="1"/>
        <pt x="-1" y="-114" on="0"/>
        <pt x="16" y="-114" on="1"/>
        <pt x="54" y="-114" on="0"/>
        <pt x="60" y="-86" on="1"/>
        <pt x="66" y="-61" on="0"/>
        <pt x="4" y="-56" on="1"/>
        <pt x="55" y="4" on="1"/>
        <pt x="87" y="4" on="1"/>
        <pt x="52" y="-34" on="1"/>
        <pt x="100" y="-46" on="0"/>
      </contour>
    </TTGlyph>
    <TTGlyph name="cent" xMin="18" yMin="-59" xMax="424" yMax="542">
      <contour>
        <pt x="345" y="48" on="1"/>
        <pt x="291" y="22" on="0"/>
        <pt x="208" y="22" on="1"/>
        <pt x="203" y="22" on="1"/>
        <pt x="186" y="-59" on="1"/>
        <pt x="153" y="-59" on="1"/>
        <pt x="171" y="24" on="1"/>
        <pt x="97" y="35" on="0"/>
        <pt x="60" y="85" on="1"/>
        <pt x="18" y="140" on="0"/>
        <pt x="39" y="238" on="1"/>
        <pt x="57" y="321" on="0"/>
        <pt x="112" y="376" on="1"/>
        <pt x="173" y="436" on="0"/>
        <pt x="261" y="451" on="1"/>
        <pt x="281" y="542" on="1"/>
        <pt x="314" y="542" on="1"/>
        <pt x="295" y="455" on="1"/>
        <pt x="302" y="456" on="0"/>
        <pt x="316" y="456" on="1"/>
        <pt x="376" y="456" on="0"/>
        <pt x="424" y="437" on="1"/>
        <pt x="409" y="401" on="1"/>
        <pt x="369" y="424" on="0"/>
        <pt x="312" y="424" on="1"/>
        <pt x="220" y="424" on="0"/>
        <pt x="97" y="327" on="0"/>
        <pt x="78" y="236" on="1"/>
        <pt x="59" y="150" on="0"/>
        <pt x="97" y="105" on="1"/>
        <pt x="137" y="57" on="0"/>
        <pt x="228" y="57" on="1"/>
        <pt x="291" y="57" on="0"/>
        <pt x="339" y="77" on="1"/>
      </contour>
    </TTGlyph>
    <TTGlyph name="circumflex" xMin="702" yMin="1072" xMax="868" yMax="1150">
      <contour>
        <pt x="815" y="1150" on="1"/>
        <pt x="868" y="1072" on="1"/>
        <pt x="831" y="1072" on="1"/>
        <pt x="796" y="1124" on="1"/>
        <pt x="739" y="1072" on="1"/>
        <pt x="702" y="1072" on="1"/>
        <pt x="787" y="1150" on="1"/>
      </contour>
    </TTGlyph>
    <TTGlyph name="colon" xMin="5" yMin="-6" xMax="135" yMax="318">
      <contour>
        <pt x="77" y="28" on="1"/>
        <pt x="74" y="14" on="0"/>
        <pt x="49" y="-6" on="0"/>
        <pt x="35" y="-6" on="1"/>
        <pt x="21" y="-6" on="0"/>
        <pt x="5" y="14" on="0"/>
        <pt x="8" y="28" on="1"/>
        <pt x="11" y="42" on="0"/>
        <pt x="36" y="63" on="0"/>
        <pt x="50" y="63" on="1"/>
        <pt x="64" y="63" on="0"/>
        <pt x="80" y="42" on="0"/>
      </contour>
      <contour>
        <pt x="132" y="283" on="1"/>
        <pt x="129" y="269" on="0"/>
        <pt x="103" y="249" on="0"/>
        <pt x="89" y="249" on="1"/>
        <pt x="75" y="249" on="0"/>
        <pt x="60" y="269" on="0"/>
        <pt x="63" y="283" on="1"/>
        <pt x="66" y="297" on="0"/>
        <pt x="90" y="318" on="0"/>
        <pt x="104" y="318" on="1"/>
        <pt x="118" y="318" on="0"/>
        <pt x="135" y="297" on="0"/>
      </contour>
    </TTGlyph>
    <TTGlyph name="comma" xMin="-32" yMin="-109" xMax="89" yMax="68">
      <contour>
        <pt x="85" y="27" on="1"/>
        <pt x="72" y="-27" on="0"/>
        <pt x="32" y="-68" on="1"/>
        <pt x="5" y="-97" on="0"/>
        <pt x="-22" y="-109" on="1"/>
        <pt x="-32" y="-94" on="1"/>
        <pt x="26" y="-59" on="0"/>
        <pt x="43" y="-7" on="1"/>
        <pt x="27" y="-7" on="0"/>
        <pt x="9" y="15" on="0"/>
        <pt x="12" y="30" on="1"/>
        <pt x="15" y="45" on="0"/>
        <pt x="42" y="68" on="0"/>
        <pt x="57" y="68" on="1"/>
        <pt x="73" y="68" on="0"/>
        <pt x="89" y="44" on="0"/>
      </contour>
    </TTGlyph>
    <TTGlyph name="copyright" xMin="40" yMin="-3" xMax="526" yMax="483">
      <contour>
        <pt x="385" y="117" on="1"/>
        <pt x="347" y="88" on="0"/>
        <pt x="280" y="88" on="1"/>
        <pt x="215" y="88" on="0"/>
        <pt x="137" y="172" on="0"/>
        <pt x="137" y="233" on="1"/>
        <pt x="137" y="303" on="0"/>
        <pt x="219" y="384" on="0"/>
        <pt x="285" y="384" on="1"/>
        <pt x="348" y="384" on="0"/>
        <pt x="380" y="360" on="1"/>
        <pt x="368" y="330" on="1"/>
        <pt x="330" y="352" on="0"/>
        <pt x="285" y="352" on="1"/>
        <pt x="177" y="346" on="0"/>
        <pt x="177" y="238" on="1"/>
        <pt x="177" y="129" on="0"/>
        <pt x="286" y="123" on="1"/>
        <pt x="337" y="123" on="0"/>
        <pt x="372" y="148" on="1"/>
      </contour>
      <contour>
        <pt x="526" y="240" on="1"/>
        <pt x="526" y="140" on="0"/>
        <pt x="383" y="-3" on="0"/>
        <pt x="283" y="-3" on="1"/>
        <pt x="183" y="-3" on="0"/>
        <pt x="40" y="140" on="0"/>
        <pt x="40" y="240" on="1"/>
        <pt x="40" y="340" on="0"/>
        <pt x="183" y="483" on="0"/>
        <pt x="283" y="483" on="1"/>
        <pt x="383" y="483" on="0"/>
        <pt x="526" y="340" on="0"/>
      </contour>
      <contour>
        <pt x="490" y="240" on="1"/>
        <pt x="490" y="326" on="0"/>
        <pt x="369" y="447" on="0"/>
        <pt x="283" y="447" on="1"/>
        <pt x="197" y="447" on="0"/>
        <pt x="76" y="326" on="0"/>
        <pt x="76" y="240" on="1"/>
        <pt x="76" y="154" on="0"/>
        <pt x="197" y="33" on="0"/>
        <pt x="283" y="33" on="1"/>
        <pt x="369" y="33" on="0"/>
        <pt x="490" y="154" on="0"/>
      </contour>
    </TTGlyph>
    <TTGlyph name="currency" xMin="-5" yMin="43" xMax="426" yMax="410">
      <contour>
        <pt x="391" y="225" on="1"/>
        <pt x="377" y="159" on="0"/>
        <pt x="330" y="114" on="1"/>
        <pt x="361" y="73" on="1"/>
        <pt x="326" y="43" on="1"/>
        <pt x="293" y="85" on="1"/>
        <pt x="238" y="43" on="0"/>
        <pt x="170" y="43" on="1"/>
        <pt x="105" y="43" on="0"/>
        <pt x="66" y="85" on="1"/>
        <pt x="17" y="43" on="1"/>
        <pt x="-5" y="73" on="1"/>
        <pt x="42" y="114" on="1"/>
        <pt x="13" y="162" on="0"/>
        <pt x="26" y="225" on="1"/>
        <pt x="40" y="289" on="0"/>
        <pt x="90" y="339" on="1"/>
        <pt x="59" y="379" on="1"/>
        <pt x="95" y="410" on="1"/>
        <pt x="126" y="368" on="1"/>
        <pt x="186" y="409" on="0"/>
        <pt x="247" y="409" on="1"/>
        <pt x="311" y="409" on="0"/>
        <pt x="353" y="368" on="1"/>
        <pt x="405" y="410" on="1"/>
        <pt x="426" y="379" on="1"/>
        <pt x="378" y="339" on="1"/>
        <pt x="406" y="295" on="0"/>
      </contour>
      <contour>
        <pt x="351" y="225" on="1"/>
        <pt x="364" y="285" on="0"/>
        <pt x="300" y="374" on="0"/>
        <pt x="240" y="374" on="1"/>
        <pt x="182" y="374" on="0"/>
        <pt x="78" y="286" on="0"/>
        <pt x="65" y="225" on="1"/>
        <pt x="52" y="164" on="0"/>
        <pt x="119" y="79" on="0"/>
        <pt x="177" y="79" on="1"/>
        <pt x="237" y="79" on="0"/>
        <pt x="339" y="166" on="0"/>
      </contour>
    </TTGlyph>
    <TTGlyph name="d" xMin="4" yMin="-9" xMax="413" yMax="505">
      <contour>
        <pt x="323" y="83" on="1"/>
        <pt x="315" y="46" on="0"/>
        <pt x="323" y="1" on="1"/>
        <pt x="284" y="-7" on="1"/>
        <pt x="279" y="27" on="0"/>
        <pt x="282" y="59" on="1"/>
        <pt x="222" y="-9" on="0"/>
        <pt x="142" y="-9" on="1"/>
        <pt x="69" y="-9" on="0"/>
        <pt x="4" y="92" on="0"/>
        <pt x="21" y="174" on="1"/>
        <pt x="37" y="249" on="0"/>
        <pt x="140" y="347" on="0"/>
        <pt x="211" y="347" on="1"/>
        <pt x="296" y="347" on="0"/>
        <pt x="325" y="275" on="1"/>
        <pt x="374" y="505" on="1"/>
        <pt x="413" y="505" on="1"/>
      </contour>
      <contour>
        <pt x="295" y="136" on="1"/>
        <pt x="308" y="193" on="1"/>
        <pt x="319" y="248" on="0"/>
        <pt x="288" y="283" on="1"/>
        <pt x="260" y="316" on="0"/>
        <pt x="212" y="316" on="1"/>
        <pt x="154" y="316" on="0"/>
        <pt x="73" y="236" on="0"/>
        <pt x="59" y="173" on="1"/>
        <pt x="28" y="24" on="0"/>
        <pt x="154" y="24" on="1"/>
        <pt x="204" y="24" on="0"/>
        <pt x="285" y="88" on="0"/>
      </contour>
    </TTGlyph>
    <TTGlyph name="dagger" xMin="57" yMin="-34" xMax="360" yMax="474">
      <contour>
        <pt x="360" y="322" on="1"/>
        <pt x="353" y="289" on="1"/>
        <pt x="224" y="293" on="1"/>
        <pt x="154" y="-34" on="1"/>
        <pt x="118" y="-34" on="1"/>
        <pt x="188" y="293" on="1"/>
        <pt x="57" y="289" on="1"/>
        <pt x="64" y="322" on="1"/>
        <pt x="193" y="318" on="1"/>
        <pt x="226" y="474" on="1"/>
        <pt x="262" y="474" on="1"/>
        <pt x="229" y="318" on="1"/>
      </contour>
    </TTGlyph>
    <TTGlyph name="daggerdbl" xMin="19" yMin="-34" xMax="360" yMax="474">
      <contour>
        <pt x="360" y="322" on="1"/>
        <pt x="353" y="289" on="1"/>
        <pt x="224" y="293" on="1"/>
        <pt x="191" y="141" on="1"/>
        <pt x="322" y="145" on="1"/>
        <pt x="315" y="112" on="1"/>
        <pt x="186" y="116" on="1"/>
        <pt x="154" y="-34" on="1"/>
        <pt x="118" y="-34" on="1"/>
        <pt x="150" y="116" on="1"/>
        <pt x="19" y="112" on="1"/>
        <pt x="26" y="145" on="1"/>
        <pt x="155" y="141" on="1"/>
        <pt x="188" y="293" on="1"/>
        <pt x="57" y="289" on="1"/>
        <pt x="64" y="322" on="1"/>
        <pt x="193" y="318" on="1"/>
        <pt x="226" y="474" on="1"/>
        <pt x="262" y="474" on="1"/>
        <pt x="229" y="318" on="1"/>
      </contour>
    </TTGlyph>
    <TTGlyph name="dcroat" xMin="4" yMin="-9" xMax="451" yMax="505">
      <contour>
        <pt x="323" y="83" on="1"/>
        <pt x="315" y="46" on="0"/>
        <pt x="323" y="1" on="1"/>
        <pt x="284" y="-7" on="1"/>
        <pt x="279" y="27" on="0"/>
        <pt x="282" y="59" on="1"/>
        <pt x="223" y="-9" on="0"/>
        <pt x="142" y="-9" on="1"/>
        <pt x="69" y="-9" on="0"/>
        <pt x="4" y="92" on="0"/>
        <pt x="21" y="174" on="1"/>
        <pt x="37" y="249" on="0"/>
        <pt x="140" y="347" on="0"/>
        <pt x="211" y="347" on="1"/>
        <pt x="297" y="347" on="0"/>
        <pt x="325" y="275" on="1"/>
        <pt x="357" y="426" on="1"/>
        <pt x="227" y="426" on="1"/>
        <pt x="234" y="459" on="1"/>
        <pt x="364" y="459" on="1"/>
        <pt x="374" y="505" on="1"/>
        <pt x="413" y="505" on="1"/>
        <pt x="403" y="459" on="1"/>
        <pt x="451" y="459" on="1"/>
        <pt x="444" y="426" on="1"/>
        <pt x="396" y="426" on="1"/>
      </contour>
      <contour>
        <pt x="295" y="136" on="1"/>
        <pt x="308" y="193" on="1"/>
        <pt x="319" y="248" on="0"/>
        <pt x="260" y="316" on="0"/>
        <pt x="212" y="316" on="1"/>
        <pt x="154" y="316" on="0"/>
        <pt x="73" y="236" on="0"/>
        <pt x="59" y="173" on="1"/>
        <pt x="28" y="24" on="0"/>
        <pt x="154" y="24" on="1"/>
        <pt x="204" y="24" on="0"/>
        <pt x="285" y="88" on="0"/>
      </contour>
    </TTGlyph>
    <TTGlyph name="degree" xMin="53" yMin="312" xMax="239" yMax="483">
      <contour>
        <pt x="232" y="397" on="1"/>
        <pt x="224" y="362" on="0"/>
        <pt x="163" y="312" on="0"/>
        <pt x="128" y="312" on="1"/>
        <pt x="93" y="312" on="0"/>
        <pt x="53" y="362" on="0"/>
        <pt x="61" y="397" on="1"/>
        <pt x="68" y="432" on="0"/>
        <pt x="129" y="483" on="0"/>
        <pt x="164" y="483" on="1"/>
        <pt x="199" y="483" on="0"/>
        <pt x="239" y="432" on="0"/>
      </contour>
      <contour>
        <pt x="202" y="397" on="1"/>
        <pt x="207" y="420" on="0"/>
        <pt x="181" y="454" on="0"/>
        <pt x="158" y="454" on="1"/>
        <pt x="135" y="454" on="0"/>
        <pt x="96" y="420" on="0"/>
        <pt x="91" y="397" on="1"/>
        <pt x="86" y="374" on="0"/>
        <pt x="111" y="341" on="0"/>
        <pt x="134" y="341" on="1"/>
        <pt x="157" y="341" on="0"/>
        <pt x="197" y="374" on="0"/>
      </contour>
    </TTGlyph>
    <TTGlyph name="dieresis" xMin="86" yMin="392" xMax="277" yMax="453">
      <contour>
        <pt x="150" y="422" on="1"/>
        <pt x="147" y="409" on="0"/>
        <pt x="126" y="392" on="0"/>
        <pt x="113" y="392" on="1"/>
        <pt x="100" y="392" on="0"/>
        <pt x="86" y="409" on="0"/>
        <pt x="89" y="422" on="1"/>
        <pt x="92" y="435" on="0"/>
        <pt x="113" y="453" on="0"/>
        <pt x="126" y="453" on="1"/>
        <pt x="139" y="453" on="0"/>
        <pt x="153" y="435" on="0"/>
      </contour>
      <contour>
        <pt x="274" y="422" on="1"/>
        <pt x="271" y="409" on="0"/>
        <pt x="250" y="392" on="0"/>
        <pt x="237" y="392" on="1"/>
        <pt x="224" y="392" on="0"/>
        <pt x="210" y="409" on="0"/>
        <pt x="213" y="422" on="1"/>
        <pt x="216" y="435" on="0"/>
        <pt x="237" y="453" on="0"/>
        <pt x="250" y="453" on="1"/>
        <pt x="263" y="453" on="0"/>
        <pt x="277" y="435" on="0"/>
      </contour>
    </TTGlyph>
    <TTGlyph name="divide" xMin="30" yMin="25" xMax="372" yMax="336">
      <contour>
        <pt x="260" y="302" on="1"/>
        <pt x="257" y="288" on="0"/>
        <pt x="234" y="267" on="0"/>
        <pt x="220" y="267" on="1"/>
        <pt x="205" y="267" on="0"/>
        <pt x="192" y="288" on="0"/>
        <pt x="195" y="302" on="1"/>
        <pt x="199" y="316" on="0"/>
        <pt x="221" y="336" on="0"/>
        <pt x="235" y="336" on="1"/>
        <pt x="249" y="336" on="0"/>
        <pt x="263" y="316" on="0"/>
      </contour>
      <contour>
        <pt x="207" y="59" on="1"/>
        <pt x="204" y="45" on="0"/>
        <pt x="182" y="25" on="0"/>
        <pt x="168" y="25" on="1"/>
        <pt x="153" y="25" on="0"/>
        <pt x="140" y="45" on="0"/>
        <pt x="143" y="59" on="1"/>
        <pt x="146" y="73" on="0"/>
        <pt x="168" y="94" on="0"/>
        <pt x="183" y="94" on="1"/>
        <pt x="197" y="94" on="0"/>
        <pt x="210" y="73" on="0"/>
      </contour>
      <contour>
        <pt x="365" y="165" on="1"/>
        <pt x="30" y="165" on="1"/>
        <pt x="37" y="198" on="1"/>
        <pt x="372" y="198" on="1"/>
      </contour>
    </TTGlyph>
    <TTGlyph name="dollar" xMin="19" yMin="-58" xMax="343" yMax="536">
      <contour>
        <pt x="293" y="133" on="1"/>
        <pt x="284" y="93" on="0"/>
        <pt x="250" y="61" on="1"/>
        <pt x="212" y="26" on="0"/>
        <pt x="156" y="16" on="1"/>
        <pt x="140" y="-58" on="1"/>
        <pt x="105" y="-58" on="1"/>
        <pt x="121" y="16" on="1"/>
        <pt x="57" y="16" on="0"/>
        <pt x="19" y="51" on="1"/>
        <pt x="44" y="82" on="1"/>
        <pt x="77" y="48" on="0"/>
        <pt x="137" y="48" on="1"/>
        <pt x="182" y="48" on="0"/>
        <pt x="247" y="95" on="0"/>
        <pt x="254" y="131" on="1"/>
        <pt x="267" y="189" on="0"/>
        <pt x="187" y="226" on="1"/>
        <pt x="77" y="276" on="0"/>
        <pt x="93" y="350" on="1"/>
        <pt x="102" y="393" on="0"/>
        <pt x="173" y="453" on="0"/>
        <pt x="223" y="460" on="1"/>
        <pt x="239" y="536" on="1"/>
        <pt x="273" y="536" on="1"/>
        <pt x="257" y="460" on="1"/>
        <pt x="306" y="457" on="0"/>
        <pt x="343" y="431" on="1"/>
        <pt x="318" y="399" on="1"/>
        <pt x="290" y="428" on="0"/>
        <pt x="234" y="428" on="1"/>
        <pt x="190" y="428" on="0"/>
        <pt x="161" y="403" on="1"/>
        <pt x="137" y="383" on="0"/>
        <pt x="131" y="355" on="1"/>
        <pt x="125" y="325" on="0"/>
        <pt x="158" y="286" on="0"/>
        <pt x="205" y="263" on="1"/>
        <pt x="259" y="237" on="0"/>
        <pt x="279" y="212" on="1"/>
        <pt x="303" y="180" on="0"/>
      </contour>
    </TTGlyph>
    <TTGlyph name="dong" xMin="-39" yMin="-108" xMax="451" yMax="505">
      <contour>
        <pt x="323" y="83" on="1"/>
        <pt x="315" y="46" on="0"/>
        <pt x="323" y="1" on="1"/>
        <pt x="284" y="-7" on="1"/>
        <pt x="279" y="27" on="0"/>
        <pt x="283" y="60" on="1"/>
        <pt x="223" y="-9" on="0"/>
        <pt x="142" y="-9" on="1"/>
        <pt x="69" y="-9" on="0"/>
        <pt x="4" y="92" on="0"/>
        <pt x="21" y="174" on="1"/>
        <pt x="37" y="249" on="0"/>
        <pt x="140" y="347" on="0"/>
        <pt x="211" y="347" on="1"/>
        <pt x="297" y="347" on="0"/>
        <pt x="325" y="275" on="1"/>
        <pt x="357" y="426" on="1"/>
        <pt x="227" y="426" on="1"/>
        <pt x="234" y="459" on="1"/>
        <pt x="364" y="459" on="1"/>
        <pt x="374" y="505" on="1"/>
        <pt x="413" y="505" on="1"/>
        <pt x="403" y="459" on="1"/>
        <pt x="451" y="459" on="1"/>
        <pt x="444" y="426" on="1"/>
        <pt x="396" y="426" on="1"/>
      </contour>
      <contour>
        <pt x="295" y="136" on="1"/>
        <pt x="308" y="193" on="1"/>
        <pt x="319" y="248" on="0"/>
        <pt x="260" y="316" on="0"/>
        <pt x="212" y="316" on="1"/>
        <pt x="154" y="316" on="0"/>
        <pt x="73" y="236" on="0"/>
        <pt x="59" y="173" on="1"/>
        <pt x="28" y="24" on="0"/>
        <pt x="154" y="24" on="1"/>
        <pt x="204" y="24" on="0"/>
        <pt x="285" y="88" on="0"/>
      </contour>
      <contour>
        <pt x="312" y="-108" on="1"/>
        <pt x="-39" y="-108" on="1"/>
        <pt x="-33" y="-77" on="1"/>
        <pt x="318" y="-77" on="1"/>
      </contour>
    </TTGlyph>
    <TTGlyph name="dotaccent" xMin="185" yMin="507" xMax="259" yMax="575">
      <contour>
        <pt x="256" y="540" on="1"/>
        <pt x="253" y="526" on="0"/>
        <pt x="229" y="507" on="0"/>
        <pt x="214" y="507" on="1"/>
        <pt x="200" y="507" on="0"/>
        <pt x="185" y="526" on="0"/>
        <pt x="188" y="540" on="1"/>
        <pt x="191" y="554" on="0"/>
        <pt x="215" y="575" on="0"/>
        <pt x="229" y="575" on="1"/>
        <pt x="244" y="575" on="0"/>
        <pt x="259" y="554" on="0"/>
      </contour>
    </TTGlyph>
    <TTGlyph name="dotbelowcomb" xMin="6305" yMin="-106" xMax="6367" yMax="-49">
      <contour>
        <pt x="6365" y="-77" on="1"/>
        <pt x="6363" y="-89" on="0"/>
        <pt x="6343" y="-106" on="0"/>
        <pt x="6330" y="-106" on="1"/>
        <pt x="6318" y="-106" on="0"/>
        <pt x="6305" y="-89" on="0"/>
        <pt x="6307" y="-77" on="1"/>
        <pt x="6309" y="-67" on="0"/>
        <pt x="6330" y="-49" on="0"/>
        <pt x="6342" y="-49" on="1"/>
        <pt x="6355" y="-49" on="0"/>
        <pt x="6367" y="-67" on="0"/>
      </contour>
    </TTGlyph>
    <TTGlyph name="dotlessi" xMin="9" yMin="0" xMax="119" yMax="340">
      <contour>
        <pt x="47" y="0" on="1"/>
        <pt x="9" y="0" on="1"/>
        <pt x="81" y="340" on="1"/>
        <pt x="119" y="340" on="1"/>
      </contour>
    </TTGlyph>
    <TTGlyph name="dottedcircle" xMin="-26" yMin="22" xMax="339" yMax="387">
      <contour>
        <pt x="175" y="368" on="1"/>
        <pt x="175" y="360" on="0"/>
        <pt x="164" y="349" on="0"/>
        <pt x="156" y="349" on="1"/>
        <pt x="148" y="349" on="0"/>
        <pt x="137" y="360" on="0"/>
        <pt x="137" y="368" on="1"/>
        <pt x="137" y="376" on="0"/>
        <pt x="148" y="387" on="0"/>
        <pt x="156" y="387" on="1"/>
        <pt x="164" y="387" on="0"/>
        <pt x="175" y="376" on="0"/>
      </contour>
      <contour>
        <pt x="175" y="41" on="1"/>
        <pt x="175" y="33" on="0"/>
        <pt x="164" y="22" on="0"/>
        <pt x="156" y="22" on="1"/>
        <pt x="148" y="22" on="0"/>
        <pt x="137" y="33" on="0"/>
        <pt x="137" y="41" on="1"/>
        <pt x="137" y="49" on="0"/>
        <pt x="148" y="60" on="0"/>
        <pt x="156" y="60" on="1"/>
        <pt x="164" y="60" on="0"/>
        <pt x="175" y="49" on="0"/>
      </contour>
      <contour>
        <pt x="11" y="205" on="1"/>
        <pt x="11" y="197" on="0"/>
        <pt x="0" y="187" on="0"/>
        <pt x="-8" y="187" on="1"/>
        <pt x="-16" y="187" on="0"/>
        <pt x="-26" y="197" on="0"/>
        <pt x="-26" y="205" on="1"/>
        <pt x="-26" y="213" on="0"/>
        <pt x="-16" y="224" on="0"/>
        <pt x="-8" y="224" on="1"/>
        <pt x="0" y="224" on="0"/>
        <pt x="11" y="213" on="0"/>
      </contour>
      <contour>
        <pt x="339" y="205" on="1"/>
        <pt x="339" y="197" on="0"/>
        <pt x="328" y="187" on="0"/>
        <pt x="320" y="187" on="1"/>
        <pt x="312" y="187" on="0"/>
        <pt x="302" y="197" on="0"/>
        <pt x="302" y="205" on="1"/>
        <pt x="302" y="213" on="0"/>
        <pt x="312" y="224" on="0"/>
        <pt x="320" y="224" on="1"/>
        <pt x="328" y="224" on="0"/>
        <pt x="339" y="213" on="0"/>
      </contour>
      <contour>
        <pt x="24" y="266" on="1"/>
        <pt x="24" y="258" on="0"/>
        <pt x="13" y="248" on="0"/>
        <pt x="5" y="248" on="1"/>
        <pt x="-3" y="248" on="0"/>
        <pt x="-13" y="258" on="0"/>
        <pt x="-13" y="266" on="1"/>
        <pt x="-13" y="274" on="0"/>
        <pt x="-3" y="285" on="0"/>
        <pt x="5" y="285" on="1"/>
        <pt x="13" y="285" on="0"/>
        <pt x="24" y="274" on="0"/>
      </contour>
      <contour>
        <pt x="59" y="321" on="1"/>
        <pt x="59" y="313" on="0"/>
        <pt x="48" y="303" on="0"/>
        <pt x="40" y="303" on="1"/>
        <pt x="32" y="303" on="0"/>
        <pt x="22" y="313" on="0"/>
        <pt x="22" y="321" on="1"/>
        <pt x="22" y="329" on="0"/>
        <pt x="32" y="340" on="0"/>
        <pt x="40" y="340" on="1"/>
        <pt x="48" y="340" on="0"/>
        <pt x="59" y="329" on="0"/>
      </contour>
      <contour>
        <pt x="112" y="356" on="1"/>
        <pt x="112" y="348" on="0"/>
        <pt x="101" y="338" on="0"/>
        <pt x="93" y="338" on="1"/>
        <pt x="85" y="338" on="0"/>
        <pt x="75" y="348" on="0"/>
        <pt x="75" y="356" on="1"/>
        <pt x="75" y="364" on="0"/>
        <pt x="85" y="375" on="0"/>
        <pt x="93" y="375" on="1"/>
        <pt x="101" y="375" on="0"/>
        <pt x="112" y="364" on="0"/>
      </contour>
      <contour>
        <pt x="325" y="266" on="1"/>
        <pt x="325" y="258" on="0"/>
        <pt x="315" y="248" on="0"/>
        <pt x="307" y="248" on="1"/>
        <pt x="299" y="248" on="0"/>
        <pt x="288" y="258" on="0"/>
        <pt x="288" y="266" on="1"/>
        <pt x="288" y="274" on="0"/>
        <pt x="299" y="285" on="0"/>
        <pt x="307" y="285" on="1"/>
        <pt x="315" y="285" on="0"/>
        <pt x="325" y="274" on="0"/>
      </contour>
      <contour>
        <pt x="290" y="321" on="1"/>
        <pt x="290" y="313" on="0"/>
        <pt x="280" y="303" on="0"/>
        <pt x="272" y="303" on="1"/>
        <pt x="264" y="303" on="0"/>
        <pt x="253" y="313" on="0"/>
        <pt x="253" y="321" on="1"/>
        <pt x="253" y="329" on="0"/>
        <pt x="264" y="340" on="0"/>
        <pt x="272" y="340" on="1"/>
        <pt x="280" y="340" on="0"/>
        <pt x="290" y="329" on="0"/>
      </contour>
      <contour>
        <pt x="237" y="356" on="1"/>
        <pt x="237" y="348" on="0"/>
        <pt x="227" y="338" on="0"/>
        <pt x="219" y="338" on="1"/>
        <pt x="211" y="338" on="0"/>
        <pt x="200" y="348" on="0"/>
        <pt x="200" y="356" on="1"/>
        <pt x="200" y="364" on="0"/>
        <pt x="211" y="375" on="0"/>
        <pt x="219" y="375" on="1"/>
        <pt x="227" y="375" on="0"/>
        <pt x="237" y="364" on="0"/>
      </contour>
      <contour>
        <pt x="24" y="143" on="1"/>
        <pt x="24" y="135" on="0"/>
        <pt x="13" y="124" on="0"/>
        <pt x="5" y="124" on="1"/>
        <pt x="-3" y="124" on="0"/>
        <pt x="-13" y="135" on="0"/>
        <pt x="-13" y="143" on="1"/>
        <pt x="-13" y="151" on="0"/>
        <pt x="-3" y="161" on="0"/>
        <pt x="5" y="161" on="1"/>
        <pt x="13" y="161" on="0"/>
        <pt x="24" y="151" on="0"/>
      </contour>
      <contour>
        <pt x="59" y="88" on="1"/>
        <pt x="59" y="80" on="0"/>
        <pt x="48" y="69" on="0"/>
        <pt x="40" y="69" on="1"/>
        <pt x="32" y="69" on="0"/>
        <pt x="22" y="80" on="0"/>
        <pt x="22" y="88" on="1"/>
        <pt x="22" y="96" on="0"/>
        <pt x="32" y="106" on="0"/>
        <pt x="40" y="106" on="1"/>
        <pt x="48" y="106" on="0"/>
        <pt x="59" y="96" on="0"/>
      </contour>
      <contour>
        <pt x="112" y="53" on="1"/>
        <pt x="112" y="45" on="0"/>
        <pt x="101" y="34" on="0"/>
        <pt x="93" y="34" on="1"/>
        <pt x="85" y="34" on="0"/>
        <pt x="75" y="45" on="0"/>
        <pt x="75" y="53" on="1"/>
        <pt x="75" y="61" on="0"/>
        <pt x="85" y="71" on="0"/>
        <pt x="93" y="71" on="1"/>
        <pt x="101" y="71" on="0"/>
        <pt x="112" y="61" on="0"/>
      </contour>
      <contour>
        <pt x="326" y="143" on="1"/>
        <pt x="326" y="135" on="0"/>
        <pt x="316" y="124" on="0"/>
        <pt x="308" y="124" on="1"/>
        <pt x="300" y="124" on="0"/>
        <pt x="289" y="135" on="0"/>
        <pt x="289" y="143" on="1"/>
        <pt x="289" y="151" on="0"/>
        <pt x="300" y="161" on="0"/>
        <pt x="308" y="161" on="1"/>
        <pt x="316" y="161" on="0"/>
        <pt x="326" y="151" on="0"/>
      </contour>
      <contour>
        <pt x="291" y="88" on="1"/>
        <pt x="291" y="80" on="0"/>
        <pt x="281" y="69" on="0"/>
        <pt x="273" y="69" on="1"/>
        <pt x="265" y="69" on="0"/>
        <pt x="254" y="80" on="0"/>
        <pt x="254" y="88" on="1"/>
        <pt x="254" y="96" on="0"/>
        <pt x="265" y="106" on="0"/>
        <pt x="273" y="106" on="1"/>
        <pt x="281" y="106" on="0"/>
        <pt x="291" y="96" on="0"/>
      </contour>
      <contour>
        <pt x="238" y="53" on="1"/>
        <pt x="238" y="45" on="0"/>
        <pt x="228" y="34" on="0"/>
        <pt x="220" y="34" on="1"/>
        <pt x="212" y="34" on="0"/>
        <pt x="201" y="45" on="0"/>
        <pt x="201" y="53" on="1"/>
        <pt x="201" y="61" on="0"/>
        <pt x="212" y="71" on="0"/>
        <pt x="220" y="71" on="1"/>
        <pt x="228" y="71" on="0"/>
        <pt x="238" y="61" on="0"/>
      </contour>
    </TTGlyph>
    <TTGlyph name="e" xMin="13" yMin="-9" xMax="344" yMax="347">
      <contour>
        <pt x="344" y="253" on="1"/>
        <pt x="344" y="134" on="0"/>
        <pt x="141" y="134" on="1"/>
        <pt x="104" y="134" on="0"/>
        <pt x="54" y="138" on="1"/>
        <pt x="53" y="130" on="0"/>
        <pt x="53" y="123" on="1"/>
        <pt x="53" y="25" on="0"/>
        <pt x="167" y="25" on="1"/>
        <pt x="225" y="25" on="0"/>
        <pt x="291" y="48" on="1"/>
        <pt x="287" y="15" on="1"/>
        <pt x="224" y="-9" on="0"/>
        <pt x="156" y="-9" on="1"/>
        <pt x="91" y="-9" on="0"/>
        <pt x="13" y="61" on="0"/>
        <pt x="13" y="120" on="1"/>
        <pt x="13" y="215" on="0"/>
        <pt x="80" y="283" on="1"/>
        <pt x="144" y="347" on="0"/>
        <pt x="227" y="347" on="1"/>
        <pt x="344" y="347" on="0"/>
      </contour>
      <contour>
        <pt x="309" y="254" on="1"/>
        <pt x="309" y="316" on="0"/>
        <pt x="227" y="316" on="1"/>
        <pt x="176" y="316" on="0"/>
        <pt x="126" y="275" on="1"/>
        <pt x="73" y="231" on="0"/>
        <pt x="56" y="170" on="1"/>
        <pt x="97" y="167" on="0"/>
        <pt x="129" y="167" on="1"/>
        <pt x="309" y="167" on="0"/>
      </contour>
    </TTGlyph>
    <TTGlyph name="eacute" xMin="13" yMin="-9" xMax="2400" yMax="1297">
      <component glyphName="e" x="0" y="0" flags="0x204"/>
      <component glyphName="acutecomb" x="268" y="0" flags="0x4"/>
    </TTGlyph>
    <TTGlyph name="ecircumflex" xMin="13" yMin="-9" xMax="802" yMax="1150">
      <component glyphName="e" x="0" y="0" flags="0x204"/>
      <component glyphName="circumflex" x="52" y="0" flags="0x4"/>
    </TTGlyph>
    <TTGlyph name="edieresis" xMin="13" yMin="-9" xMax="818" yMax="1133">
      <component glyphName="e" x="0" y="0" flags="0x204"/>
      <component glyphName="dieresis" x="51" y="0" flags="0x4"/>
    </TTGlyph>
    <TTGlyph name="egrave" xMin="13" yMin="-9" xMax="1948" yMax="1161">
      <component glyphName="e" x="0" y="0" flags="0x204"/>
      <component glyphName="gravecomb" x="258" y="0" flags="0x4"/>
    </TTGlyph>
    <TTGlyph name="eight" xMin="3" yMin="-8" xMax="357" yMax="479">
      <contour>
        <pt x="271" y="125" on="1"/>
        <pt x="279" y="164" on="0"/>
        <pt x="240" y="235" on="0"/>
        <pt x="187" y="238" on="1"/>
        <pt x="133" y="235" on="0"/>
        <pt x="64" y="164" on="0"/>
        <pt x="56" y="125" on="1"/>
        <pt x="47" y="80" on="0"/>
        <pt x="96" y="27" on="0"/>
        <pt x="143" y="27" on="1"/>
        <pt x="189" y="27" on="0"/>
        <pt x="262" y="80" on="0"/>
      </contour>
      <contour>
        <pt x="306" y="361" on="1"/>
        <pt x="314" y="396" on="0"/>
        <pt x="273" y="442" on="0"/>
        <pt x="231" y="442" on="1"/>
        <pt x="188" y="442" on="0"/>
        <pt x="129" y="396" on="0"/>
        <pt x="121" y="361" on="1"/>
        <pt x="108" y="299" on="0"/>
        <pt x="195" y="276" on="1"/>
        <pt x="293" y="299" on="0"/>
      </contour>
      <contour>
        <pt x="312" y="128" on="1"/>
        <pt x="298" y="64" on="0"/>
        <pt x="203" y="-8" on="0"/>
        <pt x="135" y="-8" on="1"/>
        <pt x="68" y="-8" on="0"/>
        <pt x="3" y="64" on="0"/>
        <pt x="17" y="128" on="1"/>
        <pt x="27" y="177" on="0"/>
        <pt x="99" y="248" on="0"/>
        <pt x="145" y="257" on="1"/>
        <pt x="110" y="268" on="0"/>
        <pt x="74" y="325" on="0"/>
        <pt x="81" y="358" on="1"/>
        <pt x="92" y="411" on="0"/>
        <pt x="180" y="479" on="0"/>
        <pt x="239" y="479" on="1"/>
        <pt x="297" y="479" on="0"/>
        <pt x="357" y="411" on="0"/>
        <pt x="346" y="358" on="1"/>
        <pt x="339" y="325" on="0"/>
        <pt x="277" y="268" on="0"/>
        <pt x="238" y="257" on="1"/>
        <pt x="280" y="248" on="0"/>
        <pt x="322" y="177" on="0"/>
      </contour>
    </TTGlyph>
    <TTGlyph name="ellipsis" xMin="5" yMin="-6" xMax="399" yMax="63">
      <contour>
        <pt x="77" y="28" on="1"/>
        <pt x="74" y="14" on="0"/>
        <pt x="49" y="-6" on="0"/>
        <pt x="35" y="-6" on="1"/>
        <pt x="21" y="-6" on="0"/>
        <pt x="5" y="14" on="0"/>
        <pt x="8" y="28" on="1"/>
        <pt x="11" y="42" on="0"/>
        <pt x="36" y="63" on="0"/>
        <pt x="50" y="63" on="1"/>
        <pt x="64" y="63" on="0"/>
        <pt x="80" y="42" on="0"/>
      </contour>
      <contour>
        <pt x="237" y="28" on="1"/>
        <pt x="234" y="14" on="0"/>
        <pt x="209" y="-6" on="0"/>
        <pt x="195" y="-6" on="1"/>
        <pt x="181" y="-6" on="0"/>
        <pt x="165" y="14" on="0"/>
        <pt x="168" y="28" on="1"/>
        <pt x="171" y="42" on="0"/>
        <pt x="196" y="63" on="0"/>
        <pt x="210" y="63" on="1"/>
        <pt x="224" y="63" on="0"/>
        <pt x="240" y="42" on="0"/>
      </contour>
      <contour>
        <pt x="396" y="28" on="1"/>
        <pt x="393" y="14" on="0"/>
        <pt x="368" y="-6" on="0"/>
        <pt x="354" y="-6" on="1"/>
        <pt x="340" y="-6" on="0"/>
        <pt x="324" y="14" on="0"/>
        <pt x="327" y="28" on="1"/>
        <pt x="330" y="42" on="0"/>
        <pt x="355" y="63" on="0"/>
        <pt x="369" y="63" on="1"/>
        <pt x="383" y="63" on="0"/>
        <pt x="399" y="42" on="0"/>
      </contour>
    </TTGlyph>
    <TTGlyph name="emdash" xMin="14" yMin="165" xMax="694" yMax="198">
      <contour>
        <pt x="687" y="165" on="1"/>
        <pt x="14" y="165" on="1"/>
        <pt x="21" y="198" on="1"/>
        <pt x="694" y="198" on="1"/>
      </contour>
    </TTGlyph>
    <TTGlyph name="endash" xMin="13" yMin="165" xMax="337" yMax="198">
      <contour>
        <pt x="330" y="165" on="1"/>
        <pt x="13" y="165" on="1"/>
        <pt x="20" y="198" on="1"/>
        <pt x="337" y="198" on="1"/>
      </contour>
    </TTGlyph>
    <TTGlyph name="equal" xMin="33" yMin="102" xMax="369" yMax="265">
      <contour>
        <pt x="369" y="265" on="1"/>
        <pt x="362" y="232" on="1"/>
        <pt x="61" y="232" on="1"/>
        <pt x="68" y="265" on="1"/>
      </contour>
      <contour>
        <pt x="341" y="135" on="1"/>
        <pt x="334" y="102" on="1"/>
        <pt x="33" y="102" on="1"/>
        <pt x="40" y="135" on="1"/>
      </contour>
    </TTGlyph>
    <TTGlyph name="estimated" xMin="8" yMin="-7" xMax="297" yMax="384">
      <contour>
        <pt x="250" y="223" on="1"/>
        <pt x="258" y="286" on="0"/>
        <pt x="228" y="351" on="0"/>
        <pt x="190" y="351" on="1"/>
        <pt x="150" y="351" on="0"/>
        <pt x="94" y="286" on="0"/>
        <pt x="76" y="223" on="1"/>
      </contour>
      <contour>
        <pt x="254" y="103" on="1"/>
        <pt x="207" y="-7" on="0"/>
        <pt x="114" y="-7" on="1"/>
        <pt x="51" y="-7" on="0"/>
        <pt x="8" y="96" on="0"/>
        <pt x="30" y="200" on="1"/>
        <pt x="49" y="291" on="0"/>
        <pt x="143" y="384" on="0"/>
        <pt x="197" y="384" on="1"/>
        <pt x="257" y="384" on="0"/>
        <pt x="297" y="285" on="0"/>
        <pt x="280" y="194" on="1"/>
        <pt x="69" y="194" on="1"/>
        <pt x="52" y="106" on="0"/>
        <pt x="79" y="26" on="0"/>
        <pt x="121" y="26" on="1"/>
        <pt x="151" y="26" on="0"/>
        <pt x="203" y="66" on="0"/>
        <pt x="217" y="103" on="1"/>
      </contour>
    </TTGlyph>
    <TTGlyph name="eth" xMin="11" yMin="-12" xMax="339" yMax="480">
      <contour>
        <pt x="313" y="163" on="1"/>
        <pt x="298" y="90" on="0"/>
        <pt x="251" y="42" on="1"/>
        <pt x="199" y="-12" on="0"/>
        <pt x="128" y="-12" on="1"/>
        <pt x="65" y="-12" on="0"/>
        <pt x="11" y="76" on="0"/>
        <pt x="24" y="141" on="1"/>
        <pt x="38" y="204" on="0"/>
        <pt x="131" y="294" on="0"/>
        <pt x="190" y="294" on="1"/>
        <pt x="232" y="294" on="0"/>
        <pt x="260" y="274" on="1"/>
        <pt x="279" y="258" on="0"/>
        <pt x="281" y="244" on="1"/>
        <pt x="275" y="322" on="0"/>
        <pt x="226" y="380" on="1"/>
        <pt x="128" y="325" on="1"/>
        <pt x="116" y="352" on="1"/>
        <pt x="205" y="402" on="1"/>
        <pt x="167" y="436" on="0"/>
        <pt x="119" y="451" on="1"/>
        <pt x="129" y="480" on="1"/>
        <pt x="197" y="466" on="0"/>
        <pt x="242" y="423" on="1"/>
        <pt x="328" y="472" on="1"/>
        <pt x="339" y="445" on="1"/>
        <pt x="263" y="401" on="1"/>
        <pt x="276" y="386" on="0"/>
        <pt x="286" y="368" on="1"/>
        <pt x="338" y="278" on="0"/>
      </contour>
      <contour>
        <pt x="268" y="141" on="1"/>
        <pt x="279" y="191" on="0"/>
        <pt x="234" y="261" on="0"/>
        <pt x="191" y="261" on="1"/>
        <pt x="144" y="261" on="0"/>
        <pt x="75" y="191" on="0"/>
        <pt x="64" y="141" on="1"/>
        <pt x="54" y="92" on="0"/>
        <pt x="92" y="22" on="0"/>
        <pt x="140" y="22" on="1"/>
        <pt x="183" y="22" on="0"/>
        <pt x="258" y="92" on="0"/>
      </contour>
    </TTGlyph>
    <TTGlyph name="exclam" xMin="-2" yMin="-6" xMax="153" yMax="475">
      <contour>
        <pt x="70" y="120" on="1"/>
        <pt x="38" y="120" on="1"/>
        <pt x="106" y="475" on="1"/>
        <pt x="153" y="475" on="1"/>
      </contour>
      <contour>
        <pt x="69" y="28" on="1"/>
        <pt x="66" y="14" on="0"/>
        <pt x="41" y="-6" on="0"/>
        <pt x="27" y="-6" on="1"/>
        <pt x="13" y="-6" on="0"/>
        <pt x="-2" y="14" on="0"/>
        <pt x="0" y="28" on="1"/>
        <pt x="3" y="42" on="0"/>
        <pt x="28" y="63" on="0"/>
        <pt x="42" y="63" on="1"/>
        <pt x="56" y="63" on="0"/>
        <pt x="72" y="42" on="0"/>
      </contour>
    </TTGlyph>
    <TTGlyph name="exclamdown" xMin="-25" yMin="-140" xMax="136" yMax="341">
      <contour>
        <pt x="29" y="-140" on="1"/>
        <pt x="-25" y="-140" on="1"/>
        <pt x="58" y="208" on="1"/>
        <pt x="93" y="208" on="1"/>
      </contour>
      <contour>
        <pt x="133" y="304" on="1"/>
        <pt x="130" y="289" on="0"/>
        <pt x="103" y="267" on="0"/>
        <pt x="88" y="267" on="1"/>
        <pt x="73" y="267" on="0"/>
        <pt x="56" y="289" on="0"/>
        <pt x="59" y="304" on="1"/>
        <pt x="62" y="319" on="0"/>
        <pt x="89" y="341" on="0"/>
        <pt x="104" y="341" on="1"/>
        <pt x="119" y="341" on="0"/>
        <pt x="136" y="319" on="0"/>
      </contour>
    </TTGlyph>
    <TTGlyph name="f" xMin="-150" yMin="-156" xMax="303" yMax="513">
      <contour>
        <pt x="221" y="309" on="1"/>
        <pt x="123" y="309" on="1"/>
        <pt x="59" y="4" on="1"/>
        <pt x="24" y="-156" on="0"/>
        <pt x="-97" y="-156" on="1"/>
        <pt x="-135" y="-156" on="0"/>
        <pt x="-150" y="-140" on="1"/>
        <pt x="-133" y="-112" on="1"/>
        <pt x="-114" y="-123" on="0"/>
        <pt x="-87" y="-123" on="1"/>
        <pt x="-7" y="-123" on="0"/>
        <pt x="20" y="4" on="1"/>
        <pt x="84" y="309" on="1"/>
        <pt x="27" y="309" on="1"/>
        <pt x="34" y="340" on="1"/>
        <pt x="92" y="340" on="1"/>
        <pt x="95" y="353" on="1"/>
        <pt x="129" y="513" on="0"/>
        <pt x="250" y="513" on="1"/>
        <pt x="288" y="513" on="0"/>
        <pt x="303" y="497" on="1"/>
        <pt x="286" y="469" on="1"/>
        <pt x="267" y="480" on="0"/>
        <pt x="240" y="480" on="1"/>
        <pt x="160" y="480" on="0"/>
        <pt x="133" y="353" on="1"/>
        <pt x="130" y="340" on="1"/>
        <pt x="228" y="340" on="1"/>
      </contour>
    </TTGlyph>
    <TTGlyph name="fi" xMin="-152" yMin="-156" xMax="344" yMax="513">
      <contour>
        <pt x="252" y="0" on="1"/>
        <pt x="213" y="0" on="1"/>
        <pt x="278" y="309" on="1"/>
        <pt x="121" y="309" on="1"/>
        <pt x="57" y="4" on="1"/>
        <pt x="22" y="-156" on="0"/>
        <pt x="-99" y="-156" on="1"/>
        <pt x="-137" y="-156" on="0"/>
        <pt x="-152" y="-140" on="1"/>
        <pt x="-135" y="-112" on="1"/>
        <pt x="-116" y="-123" on="0"/>
        <pt x="-89" y="-123" on="1"/>
        <pt x="-9" y="-123" on="0"/>
        <pt x="18" y="4" on="1"/>
        <pt x="82" y="309" on="1"/>
        <pt x="32" y="309" on="1"/>
        <pt x="39" y="340" on="1"/>
        <pt x="89" y="340" on="1"/>
        <pt x="92" y="357" on="1"/>
        <pt x="107" y="428" on="0"/>
        <pt x="197" y="513" on="0"/>
        <pt x="265" y="513" on="1"/>
        <pt x="313" y="513" on="0"/>
        <pt x="344" y="486" on="1"/>
        <pt x="320" y="456" on="1"/>
        <pt x="288" y="480" on="0"/>
        <pt x="251" y="480" on="1"/>
        <pt x="158" y="480" on="0"/>
        <pt x="131" y="357" on="1"/>
        <pt x="128" y="340" on="1"/>
        <pt x="324" y="340" on="1"/>
      </contour>
    </TTGlyph>
    <TTGlyph name="five" xMin="-12" yMin="-8" xMax="360" yMax="475">
      <contour>
        <pt x="309" y="164" on="1"/>
        <pt x="293" y="87" on="0"/>
        <pt x="169" y="-8" on="0"/>
        <pt x="87" y="-8" on="1"/>
        <pt x="18" y="-8" on="0"/>
        <pt x="-12" y="29" on="1"/>
        <pt x="10" y="60" on="1"/>
        <pt x="22" y="51" on="0"/>
        <pt x="37" y="43" on="1"/>
        <pt x="62" y="30" on="0"/>
        <pt x="103" y="30" on="1"/>
        <pt x="157" y="30" on="0"/>
        <pt x="255" y="100" on="0"/>
        <pt x="268" y="163" on="1"/>
        <pt x="280" y="217" on="0"/>
        <pt x="249" y="244" on="1"/>
        <pt x="224" y="268" on="0"/>
        <pt x="176" y="268" on="1"/>
        <pt x="134" y="268" on="0"/>
        <pt x="102" y="235" on="1"/>
        <pt x="81" y="233" on="1"/>
        <pt x="147" y="475" on="1"/>
        <pt x="360" y="475" on="1"/>
        <pt x="345" y="437" on="1"/>
        <pt x="177" y="437" on="1"/>
        <pt x="138" y="296" on="1"/>
        <pt x="167" y="306" on="0"/>
        <pt x="197" y="306" on="1"/>
        <pt x="255" y="306" on="0"/>
        <pt x="288" y="270" on="1"/>
        <pt x="323" y="230" on="0"/>
      </contour>
    </TTGlyph>
    <TTGlyph name="fiveeighths" xMin="28" yMin="-9" xMax="507" yMax="467">
      <contour>
        <pt x="90" y="-9" on="1"/>
        <pt x="57" y="-9" on="1"/>
        <pt x="442" y="467" on="1"/>
        <pt x="475" y="467" on="1"/>
      </contour>
      <contour>
        <pt x="229" y="286" on="1"/>
        <pt x="219" y="239" on="0"/>
        <pt x="145" y="181" on="0"/>
        <pt x="94" y="181" on="1"/>
        <pt x="49" y="181" on="0"/>
        <pt x="28" y="209" on="1"/>
        <pt x="47" y="234" on="1"/>
        <pt x="61" y="224" on="0"/>
        <pt x="88" y="214" on="0"/>
        <pt x="105" y="214" on="1"/>
        <pt x="134" y="214" on="0"/>
        <pt x="188" y="252" on="0"/>
        <pt x="195" y="285" on="1"/>
        <pt x="200" y="310" on="0"/>
        <pt x="168" y="338" on="0"/>
        <pt x="144" y="338" on="1"/>
        <pt x="122" y="338" on="0"/>
        <pt x="103" y="318" on="1"/>
        <pt x="82" y="317" on="1"/>
        <pt x="123" y="466" on="1"/>
        <pt x="260" y="466" on="1"/>
        <pt x="249" y="435" on="1"/>
        <pt x="149" y="435" on="1"/>
        <pt x="130" y="370" on="1"/>
        <pt x="138" y="372" on="0"/>
        <pt x="151" y="372" on="0"/>
        <pt x="159" y="372" on="1"/>
        <pt x="199" y="372" on="0"/>
        <pt x="237" y="321" on="0"/>
      </contour>
      <contour>
        <pt x="447" y="75" on="1"/>
        <pt x="452" y="96" on="0"/>
        <pt x="431" y="131" on="0"/>
        <pt x="404" y="133" on="1"/>
        <pt x="375" y="131" on="0"/>
        <pt x="340" y="97" on="0"/>
        <pt x="335" y="75" on="1"/>
        <pt x="331" y="53" on="0"/>
        <pt x="356" y="26" on="0"/>
        <pt x="381" y="26" on="1"/>
        <pt x="405" y="26" on="0"/>
        <pt x="443" y="53" on="0"/>
      </contour>
      <contour>
        <pt x="467" y="209" on="1"/>
        <pt x="470" y="224" on="0"/>
        <pt x="450" y="249" on="0"/>
        <pt x="428" y="249" on="1"/>
        <pt x="406" y="249" on="0"/>
        <pt x="376" y="224" on="0"/>
        <pt x="373" y="209" on="1"/>
        <pt x="370" y="195" on="0"/>
        <pt x="390" y="172" on="0"/>
        <pt x="411" y="166" on="1"/>
        <pt x="434" y="171" on="0"/>
        <pt x="464" y="196" on="0"/>
      </contour>
      <contour>
        <pt x="481" y="77" on="1"/>
        <pt x="473" y="38" on="0"/>
        <pt x="416" y="-6" on="0"/>
        <pt x="374" y="-6" on="1"/>
        <pt x="333" y="-6" on="0"/>
        <pt x="295" y="38" on="0"/>
        <pt x="303" y="77" on="1"/>
        <pt x="308" y="101" on="0"/>
        <pt x="340" y="139" on="0"/>
        <pt x="361" y="151" on="1"/>
        <pt x="345" y="161" on="0"/>
        <pt x="336" y="190" on="0"/>
        <pt x="339" y="207" on="1"/>
        <pt x="347" y="240" on="0"/>
        <pt x="399" y="281" on="0"/>
        <pt x="435" y="281" on="1"/>
        <pt x="471" y="281" on="0"/>
        <pt x="507" y="240" on="0"/>
        <pt x="499" y="207" on="1"/>
        <pt x="496" y="190" on="0"/>
        <pt x="475" y="161" on="0"/>
        <pt x="456" y="151" on="1"/>
        <pt x="492" y="128" on="0"/>
      </contour>
    </TTGlyph>
    <TTGlyph name="fl" xMin="-152" yMin="-156" xMax="356" yMax="513">
      <contour>
        <pt x="348" y="27" on="1"/>
        <pt x="337" y="-7" on="1"/>
        <pt x="212" y="-1" on="0"/>
        <pt x="249" y="171" on="1"/>
        <pt x="312" y="470" on="1"/>
        <pt x="295" y="480" on="0"/>
        <pt x="266" y="480" on="1"/>
        <pt x="235" y="480" on="0"/>
        <pt x="188" y="459" on="0"/>
        <pt x="156" y="425" on="0"/>
        <pt x="136" y="379" on="0"/>
        <pt x="131" y="355" on="1"/>
        <pt x="128" y="340" on="1"/>
        <pt x="226" y="340" on="1"/>
        <pt x="219" y="309" on="1"/>
        <pt x="121" y="309" on="1"/>
        <pt x="57" y="4" on="1"/>
        <pt x="22" y="-156" on="0"/>
        <pt x="-99" y="-156" on="1"/>
        <pt x="-137" y="-156" on="0"/>
        <pt x="-152" y="-140" on="1"/>
        <pt x="-135" y="-112" on="1"/>
        <pt x="-116" y="-123" on="0"/>
        <pt x="-89" y="-123" on="1"/>
        <pt x="-9" y="-123" on="0"/>
        <pt x="18" y="4" on="1"/>
        <pt x="82" y="309" on="1"/>
        <pt x="32" y="309" on="1"/>
        <pt x="39" y="340" on="1"/>
        <pt x="89" y="340" on="1"/>
        <pt x="91" y="350" on="1"/>
        <pt x="108" y="431" on="0"/>
        <pt x="214" y="513" on="0"/>
        <pt x="281" y="513" on="1"/>
        <pt x="320" y="513" on="0"/>
        <pt x="356" y="493" on="1"/>
        <pt x="291" y="186" on="1"/>
        <pt x="276" y="113" on="0"/>
        <pt x="282" y="80" on="1"/>
        <pt x="290" y="28" on="0"/>
      </contour>
    </TTGlyph>
    <TTGlyph name="florin" xMin="-71" yMin="-72" xMax="460" yMax="462">
      <contour>
        <pt x="460" y="446" on="1"/>
        <pt x="437" y="418" on="1"/>
        <pt x="421" y="429" on="0"/>
        <pt x="393" y="429" on="1"/>
        <pt x="315" y="429" on="0"/>
        <pt x="259" y="302" on="1"/>
        <pt x="247" y="276" on="1"/>
        <pt x="345" y="276" on="1"/>
        <pt x="333" y="245" on="1"/>
        <pt x="235" y="245" on="1"/>
        <pt x="167" y="88" on="1"/>
        <pt x="98" y="-72" on="0"/>
        <pt x="-21" y="-72" on="1"/>
        <pt x="-59" y="-72" on="0"/>
        <pt x="-71" y="-56" on="1"/>
        <pt x="-48" y="-28" on="1"/>
        <pt x="-32" y="-39" on="0"/>
        <pt x="-4" y="-39" on="1"/>
        <pt x="73" y="-39" on="0"/>
        <pt x="128" y="88" on="1"/>
        <pt x="196" y="245" on="1"/>
        <pt x="139" y="245" on="1"/>
        <pt x="151" y="276" on="1"/>
        <pt x="209" y="276" on="1"/>
        <pt x="221" y="302" on="1"/>
        <pt x="292" y="462" on="0"/>
        <pt x="410" y="462" on="1"/>
        <pt x="448" y="462" on="0"/>
      </contour>
    </TTGlyph>
    <TTGlyph name="four" xMin="12" yMin="0" xMax="334" yMax="488">
      <contour>
        <pt x="222" y="148" on="1"/>
        <pt x="283" y="437" on="1"/>
        <pt x="207" y="403" on="0"/>
        <pt x="144" y="318" on="1"/>
        <pt x="84" y="237" on="0"/>
        <pt x="63" y="148" on="1"/>
      </contour>
      <contour>
        <pt x="320" y="111" on="1"/>
        <pt x="254" y="111" on="1"/>
        <pt x="231" y="0" on="1"/>
        <pt x="191" y="0" on="1"/>
        <pt x="214" y="111" on="1"/>
        <pt x="12" y="111" on="1"/>
        <pt x="46" y="260" on="0"/>
        <pt x="221" y="466" on="0"/>
        <pt x="334" y="488" on="1"/>
        <pt x="262" y="148" on="1"/>
        <pt x="333" y="148" on="1"/>
      </contour>
    </TTGlyph>
    <TTGlyph name="fraction" xMin="-79" yMin="0" xMax="256" yMax="476">
      <contour>
        <pt x="-43" y="0" on="1"/>
        <pt x="-79" y="0" on="1"/>
        <pt x="220" y="476" on="1"/>
        <pt x="256" y="476" on="1"/>
      </contour>
    </TTGlyph>
    <TTGlyph name="franc" xMin="-36" yMin="0" xMax="387" yMax="476">
      <contour>
        <pt x="209" y="94" on="1"/>
        <pt x="75" y="94" on="1"/>
        <pt x="56" y="0" on="1"/>
        <pt x="17" y="0" on="1"/>
        <pt x="36" y="94" on="1"/>
        <pt x="-36" y="94" on="1"/>
        <pt x="-29" y="125" on="1"/>
        <pt x="43" y="125" on="1"/>
        <pt x="118" y="476" on="1"/>
        <pt x="387" y="476" on="1"/>
        <pt x="380" y="443" on="1"/>
        <pt x="150" y="443" on="1"/>
        <pt x="111" y="262" on="1"/>
        <pt x="326" y="262" on="1"/>
        <pt x="319" y="229" on="1"/>
        <pt x="104" y="229" on="1"/>
        <pt x="82" y="125" on="1"/>
        <pt x="216" y="125" on="1"/>
      </contour>
    </TTGlyph>
    <TTGlyph name="g" xMin="-16" yMin="-157" xMax="312" yMax="341">
      <contour>
        <pt x="280" y="228" on="1"/>
        <pt x="268" y="172" on="0"/>
        <pt x="185" y="106" on="0"/>
        <pt x="134" y="106" on="1"/>
        <pt x="103" y="106" on="0"/>
        <pt x="83" y="117" on="1"/>
        <pt x="74" y="102" on="0"/>
        <pt x="71" y="88" on="1"/>
        <pt x="66" y="62" on="0"/>
        <pt x="142" y="39" on="1"/>
        <pt x="232" y="12" on="0"/>
        <pt x="217" y="-59" on="1"/>
        <pt x="208" y="-102" on="0"/>
        <pt x="134" y="-157" on="0"/>
        <pt x="74" y="-157" on="1"/>
        <pt x="21" y="-157" on="0"/>
        <pt x="-16" y="-130" on="1"/>
        <pt x="4" y="-98" on="1"/>
        <pt x="41" y="-123" on="0"/>
        <pt x="84" y="-123" on="1"/>
        <pt x="121" y="-123" on="0"/>
        <pt x="177" y="-89" on="0"/>
        <pt x="182" y="-62" on="1"/>
        <pt x="193" y="-14" on="0"/>
        <pt x="119" y="12" on="1"/>
        <pt x="74" y="27" on="0"/>
        <pt x="59" y="39" on="1"/>
        <pt x="32" y="58" on="0"/>
        <pt x="38" y="88" on="1"/>
        <pt x="42" y="106" on="0"/>
        <pt x="58" y="136" on="1"/>
        <pt x="30" y="176" on="0"/>
        <pt x="39" y="221" on="1"/>
        <pt x="51" y="275" on="0"/>
        <pt x="133" y="341" on="0"/>
        <pt x="179" y="341" on="1"/>
        <pt x="312" y="341" on="1"/>
        <pt x="305" y="309" on="1"/>
        <pt x="257" y="314" on="1"/>
        <pt x="290" y="274" on="0"/>
      </contour>
      <contour>
        <pt x="245" y="223" on="1"/>
        <pt x="252" y="256" on="0"/>
        <pt x="236" y="281" on="1"/>
        <pt x="219" y="311" on="0"/>
        <pt x="178" y="311" on="1"/>
        <pt x="138" y="311" on="0"/>
        <pt x="82" y="258" on="0"/>
        <pt x="75" y="222" on="1"/>
        <pt x="66" y="182" on="0"/>
        <pt x="88" y="158" on="1"/>
        <pt x="108" y="136" on="0"/>
        <pt x="140" y="136" on="1"/>
        <pt x="176" y="136" on="0"/>
        <pt x="236" y="182" on="0"/>
      </contour>
    </TTGlyph>
    <TTGlyph name="gbreve" xMin="-16" yMin="-157" xMax="964" yMax="1405">
      <component glyphName="g" x="0" y="0" flags="0x204"/>
      <component glyphName="breve" x="5" y="0" flags="0x4"/>
    </TTGlyph>
    <TTGlyph name="germandbls" xMin="-31" yMin="-148" xMax="370" yMax="487">
      <contour>
        <pt x="334" y="102" on="1"/>
        <pt x="324" y="53" on="0"/>
        <pt x="287" y="23" on="1"/>
        <pt x="248" y="-9" on="0"/>
        <pt x="190" y="-9" on="1"/>
        <pt x="141" y="-9" on="0"/>
        <pt x="109" y="11" on="1"/>
        <pt x="128" y="44" on="1"/>
        <pt x="162" y="24" on="0"/>
        <pt x="198" y="24" on="1"/>
        <pt x="238" y="24" on="0"/>
        <pt x="290" y="65" on="0"/>
        <pt x="297" y="96" on="1"/>
        <pt x="304" y="130" on="0"/>
        <pt x="221" y="219" on="0"/>
        <pt x="229" y="257" on="1"/>
        <pt x="235" y="284" on="0"/>
        <pt x="317" y="349" on="0"/>
        <pt x="321" y="369" on="1"/>
        <pt x="338" y="451" on="0"/>
        <pt x="251" y="451" on="1"/>
        <pt x="151" y="451" on="0"/>
        <pt x="117" y="287" on="1"/>
        <pt x="44" y="-54" on="1"/>
        <pt x="33" y="-108" on="0"/>
        <pt x="2" y="-148" on="1"/>
        <pt x="-31" y="-138" on="1"/>
        <pt x="-4" y="-99" on="0"/>
        <pt x="5" y="-54" on="1"/>
        <pt x="81" y="304" on="1"/>
        <pt x="120" y="487" on="0"/>
        <pt x="266" y="487" on="1"/>
        <pt x="316" y="487" on="0"/>
        <pt x="370" y="424" on="0"/>
        <pt x="358" y="371" on="1"/>
        <pt x="350" y="331" on="0"/>
        <pt x="272" y="277" on="0"/>
        <pt x="267" y="254" on="1"/>
        <pt x="264" y="237" on="0"/>
        <pt x="318" y="179" on="0"/>
        <pt x="322" y="169" on="1"/>
        <pt x="341" y="134" on="0"/>
      </contour>
    </TTGlyph>
    <TTGlyph name="grave" xMin="116" yMin="390" xMax="187" yMax="481">
      <contour>
        <pt x="187" y="390" on="1"/>
        <pt x="156" y="390" on="1"/>
        <pt x="116" y="471" on="1"/>
        <pt x="157" y="481" on="1"/>
      </contour>
    </TTGlyph>
    <TTGlyph name="gravecomb" xMin="5114" yMin="1868" xMax="5148" yMax="1912">
      <contour>
        <pt x="5148" y="1868" on="1"/>
        <pt x="5133" y="1868" on="1"/>
        <pt x="5114" y="1907" on="1"/>
        <pt x="5134" y="1912" on="1"/>
      </contour>
    </TTGlyph>
    <TTGlyph name="greater" xMin="0" yMin="-2" xMax="365" yMax="377">
      <contour>
        <pt x="365" y="201" on="1"/>
        <pt x="359" y="174" on="1"/>
        <pt x="0" y="-2" on="1"/>
        <pt x="8" y="36" on="1"/>
        <pt x="322" y="188" on="1"/>
        <pt x="73" y="340" on="1"/>
        <pt x="81" y="377" on="1"/>
      </contour>
    </TTGlyph>
    <TTGlyph name="greaterequal" xMin="17" yMin="16" xMax="333" yMax="341">
      <contour>
        <pt x="313" y="16" on="1"/>
        <pt x="17" y="16" on="1"/>
        <pt x="23" y="46" on="1"/>
        <pt x="319" y="46" on="1"/>
      </contour>
      <contour>
        <pt x="323" y="175" on="1"/>
        <pt x="46" y="56" on="1"/>
        <pt x="54" y="93" on="1"/>
        <pt x="293" y="198" on="1"/>
        <pt x="99" y="303" on="1"/>
        <pt x="107" y="341" on="1"/>
        <pt x="333" y="222" on="1"/>
      </contour>
    </TTGlyph>
    <TTGlyph name="guillemotleft" xMin="5" yMin="48" xMax="296" yMax="309">
      <contour>
        <pt x="200" y="48" on="1"/>
        <pt x="116" y="177" on="1"/>
        <pt x="254" y="309" on="1"/>
        <pt x="296" y="309" on="1"/>
        <pt x="158" y="177" on="1"/>
        <pt x="242" y="48" on="1"/>
      </contour>
      <contour>
        <pt x="89" y="48" on="1"/>
        <pt x="5" y="177" on="1"/>
        <pt x="143" y="309" on="1"/>
        <pt x="185" y="309" on="1"/>
        <pt x="47" y="177" on="1"/>
        <pt x="131" y="48" on="1"/>
      </contour>
    </TTGlyph>
    <TTGlyph name="guillemotright" xMin="-13" yMin="48" xMax="277" yMax="309">
      <contour>
        <pt x="28" y="48" on="1"/>
        <pt x="-13" y="48" on="1"/>
        <pt x="124" y="177" on="1"/>
        <pt x="42" y="309" on="1"/>
        <pt x="84" y="309" on="1"/>
        <pt x="166" y="177" on="1"/>
      </contour>
      <contour>
        <pt x="139" y="48" on="1"/>
        <pt x="97" y="48" on="1"/>
        <pt x="235" y="177" on="1"/>
        <pt x="153" y="309" on="1"/>
        <pt x="195" y="309" on="1"/>
        <pt x="277" y="177" on="1"/>
      </contour>
    </TTGlyph>
    <TTGlyph name="guilsinglleft" xMin="5" yMin="48" xMax="185" yMax="309">
      <contour>
        <pt x="89" y="48" on="1"/>
        <pt x="5" y="177" on="1"/>
        <pt x="143" y="309" on="1"/>
        <pt x="185" y="309" on="1"/>
        <pt x="47" y="177" on="1"/>
        <pt x="131" y="48" on="1"/>
      </contour>
    </TTGlyph>
    <TTGlyph name="guilsinglright" xMin="-13" yMin="48" xMax="166" yMax="309">
      <contour>
        <pt x="28" y="48" on="1"/>
        <pt x="-13" y="48" on="1"/>
        <pt x="124" y="177" on="1"/>
        <pt x="42" y="309" on="1"/>
        <pt x="84" y="309" on="1"/>
        <pt x="166" y="177" on="1"/>
      </contour>
    </TTGlyph>
    <TTGlyph name="h" xMin="9" yMin="-7" xMax="368" yMax="505">
      <contour>
        <pt x="312" y="1" on="1"/>
        <pt x="273" y="-7" on="1"/>
        <pt x="262" y="27" on="0"/>
        <pt x="269" y="60" on="1"/>
        <pt x="297" y="193" on="1"/>
        <pt x="322" y="315" on="0"/>
        <pt x="220" y="315" on="1"/>
        <pt x="179" y="315" on="0"/>
        <pt x="100" y="246" on="0"/>
        <pt x="91" y="206" on="1"/>
        <pt x="48" y="0" on="1"/>
        <pt x="9" y="0" on="1"/>
        <pt x="116" y="505" on="1"/>
        <pt x="155" y="505" on="1"/>
        <pt x="107" y="279" on="1"/>
        <pt x="162" y="347" on="0"/>
        <pt x="235" y="347" on="1"/>
        <pt x="368" y="347" on="0"/>
        <pt x="336" y="193" on="1"/>
        <pt x="309" y="69" on="1"/>
        <pt x="301" y="27" on="0"/>
      </contour>
    </TTGlyph>
    <TTGlyph name="hookabovecomb" xMin="4607" yMin="1508" xMax="4638" yMax="1543">
      <contour>
        <pt x="4636" y="1528" on="1"/>
        <pt x="4634" y="1521" on="0"/>
        <pt x="4620" y="1512" on="0"/>
        <pt x="4619" y="1508" on="1"/>
        <pt x="4612" y="1508" on="1"/>
        <pt x="4614" y="1514" on="0"/>
        <pt x="4629" y="1524" on="0"/>
        <pt x="4630" y="1528" on="1"/>
        <pt x="4630" y="1531" on="0"/>
        <pt x="4626" y="1536" on="0"/>
        <pt x="4623" y="1536" on="1"/>
        <pt x="4617" y="1536" on="0"/>
        <pt x="4611" y="1528" on="1"/>
        <pt x="4607" y="1533" on="1"/>
        <pt x="4614" y="1543" on="0"/>
        <pt x="4624" y="1543" on="1"/>
        <pt x="4631" y="1543" on="0"/>
        <pt x="4638" y="1536" on="0"/>
      </contour>
    </TTGlyph>
    <TTGlyph name="hungarumlaut" xMin="69" yMin="330" xMax="296" yMax="491">
      <contour>
        <pt x="183" y="330" on="1"/>
        <pt x="156" y="330" on="1"/>
        <pt x="249" y="491" on="1"/>
        <pt x="296" y="491" on="1"/>
      </contour>
      <contour>
        <pt x="96" y="330" on="1"/>
        <pt x="69" y="330" on="1"/>
        <pt x="162" y="491" on="1"/>
        <pt x="209" y="491" on="1"/>
      </contour>
    </TTGlyph>
    <TTGlyph name="hyphen" xMin="5" yMin="165" xMax="193" yMax="198">
      <contour>
        <pt x="179" y="165" on="1"/>
        <pt x="5" y="165" on="1"/>
        <pt x="19" y="198" on="1"/>
        <pt x="193" y="198" on="1"/>
      </contour>
    </TTGlyph>
    <TTGlyph name="i" xMin="9" yMin="0" xMax="156" yMax="475">
      <contour>
        <pt x="48" y="0" on="1"/>
        <pt x="9" y="0" on="1"/>
        <pt x="81" y="340" on="1"/>
        <pt x="120" y="340" on="1"/>
      </contour>
      <contour>
        <pt x="153" y="443" on="1"/>
        <pt x="150" y="429" on="0"/>
        <pt x="128" y="412" on="0"/>
        <pt x="114" y="412" on="1"/>
        <pt x="100" y="412" on="0"/>
        <pt x="87" y="429" on="0"/>
        <pt x="90" y="443" on="1"/>
        <pt x="93" y="457" on="0"/>
        <pt x="113" y="475" on="0"/>
        <pt x="127" y="475" on="1"/>
        <pt x="141" y="475" on="0"/>
        <pt x="156" y="457" on="0"/>
      </contour>
    </TTGlyph>
    <TTGlyph name="iacute" xMin="9" yMin="0" xMax="2553" yMax="1297">
      <component glyphName="dotlessi" x="0" y="0" flags="0x204"/>
      <component glyphName="acutecomb" x="153" y="0" flags="0x4"/>
    </TTGlyph>
    <TTGlyph name="icircumflex" xMin="9" yMin="0" xMax="744" yMax="1150">
      <component glyphName="dotlessi" x="0" y="0" flags="0x204"/>
      <component glyphName="circumflex" x="-58" y="0" flags="0x4"/>
    </TTGlyph>
    <TTGlyph name="idieresis" xMin="9" yMin="0" xMax="759" yMax="1133">
      <component glyphName="dotlessi" x="0" y="0" flags="0x204"/>
      <component glyphName="dieresis" x="-59" y="0" flags="0x4"/>
    </TTGlyph>
    <TTGlyph name="igrave" xMin="9" yMin="0" xMax="2091" yMax="1161">
      <component glyphName="dotlessi" x="0" y="0" flags="0x204"/>
      <component glyphName="gravecomb" x="143" y="0" flags="0x4"/>
    </TTGlyph>
    <TTGlyph name="infinity" xMin="45" yMin="107" xMax="577" yMax="325">
      <contour>
        <pt x="290" y="221" on="1"/>
        <pt x="238" y="297" on="0"/>
        <pt x="188" y="297" on="1"/>
        <pt x="146" y="297" on="0"/>
        <pt x="94" y="251" on="0"/>
        <pt x="87" y="220" on="1"/>
        <pt x="79" y="183" on="0"/>
        <pt x="113" y="136" on="0"/>
        <pt x="154" y="136" on="1"/>
        <pt x="188" y="136" on="0"/>
        <pt x="266" y="189" on="0"/>
      </contour>
      <contour>
        <pt x="566" y="210" on="1"/>
        <pt x="557" y="167" on="0"/>
        <pt x="487" y="107" on="0"/>
        <pt x="430" y="107" on="1"/>
        <pt x="359" y="107" on="0"/>
        <pt x="304" y="198" on="1"/>
        <pt x="224" y="107" on="0"/>
        <pt x="147" y="107" on="1"/>
        <pt x="95" y="107" on="0"/>
        <pt x="45" y="169" on="0"/>
        <pt x="57" y="222" on="1"/>
        <pt x="66" y="265" on="0"/>
        <pt x="136" y="325" on="0"/>
        <pt x="193" y="325" on="1"/>
        <pt x="258" y="325" on="0"/>
        <pt x="318" y="235" on="1"/>
        <pt x="400" y="325" on="0"/>
        <pt x="476" y="325" on="1"/>
        <pt x="528" y="325" on="0"/>
        <pt x="577" y="263" on="0"/>
      </contour>
      <contour>
        <pt x="536" y="212" on="1"/>
        <pt x="543" y="249" on="0"/>
        <pt x="509" y="296" on="0"/>
        <pt x="468" y="296" on="1"/>
        <pt x="434" y="296" on="0"/>
        <pt x="357" y="243" on="0"/>
        <pt x="332" y="211" on="1"/>
        <pt x="385" y="135" on="0"/>
        <pt x="435" y="135" on="1"/>
        <pt x="477" y="135" on="0"/>
        <pt x="529" y="181" on="0"/>
      </contour>
    </TTGlyph>
    <TTGlyph name="integral" xMin="-102" yMin="-103" xMax="303" yMax="482">
      <contour>
        <pt x="42" y="-11" on="1"/>
        <pt x="8" y="-103" on="0"/>
        <pt x="-62" y="-103" on="1"/>
        <pt x="-86" y="-103" on="0"/>
        <pt x="-102" y="-98" on="1"/>
        <pt x="-91" y="-66" on="1"/>
        <pt x="-80" y="-71" on="0"/>
        <pt x="-56" y="-70" on="1"/>
        <pt x="-14" y="-67" on="0"/>
        <pt x="6" y="-16" on="1"/>
        <pt x="157" y="393" on="1"/>
        <pt x="189" y="482" on="0"/>
        <pt x="269" y="482" on="1"/>
        <pt x="290" y="482" on="0"/>
        <pt x="303" y="479" on="1"/>
        <pt x="290" y="448" on="1"/>
        <pt x="285" y="449" on="0"/>
        <pt x="274" y="449" on="1"/>
        <pt x="244" y="449" on="0"/>
        <pt x="204" y="424" on="0"/>
        <pt x="192" y="391" on="1"/>
      </contour>
    </TTGlyph>
    <TTGlyph name="itilde" xMin="9" yMin="0" xMax="7062" yMax="2909">
      <component glyphName="dotlessi" x="0" y="0" flags="0x204"/>
      <component glyphName="tildecomb" x="147" y="0" flags="0x4"/>
    </TTGlyph>
    <TTGlyph name="j" xMin="-112" yMin="-148" xMax="168" yMax="475">
      <contour>
        <pt x="61" y="7" on="1"/>
        <pt x="27" y="-145" on="0"/>
        <pt x="-112" y="-148" on="1"/>
        <pt x="-109" y="-117" on="1"/>
        <pt x="-39" y="-111" on="0"/>
        <pt x="-8" y="-69" on="1"/>
        <pt x="12" y="-40" on="0"/>
        <pt x="24" y="18" on="1"/>
        <pt x="93" y="340" on="1"/>
        <pt x="132" y="340" on="1"/>
      </contour>
      <contour>
        <pt x="165" y="443" on="1"/>
        <pt x="162" y="429" on="0"/>
        <pt x="140" y="412" on="0"/>
        <pt x="126" y="412" on="1"/>
        <pt x="112" y="412" on="0"/>
        <pt x="99" y="429" on="0"/>
        <pt x="102" y="443" on="1"/>
        <pt x="105" y="457" on="0"/>
        <pt x="125" y="475" on="0"/>
        <pt x="139" y="475" on="1"/>
        <pt x="153" y="475" on="0"/>
        <pt x="168" y="457" on="0"/>
      </contour>
    </TTGlyph>
    <TTGlyph name="k" xMin="9" yMin="-10" xMax="328" yMax="505">
      <contour>
        <pt x="284" y="1" on="1"/>
        <pt x="242" y="-10" on="1"/>
        <pt x="120" y="177" on="1"/>
        <pt x="78" y="143" on="1"/>
        <pt x="48" y="0" on="1"/>
        <pt x="9" y="0" on="1"/>
        <pt x="116" y="505" on="1"/>
        <pt x="155" y="505" on="1"/>
        <pt x="87" y="187" on="1"/>
        <pt x="290" y="345" on="1"/>
        <pt x="328" y="337" on="1"/>
        <pt x="153" y="199" on="1"/>
      </contour>
    </TTGlyph>
    <TTGlyph name="l" xMin="8" yMin="-7" xMax="155" yMax="505">
      <contour>
        <pt x="144" y="27" on="1"/>
        <pt x="133" y="-7" on="1"/>
        <pt x="8" y="-1" on="0"/>
        <pt x="45" y="171" on="1"/>
        <pt x="116" y="505" on="1"/>
        <pt x="155" y="505" on="1"/>
        <pt x="87" y="186" on="1"/>
        <pt x="72" y="113" on="0"/>
        <pt x="78" y="80" on="1"/>
        <pt x="86" y="28" on="0"/>
      </contour>
    </TTGlyph>
    <TTGlyph name="lefttorightmark" xMin="-14" yMin="-154" xMax="163" yMax="382">
      <contour>
        <pt x="15" y="-154" on="1"/>
        <pt x="-14" y="-154" on="1"/>
        <pt x="-14" y="348" on="1"/>
        <pt x="112" y="348" on="1"/>
        <pt x="95" y="366" on="1"/>
        <pt x="111" y="382" on="1"/>
        <pt x="163" y="330" on="1"/>
        <pt x="111" y="278" on="1"/>
        <pt x="95" y="295" on="1"/>
        <pt x="112" y="313" on="1"/>
        <pt x="15" y="313" on="1"/>
      </contour>
    </TTGlyph>
    <TTGlyph name="less" xMin="37" yMin="-2" xMax="403" yMax="377">
      <contour>
        <pt x="330" y="36" on="1"/>
        <pt x="322" y="-2" on="1"/>
        <pt x="37" y="174" on="1"/>
        <pt x="43" y="201" on="1"/>
        <pt x="403" y="377" on="1"/>
        <pt x="395" y="340" on="1"/>
        <pt x="80" y="187" on="1"/>
      </contour>
    </TTGlyph>
    <TTGlyph name="lessequal" xMin="17" yMin="16" xMax="358" yMax="341">
      <contour>
        <pt x="313" y="16" on="1"/>
        <pt x="17" y="16" on="1"/>
        <pt x="23" y="46" on="1"/>
        <pt x="319" y="46" on="1"/>
      </contour>
      <contour>
        <pt x="297" y="56" on="1"/>
        <pt x="72" y="175" on="1"/>
        <pt x="82" y="222" on="1"/>
        <pt x="358" y="341" on="1"/>
        <pt x="350" y="303" on="1"/>
        <pt x="112" y="198" on="1"/>
        <pt x="305" y="93" on="1"/>
      </contour>
    </TTGlyph>
    <TTGlyph name="logicalnot" xMin="43" yMin="91" xMax="407" yMax="272">
      <contour>
        <pt x="407" y="91" on="1"/>
        <pt x="368" y="91" on="1"/>
        <pt x="368" y="239" on="1"/>
        <pt x="43" y="239" on="1"/>
        <pt x="43" y="272" on="1"/>
        <pt x="407" y="272" on="1"/>
      </contour>
    </TTGlyph>
    <TTGlyph name="lozenge" xMin="32" yMin="0" xMax="352" yMax="398">
      <contour>
        <pt x="352" y="198" on="1"/>
        <pt x="171" y="0" on="1"/>
        <pt x="129" y="0" on="1"/>
        <pt x="32" y="198" on="1"/>
        <pt x="213" y="398" on="1"/>
        <pt x="255" y="398" on="1"/>
      </contour>
      <contour>
        <pt x="319" y="198" on="1"/>
        <pt x="230" y="380" on="1"/>
        <pt x="65" y="198" on="1"/>
        <pt x="153" y="16" on="1"/>
      </contour>
    </TTGlyph>
    <TTGlyph name="lslash" xMin="16" yMin="-7" xMax="194" yMax="505">
      <contour>
        <pt x="194" y="268" on="1"/>
        <pt x="187" y="233" on="1"/>
        <pt x="99" y="206" on="1"/>
        <pt x="95" y="186" on="1"/>
        <pt x="79" y="112" on="0"/>
        <pt x="86" y="80" on="1"/>
        <pt x="94" y="29" on="0"/>
        <pt x="152" y="27" on="1"/>
        <pt x="141" y="-7" on="1"/>
        <pt x="16" y="-1" on="0"/>
        <pt x="53" y="171" on="1"/>
        <pt x="58" y="194" on="1"/>
        <pt x="23" y="184" on="1"/>
        <pt x="20" y="215" on="1"/>
        <pt x="65" y="228" on="1"/>
        <pt x="124" y="505" on="1"/>
        <pt x="163" y="505" on="1"/>
        <pt x="107" y="241" on="1"/>
      </contour>
    </TTGlyph>
    <TTGlyph name="m" xMin="9" yMin="-7" xMax="561" yMax="347">
      <contour>
        <pt x="520" y="69" on="1"/>
        <pt x="512" y="27" on="0"/>
        <pt x="523" y="1" on="1"/>
        <pt x="484" y="-7" on="1"/>
        <pt x="473" y="27" on="0"/>
        <pt x="480" y="60" on="1"/>
        <pt x="506" y="188" on="1"/>
        <pt x="519" y="246" on="0"/>
        <pt x="486" y="315" on="0"/>
        <pt x="441" y="315" on="1"/>
        <pt x="402" y="315" on="0"/>
        <pt x="330" y="254" on="0"/>
        <pt x="322" y="216" on="1"/>
        <pt x="277" y="0" on="1"/>
        <pt x="238" y="0" on="1"/>
        <pt x="281" y="206" on="1"/>
        <pt x="304" y="315" on="0"/>
        <pt x="218" y="315" on="1"/>
        <pt x="178" y="315" on="0"/>
        <pt x="100" y="246" on="0"/>
        <pt x="91" y="206" on="1"/>
        <pt x="48" y="0" on="1"/>
        <pt x="9" y="0" on="1"/>
        <pt x="66" y="270" on="1"/>
        <pt x="74" y="312" on="0"/>
        <pt x="63" y="338" on="1"/>
        <pt x="102" y="346" on="1"/>
        <pt x="113" y="312" on="0"/>
        <pt x="106" y="279" on="1"/>
        <pt x="159" y="347" on="0"/>
        <pt x="234" y="347" on="1"/>
        <pt x="303" y="347" on="0"/>
        <pt x="321" y="271" on="1"/>
        <pt x="377" y="347" on="0"/>
        <pt x="459" y="347" on="1"/>
        <pt x="515" y="347" on="0"/>
        <pt x="561" y="262" on="0"/>
        <pt x="546" y="189" on="1"/>
      </contour>
    </TTGlyph>
    <TTGlyph name="macron" xMin="69" yMin="528" xMax="427" yMax="559">
      <contour>
        <pt x="427" y="559" on="1"/>
        <pt x="421" y="528" on="1"/>
        <pt x="69" y="528" on="1"/>
        <pt x="75" y="559" on="1"/>
      </contour>
    </TTGlyph>
    <TTGlyph name="minus" xMin="47" yMin="165" xMax="355" yMax="198">
      <contour>
        <pt x="348" y="165" on="1"/>
        <pt x="47" y="165" on="1"/>
        <pt x="54" y="198" on="1"/>
        <pt x="355" y="198" on="1"/>
      </contour>
    </TTGlyph>
    <TTGlyph name="minute" xMin="50" yMin="371" xMax="166" yMax="476">
      <contour>
        <pt x="77" y="371" on="1"/>
        <pt x="50" y="371" on="1"/>
        <pt x="111" y="476" on="1"/>
        <pt x="166" y="476" on="1"/>
      </contour>
    </TTGlyph>
    <TTGlyph name="mu" xMin="-15" yMin="-140" xMax="380" yMax="340">
      <contour>
        <pt x="325" y="83" on="1"/>
        <pt x="318" y="46" on="0"/>
        <pt x="326" y="1" on="1"/>
        <pt x="287" y="-7" on="1"/>
        <pt x="282" y="27" on="0"/>
        <pt x="286" y="63" on="1"/>
        <pt x="214" y="-9" on="0"/>
        <pt x="143" y="-9" on="1"/>
        <pt x="85" y="-9" on="0"/>
        <pt x="60" y="42" on="1"/>
        <pt x="22" y="-140" on="1"/>
        <pt x="-15" y="-140" on="1"/>
        <pt x="86" y="340" on="1"/>
        <pt x="124" y="340" on="1"/>
        <pt x="83" y="146" on="1"/>
        <pt x="57" y="25" on="0"/>
        <pt x="159" y="25" on="1"/>
        <pt x="203" y="25" on="0"/>
        <pt x="289" y="92" on="0"/>
        <pt x="298" y="133" on="1"/>
        <pt x="342" y="340" on="1"/>
        <pt x="380" y="340" on="1"/>
      </contour>
    </TTGlyph>
    <TTGlyph name="multiply" xMin="11" yMin="11" xMax="386" yMax="337">
      <contour>
        <pt x="296" y="11" on="1"/>
        <pt x="193" y="149" on="1"/>
        <pt x="32" y="11" on="1"/>
        <pt x="11" y="35" on="1"/>
        <pt x="172" y="174" on="1"/>
        <pt x="70" y="313" on="1"/>
        <pt x="101" y="337" on="1"/>
        <pt x="204" y="199" on="1"/>
        <pt x="365" y="337" on="1"/>
        <pt x="386" y="313" on="1"/>
        <pt x="224" y="174" on="1"/>
        <pt x="327" y="35" on="1"/>
      </contour>
    </TTGlyph>
    <TTGlyph name="n" xMin="9" yMin="-7" xMax="368" yMax="347">
      <contour>
        <pt x="310" y="69" on="1"/>
        <pt x="302" y="27" on="0"/>
        <pt x="313" y="1" on="1"/>
        <pt x="274" y="-7" on="1"/>
        <pt x="263" y="27" on="0"/>
        <pt x="270" y="60" on="1"/>
        <pt x="297" y="193" on="1"/>
        <pt x="322" y="315" on="0"/>
        <pt x="220" y="315" on="1"/>
        <pt x="179" y="315" on="0"/>
        <pt x="100" y="246" on="0"/>
        <pt x="91" y="206" on="1"/>
        <pt x="48" y="0" on="1"/>
        <pt x="9" y="0" on="1"/>
        <pt x="66" y="270" on="1"/>
        <pt x="74" y="312" on="0"/>
        <pt x="63" y="338" on="1"/>
        <pt x="102" y="346" on="1"/>
        <pt x="113" y="312" on="0"/>
        <pt x="106" y="279" on="1"/>
        <pt x="159" y="347" on="0"/>
        <pt x="235" y="347" on="1"/>
        <pt x="368" y="347" on="0"/>
        <pt x="336" y="193" on="1"/>
      </contour>
    </TTGlyph>
    <TTGlyph name="nine" xMin="24" yMin="-12" xMax="359" yMax="480">
      <contour>
        <pt x="343" y="305" on="1"/>
        <pt x="319" y="190" on="0"/>
        <pt x="138" y="9" on="0"/>
        <pt x="24" y="-12" on="1"/>
        <pt x="27" y="17" on="1"/>
        <pt x="98" y="36" on="0"/>
        <pt x="164" y="88" on="1"/>
        <pt x="239" y="146" on="0"/>
        <pt x="279" y="226" on="1"/>
        <pt x="271" y="211" on="0"/>
        <pt x="243" y="194" on="1"/>
        <pt x="206" y="174" on="0"/>
        <pt x="164" y="174" on="1"/>
        <pt x="105" y="174" on="0"/>
        <pt x="51" y="264" on="0"/>
        <pt x="64" y="327" on="1"/>
        <pt x="78" y="392" on="0"/>
        <pt x="170" y="480" on="0"/>
        <pt x="233" y="480" on="1"/>
        <pt x="304" y="480" on="0"/>
        <pt x="333" y="426" on="1"/>
        <pt x="359" y="378" on="0"/>
      </contour>
      <contour>
        <pt x="308" y="327" on="1"/>
        <pt x="318" y="376" on="0"/>
        <pt x="273" y="446" on="0"/>
        <pt x="230" y="446" on="1"/>
        <pt x="182" y="446" on="0"/>
        <pt x="114" y="376" on="0"/>
        <pt x="104" y="327" on="1"/>
        <pt x="93" y="277" on="0"/>
        <pt x="132" y="207" on="0"/>
        <pt x="179" y="207" on="1"/>
        <pt x="222" y="207" on="0"/>
        <pt x="297" y="277" on="0"/>
      </contour>
    </TTGlyph>
    <TTGlyph name="notequal" xMin="33" yMin="-9" xMax="369" yMax="354">
      <contour>
        <pt x="341" y="135" on="1"/>
        <pt x="334" y="102" on="1"/>
        <pt x="159" y="102" on="1"/>
        <pt x="82" y="-9" on="1"/>
        <pt x="44" y="-9" on="1"/>
        <pt x="121" y="102" on="1"/>
        <pt x="33" y="102" on="1"/>
        <pt x="40" y="135" on="1"/>
        <pt x="144" y="135" on="1"/>
        <pt x="212" y="232" on="1"/>
        <pt x="61" y="232" on="1"/>
        <pt x="68" y="265" on="1"/>
        <pt x="235" y="265" on="1"/>
        <pt x="297" y="354" on="1"/>
        <pt x="338" y="354" on="1"/>
        <pt x="275" y="265" on="1"/>
        <pt x="369" y="265" on="1"/>
        <pt x="362" y="232" on="1"/>
        <pt x="252" y="232" on="1"/>
        <pt x="183" y="135" on="1"/>
      </contour>
    </TTGlyph>
    <TTGlyph name="ntilde" xMin="9" yMin="-7" xMax="1608" yMax="862">
      <component glyphName="n" x="0" y="0" flags="0x204"/>
      <component glyphName="tildecomb" x="270" y="0" flags="0x4"/>
    </TTGlyph>
    <TTGlyph name="numbersign" xMin="15" yMin="0" xMax="402" yMax="475">
      <contour>
        <pt x="349" y="149" on="1"/>
        <pt x="277" y="149" on="1"/>
        <pt x="227" y="0" on="1"/>
        <pt x="192" y="0" on="1"/>
        <pt x="242" y="149" on="1"/>
        <pt x="114" y="149" on="1"/>
        <pt x="65" y="0" on="1"/>
        <pt x="30" y="0" on="1"/>
        <pt x="79" y="149" on="1"/>
        <pt x="15" y="149" on="1"/>
        <pt x="22" y="180" on="1"/>
        <pt x="90" y="180" on="1"/>
        <pt x="129" y="299" on="1"/>
        <pt x="61" y="299" on="1"/>
        <pt x="68" y="331" on="1"/>
        <pt x="140" y="331" on="1"/>
        <pt x="189" y="475" on="1"/>
        <pt x="222" y="475" on="1"/>
        <pt x="174" y="331" on="1"/>
        <pt x="303" y="331" on="1"/>
        <pt x="350" y="475" on="1"/>
        <pt x="385" y="475" on="1"/>
        <pt x="337" y="331" on="1"/>
        <pt x="402" y="331" on="1"/>
        <pt x="395" y="299" on="1"/>
        <pt x="326" y="299" on="1"/>
        <pt x="287" y="180" on="1"/>
        <pt x="356" y="180" on="1"/>
      </contour>
      <contour>
        <pt x="253" y="180" on="1"/>
        <pt x="292" y="299" on="1"/>
        <pt x="163" y="299" on="1"/>
        <pt x="125" y="180" on="1"/>
      </contour>
    </TTGlyph>
    <TTGlyph name="o" xMin="4" yMin="-10" xMax="378" yMax="347">
      <contour>
        <pt x="362" y="169" on="1"/>
        <pt x="346" y="94" on="0"/>
        <pt x="230" y="-10" on="0"/>
        <pt x="153" y="-10" on="1"/>
        <pt x="76" y="-10" on="0"/>
        <pt x="4" y="94" on="0"/>
        <pt x="20" y="169" on="1"/>
        <pt x="36" y="244" on="0"/>
        <pt x="152" y="347" on="0"/>
        <pt x="229" y="347" on="1"/>
        <pt x="306" y="347" on="0"/>
        <pt x="378" y="244" on="0"/>
      </contour>
      <contour>
        <pt x="324" y="169" on="1"/>
        <pt x="338" y="231" on="0"/>
        <pt x="280" y="314" on="0"/>
        <pt x="222" y="314" on="1"/>
        <pt x="164" y="314" on="0"/>
        <pt x="72" y="231" on="0"/>
        <pt x="58" y="169" on="1"/>
        <pt x="45" y="107" on="0"/>
        <pt x="102" y="23" on="0"/>
        <pt x="160" y="23" on="1"/>
        <pt x="218" y="23" on="0"/>
        <pt x="311" y="107" on="0"/>
      </contour>
    </TTGlyph>
    <TTGlyph name="oacute" xMin="4" yMin="-10" xMax="2833" yMax="1297">
      <component glyphName="o" x="0" y="0" flags="0x204"/>
      <component glyphName="acutecomb" x="280" y="0" flags="0x4"/>
    </TTGlyph>
    <TTGlyph name="ocircumflex" xMin="4" yMin="-10" xMax="808" yMax="1150">
      <component glyphName="o" x="0" y="0" flags="0x204"/>
      <component glyphName="circumflex" x="64" y="0" flags="0x4"/>
    </TTGlyph>
    <TTGlyph name="odieresis" xMin="4" yMin="-10" xMax="822" yMax="1133">
      <component glyphName="o" x="0" y="0" flags="0x204"/>
      <component glyphName="dieresis" x="63" y="0" flags="0x4"/>
    </TTGlyph>
    <TTGlyph name="oe" xMin="4" yMin="-10" xMax="675" yMax="347">
      <contour>
        <pt x="596" y="48" on="1"/>
        <pt x="592" y="15" on="1"/>
        <pt x="529" y="-9" on="0"/>
        <pt x="461" y="-9" on="1"/>
        <pt x="351" y="-9" on="0"/>
        <pt x="323" y="81" on="1"/>
        <pt x="258" y="-10" on="0"/>
        <pt x="153" y="-10" on="1"/>
        <pt x="76" y="-10" on="0"/>
        <pt x="4" y="94" on="0"/>
        <pt x="20" y="169" on="1"/>
        <pt x="36" y="244" on="0"/>
        <pt x="152" y="347" on="0"/>
        <pt x="229" y="347" on="1"/>
        <pt x="337" y="347" on="0"/>
        <pt x="361" y="254" on="1"/>
        <pt x="424" y="347" on="0"/>
        <pt x="532" y="347" on="1"/>
        <pt x="675" y="347" on="0"/>
        <pt x="640" y="168" on="1"/>
        <pt x="362" y="168" on="1"/>
        <pt x="347" y="97" on="0"/>
        <pt x="410" y="25" on="0"/>
        <pt x="472" y="25" on="1"/>
        <pt x="531" y="25" on="0"/>
      </contour>
      <contour>
        <pt x="324" y="169" on="1"/>
        <pt x="338" y="230" on="0"/>
        <pt x="281" y="314" on="0"/>
        <pt x="222" y="314" on="1"/>
        <pt x="164" y="314" on="0"/>
        <pt x="72" y="231" on="0"/>
        <pt x="58" y="169" on="1"/>
        <pt x="45" y="107" on="0"/>
        <pt x="102" y="23" on="0"/>
        <pt x="160" y="23" on="1"/>
        <pt x="217" y="23" on="0"/>
        <pt x="310" y="106" on="0"/>
      </contour>
      <contour>
        <pt x="610" y="199" on="1"/>
        <pt x="619" y="250" on="0"/>
        <pt x="572" y="316" on="0"/>
        <pt x="521" y="316" on="1"/>
        <pt x="472" y="316" on="0"/>
        <pt x="390" y="251" on="0"/>
        <pt x="371" y="199" on="1"/>
      </contour>
    </TTGlyph>
    <TTGlyph name="ogonek" xMin="12" yMin="-158" xMax="151" yMax="4">
      <contour>
        <pt x="144" y="-143" on="1"/>
        <pt x="123" y="-151" on="0"/>
        <pt x="90" y="-158" on="0"/>
        <pt x="73" y="-158" on="1"/>
        <pt x="37" y="-158" on="0"/>
        <pt x="12" y="-115" on="0"/>
        <pt x="18" y="-86" on="1"/>
        <pt x="22" y="-68" on="0"/>
        <pt x="42" y="-22" on="0"/>
        <pt x="55" y="4" on="1"/>
        <pt x="95" y="4" on="1"/>
        <pt x="66" y="-45" on="0"/>
        <pt x="59" y="-76" on="1"/>
        <pt x="50" y="-119" on="0"/>
        <pt x="89" y="-122" on="1"/>
        <pt x="119" y="-122" on="0"/>
        <pt x="151" y="-107" on="1"/>
      </contour>
    </TTGlyph>
    <TTGlyph name="ograve" xMin="4" yMin="-10" xMax="2362" yMax="1161">
      <component glyphName="o" x="0" y="0" flags="0x204"/>
      <component glyphName="gravecomb" x="271" y="0" flags="0x4"/>
    </TTGlyph>
    <TTGlyph name="ohorn" xMin="4" yMin="-10" xMax="427" yMax="398">
      <contour>
        <pt x="362" y="169" on="1"/>
        <pt x="346" y="94" on="0"/>
        <pt x="230" y="-10" on="0"/>
        <pt x="153" y="-10" on="1"/>
        <pt x="76" y="-10" on="0"/>
        <pt x="4" y="94" on="0"/>
        <pt x="20" y="169" on="1"/>
        <pt x="36" y="244" on="0"/>
        <pt x="152" y="347" on="0"/>
        <pt x="229" y="347" on="1"/>
        <pt x="296" y="347" on="0"/>
        <pt x="335" y="304" on="1"/>
        <pt x="378" y="338" on="0"/>
        <pt x="394" y="398" on="1"/>
        <pt x="427" y="398" on="1"/>
        <pt x="412" y="337" on="0"/>
        <pt x="348" y="287" on="1"/>
        <pt x="377" y="237" on="0"/>
      </contour>
      <contour>
        <pt x="324" y="169" on="1"/>
        <pt x="338" y="231" on="0"/>
        <pt x="280" y="314" on="0"/>
        <pt x="222" y="314" on="1"/>
        <pt x="164" y="314" on="0"/>
        <pt x="72" y="231" on="0"/>
        <pt x="58" y="169" on="1"/>
        <pt x="45" y="107" on="0"/>
        <pt x="102" y="23" on="0"/>
        <pt x="160" y="23" on="1"/>
        <pt x="218" y="23" on="0"/>
        <pt x="311" y="107" on="0"/>
      </contour>
    </TTGlyph>
    <TTGlyph name="one" xMin="54" yMin="0" xMax="270" yMax="478">
      <contour>
        <pt x="244" y="0" on="1"/>
        <pt x="54" y="0" on="1"/>
        <pt x="61" y="36" on="1"/>
        <pt x="136" y="36" on="1"/>
        <pt x="217" y="417" on="1"/>
        <pt x="128" y="352" on="1"/>
        <pt x="112" y="377" on="1"/>
        <pt x="248" y="478" on="1"/>
        <pt x="270" y="478" on="0"/>
        <pt x="262" y="440" on="1"/>
        <pt x="176" y="36" on="1"/>
        <pt x="251" y="36" on="1"/>
      </contour>
    </TTGlyph>
    <TTGlyph name="oneeighth" xMin="39" yMin="-9" xMax="507" yMax="467">
      <contour>
        <pt x="90" y="-9" on="1"/>
        <pt x="57" y="-9" on="1"/>
        <pt x="442" y="467" on="1"/>
        <pt x="475" y="467" on="1"/>
      </contour>
      <contour>
        <pt x="161" y="186" on="1"/>
        <pt x="39" y="186" on="1"/>
        <pt x="44" y="210" on="1"/>
        <pt x="88" y="210" on="1"/>
        <pt x="131" y="411" on="1"/>
        <pt x="86" y="378" on="1"/>
        <pt x="72" y="402" on="1"/>
        <pt x="156" y="465" on="1"/>
        <pt x="177" y="463" on="0"/>
        <pt x="171" y="437" on="1"/>
        <pt x="123" y="210" on="1"/>
        <pt x="166" y="210" on="1"/>
      </contour>
      <contour>
        <pt x="447" y="75" on="1"/>
        <pt x="452" y="96" on="0"/>
        <pt x="431" y="131" on="0"/>
        <pt x="404" y="133" on="1"/>
        <pt x="375" y="131" on="0"/>
        <pt x="340" y="97" on="0"/>
        <pt x="335" y="75" on="1"/>
        <pt x="331" y="53" on="0"/>
        <pt x="356" y="26" on="0"/>
        <pt x="381" y="26" on="1"/>
        <pt x="405" y="26" on="0"/>
        <pt x="443" y="53" on="0"/>
      </contour>
      <contour>
        <pt x="467" y="209" on="1"/>
        <pt x="470" y="224" on="0"/>
        <pt x="450" y="249" on="0"/>
        <pt x="428" y="249" on="1"/>
        <pt x="406" y="249" on="0"/>
        <pt x="376" y="224" on="0"/>
        <pt x="373" y="209" on="1"/>
        <pt x="370" y="195" on="0"/>
        <pt x="390" y="172" on="0"/>
        <pt x="411" y="166" on="1"/>
        <pt x="434" y="171" on="0"/>
        <pt x="464" y="196" on="0"/>
      </contour>
      <contour>
        <pt x="481" y="77" on="1"/>
        <pt x="473" y="38" on="0"/>
        <pt x="416" y="-6" on="0"/>
        <pt x="374" y="-6" on="1"/>
        <pt x="333" y="-6" on="0"/>
        <pt x="295" y="38" on="0"/>
        <pt x="303" y="77" on="1"/>
        <pt x="308" y="101" on="0"/>
        <pt x="340" y="139" on="0"/>
        <pt x="361" y="151" on="1"/>
        <pt x="345" y="161" on="0"/>
        <pt x="336" y="190" on="0"/>
        <pt x="339" y="207" on="1"/>
        <pt x="347" y="240" on="0"/>
        <pt x="399" y="281" on="0"/>
        <pt x="435" y="281" on="1"/>
        <pt x="471" y="281" on="0"/>
        <pt x="507" y="240" on="0"/>
        <pt x="499" y="207" on="1"/>
        <pt x="496" y="190" on="0"/>
        <pt x="475" y="161" on="0"/>
        <pt x="456" y="151" on="1"/>
        <pt x="492" y="128" on="0"/>
      </contour>
    </TTGlyph>
    <TTGlyph name="onehalf" xMin="39" yMin="-9" xMax="516" yMax="467">
      <contour>
        <pt x="101" y="-9" on="1"/>
        <pt x="68" y="-9" on="1"/>
        <pt x="453" y="467" on="1"/>
        <pt x="486" y="467" on="1"/>
      </contour>
      <contour>
        <pt x="161" y="186" on="1"/>
        <pt x="39" y="186" on="1"/>
        <pt x="44" y="210" on="1"/>
        <pt x="88" y="210" on="1"/>
        <pt x="131" y="411" on="1"/>
        <pt x="86" y="378" on="1"/>
        <pt x="72" y="402" on="1"/>
        <pt x="156" y="465" on="1"/>
        <pt x="177" y="463" on="0"/>
        <pt x="171" y="437" on="1"/>
        <pt x="123" y="210" on="1"/>
        <pt x="166" y="210" on="1"/>
      </contour>
      <contour>
        <pt x="463" y="0" on="1"/>
        <pt x="282" y="0" on="1"/>
        <pt x="292" y="41" on="0"/>
        <pt x="373" y="105" on="1"/>
        <pt x="405" y="130" on="0"/>
        <pt x="468" y="184" on="0"/>
        <pt x="473" y="211" on="1"/>
        <pt x="482" y="254" on="0"/>
        <pt x="439" y="254" on="1"/>
        <pt x="391" y="254" on="0"/>
        <pt x="375" y="199" on="1"/>
        <pt x="342" y="205" on="1"/>
        <pt x="354" y="243" on="0"/>
        <pt x="409" y="285" on="0"/>
        <pt x="443" y="285" on="1"/>
        <pt x="479" y="285" on="0"/>
        <pt x="516" y="246" on="0"/>
        <pt x="508" y="211" on="1"/>
        <pt x="500" y="170" on="0"/>
        <pt x="434" y="114" on="1"/>
        <pt x="384" y="72" on="0"/>
        <pt x="338" y="31" on="1"/>
        <pt x="473" y="31" on="1"/>
      </contour>
    </TTGlyph>
    <TTGlyph name="onequarter" xMin="39" yMin="-9" xMax="486" yMax="467">
      <contour>
        <pt x="101" y="-9" on="1"/>
        <pt x="68" y="-9" on="1"/>
        <pt x="453" y="467" on="1"/>
        <pt x="486" y="467" on="1"/>
      </contour>
      <contour>
        <pt x="161" y="186" on="1"/>
        <pt x="39" y="186" on="1"/>
        <pt x="44" y="210" on="1"/>
        <pt x="88" y="210" on="1"/>
        <pt x="131" y="411" on="1"/>
        <pt x="86" y="378" on="1"/>
        <pt x="72" y="402" on="1"/>
        <pt x="156" y="465" on="1"/>
        <pt x="177" y="463" on="0"/>
        <pt x="171" y="437" on="1"/>
        <pt x="123" y="210" on="1"/>
        <pt x="166" y="210" on="1"/>
      </contour>
      <contour>
        <pt x="400" y="95" on="1"/>
        <pt x="431" y="243" on="1"/>
        <pt x="398" y="219" on="0"/>
        <pt x="365" y="171" on="1"/>
        <pt x="334" y="127" on="0"/>
        <pt x="325" y="95" on="1"/>
      </contour>
      <contour>
        <pt x="470" y="62" on="1"/>
        <pt x="428" y="62" on="1"/>
        <pt x="415" y="0" on="1"/>
        <pt x="380" y="0" on="1"/>
        <pt x="393" y="62" on="1"/>
        <pt x="281" y="62" on="1"/>
        <pt x="296" y="129" on="0"/>
        <pt x="348" y="199" on="1"/>
        <pt x="410" y="284" on="0"/>
        <pt x="476" y="286" on="1"/>
        <pt x="435" y="95" on="1"/>
        <pt x="479" y="95" on="1"/>
      </contour>
    </TTGlyph>
    <TTGlyph name="onesuperior" xMin="71" yMin="201" xMax="210" yMax="484">
      <contour>
        <pt x="193" y="201" on="1"/>
        <pt x="71" y="201" on="1"/>
        <pt x="76" y="225" on="1"/>
        <pt x="120" y="225" on="1"/>
        <pt x="164" y="430" on="1"/>
        <pt x="119" y="397" on="1"/>
        <pt x="105" y="421" on="1"/>
        <pt x="189" y="484" on="1"/>
        <pt x="210" y="482" on="0"/>
        <pt x="204" y="456" on="1"/>
        <pt x="155" y="225" on="1"/>
        <pt x="198" y="225" on="1"/>
      </contour>
    </TTGlyph>
    <TTGlyph name="onethird" xMin="40" yMin="-9" xMax="510" yMax="467">
      <contour>
        <pt x="102" y="-9" on="1"/>
        <pt x="69" y="-9" on="1"/>
        <pt x="454" y="467" on="1"/>
        <pt x="487" y="467" on="1"/>
      </contour>
      <contour>
        <pt x="162" y="186" on="1"/>
        <pt x="40" y="186" on="1"/>
        <pt x="45" y="210" on="1"/>
        <pt x="89" y="210" on="1"/>
        <pt x="132" y="411" on="1"/>
        <pt x="87" y="378" on="1"/>
        <pt x="73" y="402" on="1"/>
        <pt x="157" y="465" on="1"/>
        <pt x="178" y="463" on="0"/>
        <pt x="172" y="437" on="1"/>
        <pt x="124" y="210" on="1"/>
        <pt x="167" y="210" on="1"/>
      </contour>
      <contour>
        <pt x="492" y="101" on="1"/>
        <pt x="482" y="55" on="0"/>
        <pt x="411" y="0" on="0"/>
        <pt x="361" y="-1" on="1"/>
        <pt x="317" y="-2" on="0"/>
        <pt x="295" y="19" on="1"/>
        <pt x="316" y="51" on="1"/>
        <pt x="335" y="32" on="0"/>
        <pt x="365" y="32" on="1"/>
        <pt x="402" y="32" on="0"/>
        <pt x="452" y="70" on="0"/>
        <pt x="459" y="100" on="1"/>
        <pt x="468" y="144" on="0"/>
        <pt x="426" y="144" on="1"/>
        <pt x="398" y="144" on="0"/>
        <pt x="379" y="130" on="1"/>
        <pt x="370" y="155" on="1"/>
        <pt x="428" y="190" on="0"/>
        <pt x="435" y="195" on="1"/>
        <pt x="462" y="214" on="0"/>
        <pt x="466" y="232" on="1"/>
        <pt x="470" y="252" on="0"/>
        <pt x="437" y="252" on="1"/>
        <pt x="392" y="252" on="0"/>
        <pt x="370" y="208" on="1"/>
        <pt x="344" y="223" on="1"/>
        <pt x="384" y="285" on="0"/>
        <pt x="447" y="285" on="1"/>
        <pt x="510" y="285" on="0"/>
        <pt x="499" y="233" on="1"/>
        <pt x="495" y="215" on="0"/>
        <pt x="459" y="177" on="0"/>
        <pt x="441" y="170" on="1"/>
        <pt x="505" y="160" on="0"/>
      </contour>
    </TTGlyph>
    <TTGlyph name="ordfeminine" xMin="32" yMin="241" xMax="274" yMax="478">
      <contour>
        <pt x="274" y="443" on="1"/>
        <pt x="241" y="294" on="1"/>
        <pt x="239" y="285" on="0"/>
        <pt x="239" y="274" on="1"/>
        <pt x="239" y="258" on="0"/>
        <pt x="244" y="249" on="1"/>
        <pt x="210" y="241" on="1"/>
        <pt x="206" y="252" on="0"/>
        <pt x="206" y="265" on="1"/>
        <pt x="206" y="275" on="0"/>
        <pt x="207" y="282" on="1"/>
        <pt x="164" y="241" on="0"/>
        <pt x="116" y="241" on="1"/>
        <pt x="77" y="241" on="0"/>
        <pt x="32" y="287" on="0"/>
        <pt x="32" y="324" on="1"/>
        <pt x="32" y="383" on="0"/>
        <pt x="110" y="478" on="0"/>
        <pt x="169" y="478" on="1"/>
        <pt x="231" y="478" on="0"/>
      </contour>
      <contour>
        <pt x="216" y="343" on="1"/>
        <pt x="236" y="432" on="1"/>
        <pt x="205" y="452" on="0"/>
        <pt x="172" y="452" on="1"/>
        <pt x="127" y="452" on="0"/>
        <pt x="67" y="373" on="0"/>
        <pt x="67" y="327" on="1"/>
        <pt x="67" y="267" on="0"/>
        <pt x="125" y="267" on="1"/>
        <pt x="155" y="267" on="0"/>
        <pt x="209" y="313" on="0"/>
      </contour>
    </TTGlyph>
    <TTGlyph name="ordmasculine" xMin="42" yMin="238" xMax="308" yMax="483">
      <contour>
        <pt x="297" y="360" on="1"/>
        <pt x="287" y="310" on="0"/>
        <pt x="197" y="238" on="0"/>
        <pt x="148" y="238" on="1"/>
        <pt x="98" y="238" on="0"/>
        <pt x="42" y="310" on="0"/>
        <pt x="52" y="360" on="1"/>
        <pt x="63" y="409" on="0"/>
        <pt x="151" y="483" on="0"/>
        <pt x="201" y="483" on="1"/>
        <pt x="250" y="483" on="0"/>
        <pt x="308" y="409" on="0"/>
      </contour>
      <contour>
        <pt x="262" y="360" on="1"/>
        <pt x="270" y="396" on="0"/>
        <pt x="229" y="448" on="0"/>
        <pt x="193" y="448" on="1"/>
        <pt x="157" y="448" on="0"/>
        <pt x="95" y="396" on="0"/>
        <pt x="87" y="360" on="1"/>
        <pt x="80" y="324" on="0"/>
        <pt x="120" y="273" on="0"/>
        <pt x="156" y="273" on="1"/>
        <pt x="192" y="273" on="0"/>
        <pt x="255" y="324" on="0"/>
      </contour>
    </TTGlyph>
    <TTGlyph name="oslash" xMin="1" yMin="-29" xMax="384" yMax="383">
      <contour>
        <pt x="362" y="169" on="1"/>
        <pt x="346" y="94" on="0"/>
        <pt x="230" y="-10" on="0"/>
        <pt x="153" y="-10" on="1"/>
        <pt x="109" y="-10" on="0"/>
        <pt x="74" y="10" on="1"/>
        <pt x="41" y="-29" on="1"/>
        <pt x="1" y="-29" on="1"/>
        <pt x="50" y="30" on="1"/>
        <pt x="2" y="81" on="0"/>
        <pt x="20" y="169" on="1"/>
        <pt x="36" y="244" on="0"/>
        <pt x="152" y="347" on="0"/>
        <pt x="229" y="347" on="1"/>
        <pt x="265" y="347" on="0"/>
        <pt x="299" y="332" on="1"/>
        <pt x="341" y="383" on="1"/>
        <pt x="384" y="383" on="1"/>
        <pt x="326" y="314" on="1"/>
        <pt x="382" y="263" on="0"/>
      </contour>
      <contour>
        <pt x="324" y="169" on="1"/>
        <pt x="340" y="240" on="0"/>
        <pt x="301" y="283" on="1"/>
        <pt x="99" y="40" on="1"/>
        <pt x="124" y="23" on="0"/>
        <pt x="160" y="23" on="1"/>
        <pt x="218" y="23" on="0"/>
        <pt x="311" y="107" on="0"/>
      </contour>
      <contour>
        <pt x="75" y="61" on="1"/>
        <pt x="275" y="302" on="1"/>
        <pt x="252" y="314" on="0"/>
        <pt x="222" y="314" on="1"/>
        <pt x="164" y="314" on="0"/>
        <pt x="72" y="231" on="0"/>
        <pt x="58" y="169" on="1"/>
        <pt x="45" y="104" on="0"/>
      </contour>
    </TTGlyph>
    <TTGlyph name="otilde" xMin="4" yMin="-10" xMax="1882" yMax="862">
      <component glyphName="o" x="0" y="0" flags="0x204"/>
      <component glyphName="tildecomb" x="274" y="0" flags="0x4"/>
    </TTGlyph>
    <TTGlyph name="p" xMin="-26" yMin="-167" xMax="382" yMax="347">
      <contour>
        <pt x="328" y="165" on="1"/>
        <pt x="342" y="235" on="0"/>
        <pt x="294" y="314" on="0"/>
        <pt x="232" y="314" on="1"/>
        <pt x="182" y="314" on="0"/>
        <pt x="101" y="250" on="0"/>
        <pt x="90" y="202" on="1"/>
        <pt x="78" y="145" on="1"/>
        <pt x="67" y="90" on="0"/>
        <pt x="98" y="55" on="1"/>
        <pt x="126" y="22" on="0"/>
        <pt x="174" y="22" on="1"/>
        <pt x="232" y="22" on="0"/>
        <pt x="275" y="63" on="1"/>
        <pt x="314" y="102" on="0"/>
      </contour>
      <contour>
        <pt x="364" y="164" on="1"/>
        <pt x="348" y="89" on="0"/>
        <pt x="298" y="42" on="1"/>
        <pt x="246" y="-9" on="0"/>
        <pt x="175" y="-9" on="1"/>
        <pt x="90" y="-9" on="0"/>
        <pt x="61" y="63" on="1"/>
        <pt x="12" y="-167" on="1"/>
        <pt x="-26" y="-167" on="1"/>
        <pt x="66" y="269" on="1"/>
        <pt x="74" y="311" on="0"/>
        <pt x="63" y="337" on="1"/>
        <pt x="102" y="345" on="1"/>
        <pt x="113" y="311" on="0"/>
        <pt x="103" y="278" on="1"/>
        <pt x="164" y="347" on="0"/>
        <pt x="244" y="347" on="1"/>
        <pt x="317" y="347" on="0"/>
        <pt x="382" y="246" on="0"/>
      </contour>
    </TTGlyph>
    <TTGlyph name="paragraph" xMin="56" yMin="-63" xMax="377" yMax="475">
      <contour>
        <pt x="264" y="-63" on="1"/>
        <pt x="230" y="-63" on="1"/>
        <pt x="338" y="443" on="1"/>
        <pt x="290" y="443" on="1"/>
        <pt x="182" y="-63" on="1"/>
        <pt x="147" y="-63" on="1"/>
        <pt x="199" y="180" on="1"/>
        <pt x="195" y="180" on="1"/>
        <pt x="135" y="180" on="0"/>
        <pt x="98" y="215" on="1"/>
        <pt x="56" y="255" on="0"/>
        <pt x="70" y="321" on="1"/>
        <pt x="102" y="475" on="0"/>
        <pt x="300" y="475" on="1"/>
        <pt x="353" y="475" on="0"/>
        <pt x="377" y="470" on="1"/>
      </contour>
    </TTGlyph>
    <TTGlyph name="parenleft" xMin="-9" yMin="-58" xMax="240" yMax="532">
      <contour>
        <pt x="113" y="-58" on="1"/>
        <pt x="75" y="-58" on="1"/>
        <pt x="-9" y="63" on="0"/>
        <pt x="26" y="234" on="1"/>
        <pt x="61" y="396" on="0"/>
        <pt x="200" y="532" on="1"/>
        <pt x="240" y="532" on="1"/>
        <pt x="100" y="404" on="0"/>
        <pt x="64" y="234" on="1"/>
        <pt x="30" y="75" on="0"/>
      </contour>
    </TTGlyph>
    <TTGlyph name="parenright" xMin="-35" yMin="-58" xMax="212" yMax="532">
      <contour>
        <pt x="176" y="237" on="1"/>
        <pt x="141" y="71" on="0"/>
        <pt x="2" y="-58" on="1"/>
        <pt x="-35" y="-58" on="1"/>
        <pt x="105" y="81" on="0"/>
        <pt x="138" y="237" on="1"/>
        <pt x="171" y="395" on="0"/>
        <pt x="90" y="532" on="1"/>
        <pt x="128" y="532" on="1"/>
        <pt x="212" y="407" on="0"/>
      </contour>
    </TTGlyph>
    <TTGlyph name="partialdiff" xMin="-4" yMin="-5" xMax="341" yMax="453">
      <contour>
        <pt x="304" y="282" on="1"/>
        <pt x="282" y="177" on="0"/>
        <pt x="233" y="100" on="1"/>
        <pt x="164" y="-5" on="0"/>
        <pt x="68" y="-5" on="1"/>
        <pt x="32" y="-5" on="0"/>
        <pt x="15" y="21" on="1"/>
        <pt x="-4" y="50" on="0"/>
        <pt x="6" y="101" on="1"/>
        <pt x="24" y="188" on="0"/>
        <pt x="99" y="239" on="1"/>
        <pt x="164" y="283" on="0"/>
        <pt x="244" y="283" on="1"/>
        <pt x="257" y="283" on="0"/>
        <pt x="263" y="282" on="1"/>
        <pt x="290" y="415" on="0"/>
        <pt x="237" y="415" on="1"/>
        <pt x="193" y="415" on="0"/>
        <pt x="155" y="346" on="1"/>
        <pt x="126" y="365" on="1"/>
        <pt x="181" y="453" on="0"/>
        <pt x="244" y="453" on="1"/>
        <pt x="341" y="453" on="0"/>
      </contour>
      <contour>
        <pt x="255" y="247" on="1"/>
        <pt x="248" y="248" on="0"/>
        <pt x="236" y="248" on="1"/>
        <pt x="162" y="248" on="0"/>
        <pt x="109" y="201" on="1"/>
        <pt x="61" y="159" on="0"/>
        <pt x="49" y="101" on="1"/>
        <pt x="35" y="36" on="0"/>
        <pt x="88" y="36" on="1"/>
        <pt x="143" y="36" on="0"/>
        <pt x="197" y="119" on="1"/>
        <pt x="238" y="183" on="0"/>
      </contour>
    </TTGlyph>
    <TTGlyph name="percent" xMin="31" yMin="-9" xMax="566" yMax="476">
      <contour>
        <pt x="511" y="476" on="1"/>
        <pt x="118" y="-9" on="1"/>
        <pt x="84" y="-9" on="1"/>
        <pt x="477" y="476" on="1"/>
      </contour>
      <contour>
        <pt x="275" y="334" on="1"/>
        <pt x="245" y="192" on="0"/>
        <pt x="138" y="192" on="1"/>
        <pt x="31" y="192" on="0"/>
        <pt x="61" y="334" on="1"/>
        <pt x="92" y="476" on="0"/>
        <pt x="199" y="476" on="1"/>
        <pt x="306" y="476" on="0"/>
      </contour>
      <contour>
        <pt x="239" y="334" on="1"/>
        <pt x="263" y="444" on="0"/>
        <pt x="192" y="444" on="1"/>
        <pt x="121" y="444" on="0"/>
        <pt x="97" y="334" on="1"/>
        <pt x="74" y="224" on="0"/>
        <pt x="145" y="224" on="1"/>
        <pt x="216" y="224" on="0"/>
      </contour>
      <contour>
        <pt x="536" y="139" on="1"/>
        <pt x="506" y="-3" on="0"/>
        <pt x="399" y="-3" on="1"/>
        <pt x="292" y="-3" on="0"/>
        <pt x="322" y="139" on="1"/>
        <pt x="352" y="281" on="0"/>
        <pt x="459" y="281" on="1"/>
        <pt x="566" y="281" on="0"/>
      </contour>
      <contour>
        <pt x="500" y="139" on="1"/>
        <pt x="523" y="249" on="0"/>
        <pt x="452" y="249" on="1"/>
        <pt x="381" y="249" on="0"/>
        <pt x="358" y="139" on="1"/>
        <pt x="335" y="29" on="0"/>
        <pt x="406" y="29" on="1"/>
        <pt x="477" y="29" on="0"/>
      </contour>
    </TTGlyph>
    <TTGlyph name="period" xMin="5" yMin="-6" xMax="80" yMax="63">
      <contour>
        <pt x="77" y="28" on="1"/>
        <pt x="74" y="14" on="0"/>
        <pt x="49" y="-6" on="0"/>
        <pt x="35" y="-6" on="1"/>
        <pt x="21" y="-6" on="0"/>
        <pt x="5" y="14" on="0"/>
        <pt x="8" y="28" on="1"/>
        <pt x="11" y="42" on="0"/>
        <pt x="36" y="63" on="0"/>
        <pt x="50" y="63" on="1"/>
        <pt x="64" y="63" on="0"/>
        <pt x="80" y="42" on="0"/>
      </contour>
    </TTGlyph>
    <TTGlyph name="periodcentered" xMin="38" yMin="147" xMax="113" yMax="216">
      <contour>
        <pt x="110" y="181" on="1"/>
        <pt x="107" y="167" on="0"/>
        <pt x="82" y="147" on="0"/>
        <pt x="68" y="147" on="1"/>
        <pt x="54" y="147" on="0"/>
        <pt x="38" y="167" on="0"/>
        <pt x="41" y="181" on="1"/>
        <pt x="44" y="195" on="0"/>
        <pt x="68" y="216" on="0"/>
        <pt x="82" y="216" on="1"/>
        <pt x="96" y="216" on="0"/>
        <pt x="113" y="195" on="0"/>
      </contour>
    </TTGlyph>
    <TTGlyph name="perthousand" xMin="31" yMin="-9" xMax="810" yMax="476">
      <contour>
        <pt x="472" y="476" on="1"/>
        <pt x="506" y="476" on="1"/>
        <pt x="113" y="-9" on="1"/>
        <pt x="79" y="-9" on="1"/>
      </contour>
      <contour>
        <pt x="780" y="139" on="1"/>
        <pt x="750" y="-3" on="0"/>
        <pt x="643" y="-3" on="1"/>
        <pt x="536" y="-3" on="0"/>
        <pt x="566" y="139" on="1"/>
        <pt x="596" y="281" on="0"/>
        <pt x="703" y="281" on="1"/>
        <pt x="810" y="281" on="0"/>
      </contour>
      <contour>
        <pt x="275" y="334" on="1"/>
        <pt x="245" y="192" on="0"/>
        <pt x="138" y="192" on="1"/>
        <pt x="31" y="192" on="0"/>
        <pt x="61" y="334" on="1"/>
        <pt x="92" y="476" on="0"/>
        <pt x="199" y="476" on="1"/>
        <pt x="306" y="476" on="0"/>
      </contour>
      <contour>
        <pt x="239" y="334" on="1"/>
        <pt x="263" y="444" on="0"/>
        <pt x="192" y="444" on="1"/>
        <pt x="121" y="444" on="0"/>
        <pt x="97" y="334" on="1"/>
        <pt x="74" y="224" on="0"/>
        <pt x="145" y="224" on="1"/>
        <pt x="216" y="224" on="0"/>
      </contour>
      <contour>
        <pt x="744" y="139" on="1"/>
        <pt x="767" y="249" on="0"/>
        <pt x="696" y="249" on="1"/>
        <pt x="625" y="249" on="0"/>
        <pt x="602" y="139" on="1"/>
        <pt x="579" y="29" on="0"/>
        <pt x="650" y="29" on="1"/>
        <pt x="721" y="29" on="0"/>
      </contour>
      <contour>
        <pt x="532" y="139" on="1"/>
        <pt x="502" y="-3" on="0"/>
        <pt x="395" y="-3" on="1"/>
        <pt x="288" y="-3" on="0"/>
        <pt x="318" y="139" on="1"/>
        <pt x="348" y="281" on="0"/>
        <pt x="455" y="281" on="1"/>
        <pt x="562" y="281" on="0"/>
      </contour>
      <contour>
        <pt x="496" y="139" on="1"/>
        <pt x="519" y="249" on="0"/>
        <pt x="448" y="249" on="1"/>
        <pt x="377" y="249" on="0"/>
        <pt x="354" y="139" on="1"/>
        <pt x="331" y="29" on="0"/>
        <pt x="402" y="29" on="1"/>
        <pt x="473" y="29" on="0"/>
      </contour>
    </TTGlyph>
    <TTGlyph name="plus" xMin="30" yMin="0" xMax="372" yMax="357">
      <contour>
        <pt x="365" y="165" on="1"/>
        <pt x="215" y="165" on="1"/>
        <pt x="180" y="0" on="1"/>
        <pt x="145" y="0" on="1"/>
        <pt x="180" y="165" on="1"/>
        <pt x="30" y="165" on="1"/>
        <pt x="37" y="198" on="1"/>
        <pt x="187" y="198" on="1"/>
        <pt x="220" y="357" on="1"/>
        <pt x="255" y="357" on="1"/>
        <pt x="222" y="198" on="1"/>
        <pt x="372" y="198" on="1"/>
      </contour>
    </TTGlyph>
    <TTGlyph name="plusminus" xMin="-5" yMin="0" xMax="379" yMax="357">
      <contour>
        <pt x="372" y="201" on="1"/>
        <pt x="222" y="201" on="1"/>
        <pt x="194" y="68" on="1"/>
        <pt x="159" y="68" on="1"/>
        <pt x="187" y="201" on="1"/>
        <pt x="37" y="201" on="1"/>
        <pt x="44" y="233" on="1"/>
        <pt x="194" y="233" on="1"/>
        <pt x="220" y="357" on="1"/>
        <pt x="255" y="357" on="1"/>
        <pt x="229" y="233" on="1"/>
        <pt x="379" y="233" on="1"/>
      </contour>
      <contour>
        <pt x="330" y="0" on="1"/>
        <pt x="-5" y="0" on="1"/>
        <pt x="1" y="32" on="1"/>
        <pt x="336" y="32" on="1"/>
      </contour>
    </TTGlyph>
    <TTGlyph name="product" xMin="0" yMin="-55" xMax="450" yMax="476">
      <contour>
        <pt x="337" y="-55" on="1"/>
        <pt x="298" y="-55" on="1"/>
        <pt x="404" y="443" on="1"/>
        <pt x="144" y="443" on="1"/>
        <pt x="38" y="-55" on="1"/>
        <pt x="0" y="-55" on="1"/>
        <pt x="112" y="476" on="1"/>
        <pt x="450" y="476" on="1"/>
      </contour>
    </TTGlyph>
    <TTGlyph name="q" xMin="16" yMin="-168" xMax="373" yMax="347">
      <contour>
        <pt x="373" y="296" on="1"/>
        <pt x="272" y="-168" on="1"/>
        <pt x="233" y="-168" on="1"/>
        <pt x="282" y="62" on="1"/>
        <pt x="224" y="-10" on="0"/>
        <pt x="138" y="-10" on="1"/>
        <pt x="80" y="-10" on="0"/>
        <pt x="16" y="57" on="0"/>
        <pt x="16" y="113" on="1"/>
        <pt x="16" y="201" on="0"/>
        <pt x="73" y="271" on="1"/>
        <pt x="133" y="346" on="0"/>
        <pt x="219" y="346" on="1"/>
        <pt x="311" y="347" on="0"/>
      </contour>
      <contour>
        <pt x="299" y="143" on="1"/>
        <pt x="330" y="279" on="1"/>
        <pt x="279" y="314" on="0"/>
        <pt x="224" y="314" on="1"/>
        <pt x="151" y="313" on="0"/>
        <pt x="100" y="249" on="1"/>
        <pt x="54" y="189" on="0"/>
        <pt x="54" y="118" on="1"/>
        <pt x="54" y="74" on="0"/>
        <pt x="105" y="21" on="0"/>
        <pt x="151" y="21" on="1"/>
        <pt x="202" y="21" on="0"/>
        <pt x="288" y="94" on="0"/>
      </contour>
    </TTGlyph>
    <TTGlyph name="question" xMin="44" yMin="-6" xMax="293" yMax="483">
      <contour>
        <pt x="121" y="123" on="1"/>
        <pt x="87" y="123" on="1"/>
        <pt x="85" y="138" on="0"/>
        <pt x="89" y="158" on="1"/>
        <pt x="100" y="211" on="0"/>
        <pt x="235" y="333" on="0"/>
        <pt x="244" y="376" on="1"/>
        <pt x="260" y="448" on="0"/>
        <pt x="178" y="448" on="1"/>
        <pt x="131" y="448" on="0"/>
        <pt x="92" y="422" on="1"/>
        <pt x="84" y="452" on="1"/>
        <pt x="138" y="483" on="0"/>
        <pt x="192" y="483" on="1"/>
        <pt x="249" y="483" on="0"/>
        <pt x="272" y="450" on="1"/>
        <pt x="293" y="421" on="0"/>
        <pt x="284" y="378" on="1"/>
        <pt x="273" y="325" on="0"/>
        <pt x="195" y="258" on="1"/>
        <pt x="135" y="206" on="0"/>
        <pt x="124" y="155" on="1"/>
        <pt x="121" y="137" on="0"/>
      </contour>
      <contour>
        <pt x="116" y="28" on="1"/>
        <pt x="113" y="14" on="0"/>
        <pt x="88" y="-6" on="0"/>
        <pt x="74" y="-6" on="1"/>
        <pt x="60" y="-6" on="0"/>
        <pt x="44" y="14" on="0"/>
        <pt x="47" y="28" on="1"/>
        <pt x="50" y="42" on="0"/>
        <pt x="75" y="63" on="0"/>
        <pt x="89" y="63" on="1"/>
        <pt x="103" y="63" on="0"/>
        <pt x="119" y="42" on="0"/>
      </contour>
    </TTGlyph>
    <TTGlyph name="questiondown" xMin="-28" yMin="-153" xMax="222" yMax="341">
      <contour>
        <pt x="181" y="-122" on="1"/>
        <pt x="126" y="-153" on="0"/>
        <pt x="72" y="-153" on="1"/>
        <pt x="15" y="-153" on="0"/>
        <pt x="-7" y="-120" on="1"/>
        <pt x="-28" y="-91" on="0"/>
        <pt x="-19" y="-48" on="1"/>
        <pt x="-7" y="5" on="0"/>
        <pt x="69" y="72" on="1"/>
        <pt x="129" y="124" on="0"/>
        <pt x="140" y="175" on="1"/>
        <pt x="144" y="193" on="0"/>
        <pt x="143" y="207" on="1"/>
        <pt x="177" y="207" on="1"/>
        <pt x="179" y="192" on="0"/>
        <pt x="175" y="172" on="1"/>
        <pt x="164" y="119" on="0"/>
        <pt x="29" y="-3" on="0"/>
        <pt x="20" y="-46" on="1"/>
        <pt x="4" y="-118" on="0"/>
        <pt x="86" y="-118" on="1"/>
        <pt x="133" y="-118" on="0"/>
        <pt x="172" y="-92" on="1"/>
      </contour>
      <contour>
        <pt x="219" y="304" on="1"/>
        <pt x="216" y="289" on="0"/>
        <pt x="189" y="267" on="0"/>
        <pt x="174" y="267" on="1"/>
        <pt x="159" y="267" on="0"/>
        <pt x="142" y="289" on="0"/>
        <pt x="145" y="304" on="1"/>
        <pt x="148" y="319" on="0"/>
        <pt x="175" y="341" on="0"/>
        <pt x="190" y="341" on="1"/>
        <pt x="205" y="341" on="0"/>
        <pt x="222" y="319" on="0"/>
      </contour>
    </TTGlyph>
    <TTGlyph name="quotedbl" xMin="75" yMin="338" xMax="234" yMax="499">
      <contour>
        <pt x="189" y="338" on="1"/>
        <pt x="162" y="338" on="1"/>
        <pt x="187" y="499" on="1"/>
        <pt x="234" y="499" on="1"/>
      </contour>
      <contour>
        <pt x="102" y="338" on="1"/>
        <pt x="75" y="338" on="1"/>
        <pt x="100" y="499" on="1"/>
        <pt x="147" y="499" on="1"/>
      </contour>
    </TTGlyph>
    <TTGlyph name="quotedblbase" xMin="15" yMin="-111" xMax="256" yMax="70">
      <contour>
        <pt x="136" y="31" on="1"/>
        <pt x="123" y="-29" on="0"/>
        <pt x="76" y="-75" on="1"/>
        <pt x="47" y="-101" on="0"/>
        <pt x="26" y="-111" on="1"/>
        <pt x="15" y="-94" on="1"/>
        <pt x="78" y="-58" on="0"/>
        <pt x="94" y="-4" on="1"/>
        <pt x="89" y="-5" on="0"/>
        <pt x="86" y="-5" on="1"/>
        <pt x="69" y="-5" on="0"/>
        <pt x="57" y="17" on="0"/>
        <pt x="60" y="31" on="1"/>
        <pt x="63" y="47" on="0"/>
        <pt x="90" y="70" on="0"/>
        <pt x="105" y="70" on="1"/>
        <pt x="122" y="70" on="0"/>
        <pt x="140" y="48" on="0"/>
      </contour>
      <contour>
        <pt x="252" y="31" on="1"/>
        <pt x="239" y="-29" on="0"/>
        <pt x="192" y="-75" on="1"/>
        <pt x="163" y="-101" on="0"/>
        <pt x="142" y="-111" on="1"/>
        <pt x="131" y="-94" on="1"/>
        <pt x="194" y="-58" on="0"/>
        <pt x="210" y="-4" on="1"/>
        <pt x="205" y="-5" on="0"/>
        <pt x="202" y="-5" on="1"/>
        <pt x="185" y="-5" on="0"/>
        <pt x="173" y="17" on="0"/>
        <pt x="176" y="31" on="1"/>
        <pt x="179" y="47" on="0"/>
        <pt x="206" y="70" on="0"/>
        <pt x="221" y="70" on="1"/>
        <pt x="238" y="70" on="0"/>
        <pt x="256" y="48" on="0"/>
      </contour>
    </TTGlyph>
    <TTGlyph name="quotedblleft" xMin="110" yMin="334" xMax="351" yMax="515">
      <contour>
        <pt x="306" y="373" on="1"/>
        <pt x="302" y="357" on="0"/>
        <pt x="275" y="334" on="0"/>
        <pt x="260" y="334" on="1"/>
        <pt x="244" y="334" on="0"/>
        <pt x="226" y="357" on="0"/>
        <pt x="230" y="373" on="1"/>
        <pt x="243" y="433" on="0"/>
        <pt x="291" y="479" on="1"/>
        <pt x="319" y="505" on="0"/>
        <pt x="340" y="515" on="1"/>
        <pt x="351" y="498" on="1"/>
        <pt x="288" y="462" on="0"/>
        <pt x="272" y="408" on="1"/>
        <pt x="278" y="409" on="0"/>
        <pt x="277" y="409" on="1"/>
        <pt x="291" y="409" on="0"/>
        <pt x="309" y="387" on="0"/>
      </contour>
      <contour>
        <pt x="190" y="373" on="1"/>
        <pt x="186" y="357" on="0"/>
        <pt x="159" y="334" on="0"/>
        <pt x="144" y="334" on="1"/>
        <pt x="128" y="334" on="0"/>
        <pt x="110" y="357" on="0"/>
        <pt x="114" y="373" on="1"/>
        <pt x="127" y="433" on="0"/>
        <pt x="175" y="479" on="1"/>
        <pt x="203" y="505" on="0"/>
        <pt x="224" y="515" on="1"/>
        <pt x="235" y="498" on="1"/>
        <pt x="172" y="462" on="0"/>
        <pt x="156" y="408" on="1"/>
        <pt x="162" y="409" on="0"/>
        <pt x="161" y="409" on="1"/>
        <pt x="175" y="409" on="0"/>
        <pt x="193" y="387" on="0"/>
      </contour>
    </TTGlyph>
    <TTGlyph name="quotedblright" xMin="107" yMin="322" xMax="348" yMax="503">
      <contour>
        <pt x="228" y="464" on="1"/>
        <pt x="215" y="404" on="0"/>
        <pt x="168" y="358" on="1"/>
        <pt x="139" y="332" on="0"/>
        <pt x="118" y="322" on="1"/>
        <pt x="107" y="339" on="1"/>
        <pt x="170" y="375" on="0"/>
        <pt x="186" y="429" on="1"/>
        <pt x="179" y="428" on="0"/>
        <pt x="180" y="428" on="1"/>
        <pt x="166" y="428" on="0"/>
        <pt x="149" y="450" on="0"/>
        <pt x="152" y="464" on="1"/>
        <pt x="156" y="480" on="0"/>
        <pt x="182" y="503" on="0"/>
        <pt x="197" y="503" on="1"/>
        <pt x="214" y="503" on="0"/>
        <pt x="232" y="481" on="0"/>
      </contour>
      <contour>
        <pt x="344" y="464" on="1"/>
        <pt x="331" y="404" on="0"/>
        <pt x="284" y="358" on="1"/>
        <pt x="255" y="332" on="0"/>
        <pt x="234" y="322" on="1"/>
        <pt x="223" y="339" on="1"/>
        <pt x="286" y="375" on="0"/>
        <pt x="302" y="429" on="1"/>
        <pt x="295" y="428" on="0"/>
        <pt x="296" y="428" on="1"/>
        <pt x="282" y="428" on="0"/>
        <pt x="265" y="450" on="0"/>
        <pt x="268" y="464" on="1"/>
        <pt x="272" y="480" on="0"/>
        <pt x="298" y="503" on="0"/>
        <pt x="313" y="503" on="1"/>
        <pt x="330" y="503" on="0"/>
        <pt x="348" y="481" on="0"/>
      </contour>
    </TTGlyph>
    <TTGlyph name="quoteleft" xMin="105" yMin="334" xMax="230" yMax="515">
      <contour>
        <pt x="185" y="373" on="1"/>
        <pt x="181" y="357" on="0"/>
        <pt x="154" y="334" on="0"/>
        <pt x="139" y="334" on="1"/>
        <pt x="123" y="334" on="0"/>
        <pt x="105" y="357" on="0"/>
        <pt x="109" y="373" on="1"/>
        <pt x="122" y="433" on="0"/>
        <pt x="170" y="479" on="1"/>
        <pt x="198" y="505" on="0"/>
        <pt x="219" y="515" on="1"/>
        <pt x="230" y="498" on="1"/>
        <pt x="167" y="462" on="0"/>
        <pt x="151" y="408" on="1"/>
        <pt x="157" y="409" on="0"/>
        <pt x="156" y="409" on="1"/>
        <pt x="170" y="409" on="0"/>
        <pt x="188" y="387" on="0"/>
      </contour>
    </TTGlyph>
    <TTGlyph name="quoteright" xMin="102" yMin="322" xMax="227" yMax="503">
      <contour>
        <pt x="223" y="464" on="1"/>
        <pt x="210" y="404" on="0"/>
        <pt x="163" y="358" on="1"/>
        <pt x="134" y="332" on="0"/>
        <pt x="113" y="322" on="1"/>
        <pt x="102" y="339" on="1"/>
        <pt x="165" y="375" on="0"/>
        <pt x="181" y="429" on="1"/>
        <pt x="174" y="428" on="0"/>
        <pt x="175" y="428" on="1"/>
        <pt x="161" y="428" on="0"/>
        <pt x="144" y="450" on="0"/>
        <pt x="147" y="464" on="1"/>
        <pt x="151" y="480" on="0"/>
        <pt x="177" y="503" on="0"/>
        <pt x="192" y="503" on="1"/>
        <pt x="209" y="503" on="0"/>
        <pt x="227" y="481" on="0"/>
      </contour>
    </TTGlyph>
</ttFont>
